Gest.ufo
<glyph name="exclam" format="2">
	<advance width="193"/>
	<unicode hex="0021"/>
	<outline>
		<contour>
			<point x="45" y="259" type="line"/>
			<point x="148" y="259" type="line"/>
			<point x="148" y="718" type="line"/>
			<point x="45" y="718" type="line"/>
		</contour>
		<component base="period" xOffset="-1"/>
	</outline>
</glyph>
<glyph name="numbersign" format="2">
	<advance width="621"/>
	<unicode hex="0023"/>
	<outline>
		<contour>
			<point x="51" y="505" type="line"/>
			<point x="51" y="410" type="line"/>
			<point x="570" y="410" type="line"/>
			<point x="570" y="505" type="line"/>
		</contour>
		<contour>
			<point x="51" y="305" type="line"/>
			<point x="51" y="210" type="line"/>
			<point x="570" y="210" type="line"/>
			<point x="570" y="305" type="line"/>
		</contour>
		<contour>
			<point x="119" y="718" type="line"/>
			<point x="119" y="0" type="line"/>
			<point x="222" y="0" type="line"/>
			<point x="222" y="718" type="line"/>
		</contour>
		<contour>
			<point x="399" y="359" type="line"/>
			<point x="502" y="359" type="line"/>
			<point x="502" y="718" type="line"/>
			<point x="399" y="718" type="line"/>
		</contour>
		<contour>
			<point x="399" y="359" type="line"/>
			<point x="399" y="0" type="line"/>
			<point x="502" y="0" type="line"/>
			<point x="502" y="359" type="line"/>
		</contour>
	</outline>
</glyph>
<glyph name="dollar" format="2">
	<advance width="505"/>
	<unicode hex="0024"/>
	<anchor x="253" y="0" name="bottom"/>
	<anchor x="253" y="718" name="top"/>
	<outline>
		<contour>
			<point x="454" y="483" type="line"/>
			<point x="454" y="648" type="line"/>
			<point x="55" y="648" type="line"/>
			<point x="55" y="311" type="line"/>
			<point x="285" y="311" type="line" smooth="yes"/>
			<point x="328" y="311"/>
			<point x="351" y="287"/>
			<point x="351" y="245" type="curve" smooth="yes"/>
			<point x="351" y="197" type="line" smooth="yes"/>
			<point x="351" y="177"/>
			<point x="339" y="165"/>
			<point x="319" y="165" type="curve" smooth="yes"/>
			<point x="186" y="165" type="line" smooth="yes"/>
			<point x="166" y="165"/>
			<point x="154" y="177"/>
			<point x="154" y="197" type="curve" smooth="yes"/>
			<point x="154" y="238" type="line"/>
			<point x="51" y="238" type="line"/>
			<point x="51" y="70" type="line"/>
			<point x="454" y="70" type="line"/>
			<point x="454" y="406" type="line"/>
			<point x="224" y="406" type="line" smooth="yes"/>
			<point x="181" y="406"/>
			<point x="158" y="429"/>
			<point x="158" y="472" type="curve" smooth="yes"/>
			<point x="158" y="521" type="line" smooth="yes"/>
			<point x="158" y="541"/>
			<point x="170" y="553"/>
			<point x="190" y="553" type="curve" smooth="yes"/>
			<point x="319" y="553" type="line" smooth="yes"/>
			<point x="339" y="553"/>
			<point x="351" y="541"/>
			<point x="351" y="521" type="curve" smooth="yes"/>
			<point x="351" y="483" type="line"/>
		</contour>
		<contour>
			<point x="208" y="718" type="line"/>
			<point x="208" y="594" type="line"/>
			<point x="311" y="594" type="line"/>
			<point x="311" y="718" type="line"/>
		</contour>
		<contour>
			<point x="208" y="94" type="line"/>
			<point x="208" y="0" type="line"/>
			<point x="311" y="0" type="line"/>
			<point x="311" y="94" type="line"/>
		</contour>
	</outline>
</glyph>
<glyph name="percent" format="2">
	<advance width="892"/>
	<unicode hex="0025"/>
	<outline>
		<contour>
			<point x="365" y="718" type="line"/>
			<point x="51" y="718" type="line"/>
			<point x="51" y="390" type="line"/>
			<point x="365" y="390" type="line"/>
		</contour>
		<contour>
			<point x="266" y="514" type="line" smooth="yes"/>
			<point x="266" y="492"/>
			<point x="253" y="479"/>
			<point x="232" y="479" type="curve" smooth="yes"/>
			<point x="184" y="479" type="line" smooth="yes"/>
			<point x="163" y="479"/>
			<point x="150" y="492"/>
			<point x="150" y="514" type="curve" smooth="yes"/>
			<point x="150" y="594" type="line" smooth="yes"/>
			<point x="150" y="616"/>
			<point x="163" y="629"/>
			<point x="184" y="629" type="curve" smooth="yes"/>
			<point x="232" y="629" type="line" smooth="yes"/>
			<point x="253" y="629"/>
			<point x="266" y="616"/>
			<point x="266" y="594" type="curve" smooth="yes"/>
		</contour>
		<contour>
			<point x="841" y="328" type="line"/>
			<point x="527" y="328" type="line"/>
			<point x="527" y="0" type="line"/>
			<point x="841" y="0" type="line"/>
		</contour>
		<contour>
			<point x="742" y="124" type="line" smooth="yes"/>
			<point x="742" y="102"/>
			<point x="729" y="89"/>
			<point x="708" y="89" type="curve" smooth="yes"/>
			<point x="660" y="89" type="line" smooth="yes"/>
			<point x="639" y="89"/>
			<point x="626" y="102"/>
			<point x="626" y="124" type="curve" smooth="yes"/>
			<point x="626" y="204" type="line" smooth="yes"/>
			<point x="626" y="226"/>
			<point x="639" y="239"/>
			<point x="660" y="239" type="curve" smooth="yes"/>
			<point x="708" y="239" type="line" smooth="yes"/>
			<point x="729" y="239"/>
			<point x="742" y="226"/>
			<point x="742" y="204" type="curve" smooth="yes"/>
		</contour>
		<component base="slash" xOffset="175"/>
	</outline>
</glyph>
<glyph name="ampersand" format="2">
	<advance width="600"/>
	<unicode hex="0026"/>
	<outline>
		<contour>
			<point x="369" y="533" type="line"/>
			<point x="369" y="718" type="line"/>
			<point x="51" y="718" type="line"/>
			<point x="51" y="0" type="line"/>
			<point x="474" y="0" type="line"/>
			<point x="474" y="445" type="line"/>
			<point x="371" y="445" type="line"/>
			<point x="371" y="127" type="line" smooth="yes"/>
			<point x="371" y="107"/>
			<point x="359" y="95"/>
			<point x="339" y="95" type="curve" smooth="yes"/>
			<point x="186" y="95" type="line" smooth="yes"/>
			<point x="166" y="95"/>
			<point x="154" y="107"/>
			<point x="154" y="127" type="curve" smooth="yes"/>
			<point x="154" y="245" type="line" smooth="yes"/>
			<point x="154" y="268"/>
			<point x="167" y="281"/>
			<point x="190" y="281" type="curve" smooth="yes"/>
			<point x="566" y="281" type="line"/>
			<point x="566" y="376" type="line"/>
			<point x="190" y="376" type="line" smooth="yes"/>
			<point x="167" y="376"/>
			<point x="154" y="389"/>
			<point x="154" y="412" type="curve" smooth="yes"/>
			<point x="154" y="591" type="line" smooth="yes"/>
			<point x="154" y="611"/>
			<point x="166" y="623"/>
			<point x="186" y="623" type="curve" smooth="yes"/>
			<point x="234" y="623" type="line" smooth="yes"/>
			<point x="254" y="623"/>
			<point x="266" y="615"/>
			<point x="266" y="591" type="curve" smooth="yes"/>
			<point x="266" y="533" type="line"/>
		</contour>
	</outline>
</glyph>
<glyph name="parenright" format="2">
	<advance width="344"/>
	<unicode hex="0029"/>
	<outline>
		<contour>
			<point x="142" y="0" type="line"/>
			<point x="293" y="116" type="line"/>
			<point x="293" y="361" type="line"/>
			<point x="190" y="361" type="line"/>
			<point x="190" y="205" type="line" smooth="yes"/>
			<point x="190" y="175"/>
			<point x="180" y="155"/>
			<point x="155" y="136" type="curve" smooth="yes"/>
			<point x="101" y="95" type="line"/>
			<point x="40" y="95" type="line"/>
			<point x="40" y="0" type="line"/>
		</contour>
		<contour>
			<point x="142" y="718" type="line"/>
			<point x="40" y="718" type="line"/>
			<point x="40" y="623" type="line"/>
			<point x="101" y="623" type="line"/>
			<point x="155" y="582" type="line" smooth="yes"/>
			<point x="180" y="563"/>
			<point x="190" y="543"/>
			<point x="190" y="513" type="curve" smooth="yes"/>
			<point x="190" y="357" type="line"/>
			<point x="293" y="357" type="line"/>
			<point x="293" y="602" type="line"/>
		</contour>
	</outline>
</glyph>
<glyph name="asterisk" format="2">
	<advance width="499"/>
	<unicode hex="002A"/>
	<outline>
		<contour>
			<point x="401" y="668" type="line"/>
			<point x="250" y="535" type="line"/>
			<point x="101" y="668" type="line"/>
			<point x="51" y="605" type="line"/>
			<point x="214" y="470" type="line"/>
			<point x="214" y="316" type="line"/>
			<point x="289" y="316" type="line"/>
			<point x="289" y="470" type="line"/>
			<point x="448" y="605" type="line"/>
		</contour>
		<contour>
			<point x="401" y="366" type="line"/>
			<point x="448" y="429" type="line"/>
			<point x="289" y="564" type="line"/>
			<point x="289" y="718" type="line"/>
			<point x="214" y="718" type="line"/>
			<point x="214" y="564" type="line"/>
			<point x="51" y="429" type="line"/>
			<point x="101" y="366" type="line"/>
			<point x="250" y="499" type="line"/>
		</contour>
	</outline>
</glyph>
<glyph name="comma" format="2">
	<advance width="195"/>
	<unicode hex="002C"/>
	<outline>
		<contour>
			<point x="50" y="95" type="line"/>
			<point x="50" y="-95" type="line"/>
			<point x="145" y="-95" type="line"/>
			<point x="145" y="95" type="line"/>
		</contour>
	</outline>
</glyph>
<glyph name="hyphen" format="2">
	<advance width="336"/>
	<unicode hex="002D"/>
	<outline>
		<contour>
			<point x="50" y="406" type="line"/>
			<point x="50" y="311" type="line"/>
			<point x="286" y="311" type="line"/>
			<point x="286" y="406" type="line"/>
		</contour>
	</outline>
</glyph>
<glyph name="period" format="2">
	<advance width="195"/>
	<unicode hex="002E"/>
	<outline>
		<contour>
			<point x="50" y="95" type="line"/>
			<point x="50" y="0" type="line"/>
			<point x="145" y="0" type="line"/>
			<point x="145" y="95" type="line"/>
		</contour>
	</outline>
</glyph>
<glyph name="slash" format="2">
	<advance width="503"/>
	<unicode hex="002F"/>
	<outline>
		<contour>
			<point x="377" y="718" type="line"/>
			<point x="10" y="0" type="line"/>
			<point x="124" y="0" type="line"/>
			<point x="493" y="718" type="line"/>
		</contour>
	</outline>
</glyph>
<glyph name="zero" format="2">
	<advance width="495"/>
	<unicode hex="0030"/>
	<outline>
		<contour>
			<point x="444" y="718" type="line"/>
			<point x="51" y="718" type="line"/>
			<point x="51" y="0" type="line"/>
			<point x="444" y="0" type="line"/>
		</contour>
		<contour>
			<point x="341" y="127" type="line" smooth="yes"/>
			<point x="341" y="107"/>
			<point x="329" y="95"/>
			<point x="309" y="95" type="curve" smooth="yes"/>
			<point x="186" y="95" type="line" smooth="yes"/>
			<point x="166" y="95"/>
			<point x="154" y="107"/>
			<point x="154" y="127" type="curve" smooth="yes"/>
			<point x="154" y="591" type="line" smooth="yes"/>
			<point x="154" y="611"/>
			<point x="166" y="623"/>
			<point x="186" y="623" type="curve" smooth="yes"/>
			<point x="309" y="623" type="line" smooth="yes"/>
			<point x="329" y="623"/>
			<point x="341" y="611"/>
			<point x="341" y="591" type="curve" smooth="yes"/>
		</contour>
		<contour>
			<point x="422" y="553" type="line"/>
			<point x="350" y="611" type="line"/>
			<point x="84" y="175" type="line"/>
			<point x="151" y="107" type="line"/>
		</contour>
	</outline>
</glyph>
<glyph name="one" format="2">
	<advance width="524"/>
	<unicode hex="0031"/>
	<outline>
		<contour>
			<point x="324" y="591" type="line"/>
			<point x="221" y="718" type="line"/>
			<point x="221" y="0" type="line"/>
			<point x="324" y="0" type="line"/>
		</contour>
		<contour>
			<point x="71" y="718" type="line"/>
			<point x="71" y="623" type="line"/>
			<point x="125" y="623" type="line"/>
			<point x="189" y="623" type="line" smooth="yes"/>
			<point x="209" y="623"/>
			<point x="221" y="611"/>
			<point x="221" y="591" type="curve"/>
			<point x="221" y="0" type="line"/>
			<point x="324" y="0" type="line"/>
			<point x="324" y="718" type="line"/>
		</contour>
		<contour>
			<point x="51" y="95" type="line"/>
			<point x="51" y="0" type="line"/>
			<point x="473" y="0" type="line"/>
			<point x="473" y="95" type="line"/>
		</contour>
	</outline>
</glyph>
<glyph name="two" format="2">
	<advance width="472"/>
	<unicode hex="0032"/>
	<outline>
		<contour>
			<point x="421" y="437" type="line"/>
			<point x="421" y="718" type="line"/>
			<point x="318" y="718" type="line"/>
			<point x="318" y="484" type="line"/>
			<point x="62" y="288" type="line"/>
			<point x="62" y="0" type="line"/>
			<point x="421" y="0" type="line"/>
			<point x="421" y="95" type="line"/>
			<point x="197" y="95" type="line" smooth="yes"/>
			<point x="177" y="95"/>
			<point x="165" y="106"/>
			<point x="165" y="127" type="curve" smooth="yes"/>
			<point x="165" y="242" type="line"/>
		</contour>
		<contour>
			<point x="51" y="718" type="line"/>
			<point x="51" y="623" type="line"/>
			<point x="417" y="623" type="line"/>
			<point x="417" y="718" type="line"/>
		</contour>
		<contour>
			<point x="186" y="623" type="curve"/>
			<point x="51" y="718" type="line"/>
			<point x="51" y="493" type="line"/>
			<point x="154" y="493" type="line"/>
			<point x="154" y="591" type="line" smooth="yes"/>
			<point x="154" y="615"/>
			<point x="166" y="623"/>
		</contour>
		<contour>
			<point x="286" y="95" type="curve"/>
			<point x="421" y="0" type="line"/>
			<point x="421" y="225" type="line"/>
			<point x="318" y="225" type="line"/>
			<point x="318" y="127" type="line" smooth="yes"/>
			<point x="318" y="103"/>
			<point x="306" y="95"/>
		</contour>
	</outline>
</glyph>
<glyph name="three" format="2">
	<advance width="465"/>
	<unicode hex="0033"/>
	<outline>
		<contour>
			<point x="51" y="493" type="line"/>
			<point x="154" y="493" type="line"/>
			<point x="154" y="591" type="line" smooth="yes"/>
			<point x="154" y="615"/>
			<point x="166" y="623"/>
			<point x="186" y="623" type="curve" smooth="yes"/>
			<point x="279" y="623" type="line" smooth="yes"/>
			<point x="299" y="623"/>
			<point x="311" y="611"/>
			<point x="311" y="591" type="curve" smooth="yes"/>
			<point x="311" y="442" type="line" smooth="yes"/>
			<point x="311" y="419"/>
			<point x="298" y="406"/>
			<point x="275" y="406" type="curve" smooth="yes"/>
			<point x="143" y="406" type="line"/>
			<point x="143" y="311" type="line"/>
			<point x="275" y="311" type="line" smooth="yes"/>
			<point x="298" y="311"/>
			<point x="311" y="298"/>
			<point x="311" y="275" type="curve" smooth="yes"/>
			<point x="311" y="127" type="line" smooth="yes"/>
			<point x="311" y="107"/>
			<point x="299" y="95"/>
			<point x="279" y="95" type="curve" smooth="yes"/>
			<point x="186" y="95" type="line" smooth="yes"/>
			<point x="166" y="95"/>
			<point x="154" y="107"/>
			<point x="154" y="127" type="curve" smooth="yes"/>
			<point x="154" y="225" type="line"/>
			<point x="51" y="225" type="line"/>
			<point x="51" y="0" type="line"/>
			<point x="414" y="0" type="line"/>
			<point x="414" y="718" type="line"/>
			<point x="51" y="718" type="line"/>
		</contour>
	</outline>
</glyph>
<glyph name="four" format="2">
	<advance width="471"/>
	<unicode hex="0034"/>
	<outline>
		<contour>
			<point x="317" y="0" type="line"/>
			<point x="420" y="0" type="line"/>
			<point x="420" y="165" type="line"/>
			<point x="317" y="165" type="line"/>
		</contour>
		<contour>
			<point x="51" y="545" type="line"/>
			<point x="154" y="545" type="line"/>
			<point x="154" y="718" type="line"/>
			<point x="51" y="718" type="line"/>
		</contour>
		<contour>
			<point x="51" y="545" type="line"/>
			<point x="51" y="268" type="line"/>
			<point x="251" y="268" type="line" smooth="yes"/>
			<point x="294" y="268"/>
			<point x="317" y="244"/>
			<point x="317" y="202" type="curve" smooth="yes"/>
			<point x="317" y="165" type="line"/>
			<point x="420" y="165" type="line"/>
			<point x="420" y="363" type="line"/>
			<point x="220" y="363" type="line" smooth="yes"/>
			<point x="177" y="363"/>
			<point x="154" y="386"/>
			<point x="154" y="429" type="curve" smooth="yes"/>
			<point x="154" y="545" type="line"/>
		</contour>
		<contour>
			<point x="317" y="245" type="line"/>
			<point x="420" y="245" type="line"/>
			<point x="420" y="718" type="line"/>
			<point x="317" y="718" type="line"/>
		</contour>
	</outline>
</glyph>
<glyph name="five" format="2">
	<advance width="452"/>
	<unicode hex="0035"/>
	<outline>
		<contour>
			<point x="51" y="506" type="line"/>
			<point x="154" y="506" type="line"/>
			<point x="154" y="568" type="line" smooth="yes"/>
			<point x="154" y="605"/>
			<point x="174" y="625"/>
			<point x="211" y="625" type="curve" smooth="yes"/>
			<point x="400" y="625" type="line"/>
			<point x="400" y="718" type="line"/>
			<point x="51" y="718" type="line"/>
		</contour>
		<contour>
			<point x="51" y="338" type="line"/>
			<point x="191" y="338" type="line"/>
			<point x="270" y="338" type="line"/>
			<point x="270" y="433" type="line"/>
			<point x="191" y="433" type="line" smooth="yes"/>
			<point x="161" y="433"/>
			<point x="154" y="450"/>
			<point x="154" y="480" type="curve" smooth="yes"/>
			<point x="154" y="506" type="line"/>
			<point x="51" y="506" type="line"/>
		</contour>
		<contour>
			<point x="154" y="169" type="line"/>
			<point x="51" y="169" type="line"/>
			<point x="51" y="0" type="line"/>
			<point x="401" y="0" type="line"/>
			<point x="401" y="93" type="line"/>
			<point x="211" y="93" type="line" smooth="yes"/>
			<point x="174" y="93"/>
			<point x="154" y="113"/>
			<point x="154" y="150" type="curve" smooth="yes"/>
		</contour>
		<contour>
			<point x="401" y="69" type="line"/>
			<point x="401" y="433" type="line"/>
			<point x="261" y="433" type="line"/>
			<point x="241" y="433" type="line"/>
			<point x="241" y="338" type="line"/>
			<point x="261" y="338" type="line" smooth="yes"/>
			<point x="291" y="338"/>
			<point x="298" y="321"/>
			<point x="298" y="291" type="curve" smooth="yes"/>
			<point x="298" y="69" type="line"/>
		</contour>
	</outline>
</glyph>
<glyph name="six" format="2">
	<advance width="452"/>
	<unicode hex="0036"/>
	<outline>
		<contour>
			<point x="51" y="518" type="line"/>
			<point x="154" y="518" type="line"/>
			<point x="154" y="568" type="line" smooth="yes"/>
			<point x="154" y="605"/>
			<point x="174" y="625"/>
			<point x="211" y="625" type="curve" smooth="yes"/>
			<point x="400" y="625" type="line"/>
			<point x="400" y="718" type="line"/>
			<point x="51" y="718" type="line"/>
		</contour>
		<contour>
			<point x="51" y="179" type="line"/>
			<point x="154" y="179" type="line"/>
			<point x="154" y="303" type="line" smooth="yes"/>
			<point x="154" y="333"/>
			<point x="161" y="350"/>
			<point x="191" y="350" type="curve" smooth="yes"/>
			<point x="270" y="350" type="line"/>
			<point x="270" y="445" type="line"/>
			<point x="191" y="445" type="line" smooth="yes"/>
			<point x="161" y="445"/>
			<point x="154" y="462"/>
			<point x="154" y="492" type="curve" smooth="yes"/>
			<point x="154" y="518" type="line"/>
			<point x="51" y="518" type="line"/>
		</contour>
		<contour>
			<point x="154" y="179" type="line"/>
			<point x="51" y="179" type="line"/>
			<point x="51" y="0" type="line"/>
			<point x="401" y="0" type="line"/>
			<point x="401" y="93" type="line"/>
			<point x="211" y="93" type="line" smooth="yes"/>
			<point x="174" y="93"/>
			<point x="154" y="113"/>
			<point x="154" y="150" type="curve" smooth="yes"/>
		</contour>
		<contour>
			<point x="401" y="69" type="line"/>
			<point x="401" y="445" type="line"/>
			<point x="261" y="445" type="line"/>
			<point x="241" y="445" type="line"/>
			<point x="241" y="350" type="line"/>
			<point x="261" y="350" type="line" smooth="yes"/>
			<point x="291" y="350"/>
			<point x="298" y="333"/>
			<point x="298" y="303" type="curve" smooth="yes"/>
			<point x="298" y="69" type="line"/>
		</contour>
	</outline>
</glyph>
<glyph name="seven" format="2">
	<advance width="482"/>
	<unicode hex="0037"/>
	<outline>
		<contour>
			<point x="431" y="417" type="line"/>
			<point x="431" y="718" type="line"/>
			<point x="328" y="718" type="line"/>
			<point x="328" y="464" type="line"/>
			<point x="176" y="347" type="line"/>
			<point x="176" y="127" type="line" smooth="yes"/>
			<point x="176" y="107"/>
			<point x="164" y="95"/>
			<point x="144" y="95" type="curve" smooth="yes"/>
			<point x="91" y="95" type="line"/>
			<point x="91" y="0" type="line"/>
			<point x="374" y="0" type="line"/>
			<point x="374" y="95" type="line"/>
			<point x="311" y="95" type="line" smooth="yes"/>
			<point x="291" y="95"/>
			<point x="279" y="107"/>
			<point x="279" y="127" type="curve" smooth="yes"/>
			<point x="279" y="301" type="line"/>
		</contour>
		<contour>
			<point x="51" y="718" type="line"/>
			<point x="51" y="623" type="line"/>
			<point x="427" y="623" type="line"/>
			<point x="427" y="718" type="line"/>
		</contour>
	</outline>
</glyph>
<glyph name="nine" format="2">
	<advance width="452"/>
	<unicode hex="0039"/>
	<outline>
		<contour>
			<point x="401" y="200" type="line"/>
			<point x="298" y="200" type="line"/>
			<point x="298" y="150" type="line" smooth="yes"/>
			<point x="298" y="113"/>
			<point x="278" y="93"/>
			<point x="241" y="93" type="curve" smooth="yes"/>
			<point x="52" y="93" type="line"/>
			<point x="52" y="0" type="line"/>
			<point x="401" y="0" type="line"/>
		</contour>
		<contour>
			<point x="401" y="539" type="line"/>
			<point x="298" y="539" type="line"/>
			<point x="298" y="415" type="line" smooth="yes"/>
			<point x="298" y="385"/>
			<point x="291" y="368"/>
			<point x="261" y="368" type="curve" smooth="yes"/>
			<point x="182" y="368" type="line"/>
			<point x="182" y="273" type="line"/>
			<point x="261" y="273" type="line" smooth="yes"/>
			<point x="291" y="273"/>
			<point x="298" y="256"/>
			<point x="298" y="226" type="curve" smooth="yes"/>
			<point x="298" y="200" type="line"/>
			<point x="401" y="200" type="line"/>
		</contour>
		<contour>
			<point x="298" y="539" type="line"/>
			<point x="401" y="539" type="line"/>
			<point x="401" y="718" type="line"/>
			<point x="51" y="718" type="line"/>
			<point x="51" y="625" type="line"/>
			<point x="241" y="625" type="line" smooth="yes"/>
			<point x="278" y="625"/>
			<point x="298" y="605"/>
			<point x="298" y="568" type="curve" smooth="yes"/>
		</contour>
		<contour>
			<point x="51" y="649" type="line"/>
			<point x="51" y="273" type="line"/>
			<point x="191" y="273" type="line"/>
			<point x="211" y="273" type="line"/>
			<point x="211" y="368" type="line"/>
			<point x="191" y="368" type="line" smooth="yes"/>
			<point x="161" y="368"/>
			<point x="154" y="385"/>
			<point x="154" y="415" type="curve" smooth="yes"/>
			<point x="154" y="649" type="line"/>
		</contour>
	</outline>
</glyph>
<glyph name="less" format="2">
	<advance width="482"/>
	<unicode hex="003C"/>
	<outline>
		<contour>
			<point x="432" y="221" type="line"/>
			<point x="215" y="359" type="line"/>
			<point x="432" y="494" type="line"/>
			<point x="383" y="580" type="line"/>
			<point x="51" y="360" type="line"/>
			<point x="383" y="135" type="line"/>
		</contour>
	</outline>
</glyph>
<glyph name="equal" format="2">
	<advance width="542"/>
	<unicode hex="003D"/>
	<outline>
		<contour>
			<point x="50" y="506" type="line"/>
			<point x="50" y="411" type="line"/>
			<point x="492" y="411" type="line"/>
			<point x="492" y="506" type="line"/>
		</contour>
		<contour>
			<point x="50" y="306" type="line"/>
			<point x="50" y="211" type="line"/>
			<point x="492" y="211" type="line"/>
			<point x="492" y="306" type="line"/>
		</contour>
	</outline>
</glyph>
<glyph name="greater" format="2">
	<advance width="483"/>
	<unicode hex="003E"/>
	<outline>
		<contour>
			<point x="51" y="221" type="line"/>
			<point x="100" y="135" type="line"/>
			<point x="432" y="360" type="line"/>
			<point x="100" y="580" type="line"/>
			<point x="51" y="494" type="line"/>
			<point x="268" y="359" type="line"/>
		</contour>
	</outline>
</glyph>
<glyph name="question" format="2">
	<advance width="529"/>
	<unicode hex="003F"/>
	<outline>
		<contour>
			<point x="484" y="545" type="line"/>
			<point x="484" y="718" type="line"/>
			<point x="45" y="718" type="line"/>
			<point x="45" y="513" type="line"/>
			<point x="148" y="513" type="line"/>
			<point x="148" y="591" type="line" smooth="yes"/>
			<point x="148" y="611"/>
			<point x="160" y="623"/>
			<point x="180" y="623" type="curve" smooth="yes"/>
			<point x="349" y="623" type="line" smooth="yes"/>
			<point x="369" y="623"/>
			<point x="381" y="611"/>
			<point x="381" y="591" type="curve" smooth="yes"/>
			<point x="381" y="545" type="line"/>
		</contour>
		<contour>
			<point x="484" y="545" type="line"/>
			<point x="381" y="545" type="line"/>
			<point x="381" y="469" type="line" smooth="yes"/>
			<point x="381" y="426"/>
			<point x="358" y="403"/>
			<point x="315" y="403" type="curve" smooth="yes"/>
			<point x="175" y="403" type="line"/>
			<point x="175" y="205" type="line"/>
			<point x="278" y="205" type="line"/>
			<point x="278" y="242" type="line" smooth="yes"/>
			<point x="278" y="284"/>
			<point x="301" y="308"/>
			<point x="344" y="308" type="curve" smooth="yes"/>
			<point x="484" y="308" type="line"/>
		</contour>
		<contour>
			<point x="179" y="95" type="line"/>
			<point x="179" y="0" type="line"/>
			<point x="274" y="0" type="line"/>
			<point x="274" y="95" type="line"/>
		</contour>
	</outline>
</glyph>
<glyph name="at" format="2">
	<advance width="719"/>
	<unicode hex="0040"/>
	<anchor x="400" y="139" name="bottom"/>
	<anchor x="670" y="139" name="ogonek"/>
	<anchor x="472" y="626" name="top"/>
	<outline>
		<contour>
			<point x="668" y="0" type="line"/>
			<point x="668" y="95" type="line"/>
			<point x="186" y="95" type="line"/>
			<point x="166" y="95"/>
			<point x="154" y="107"/>
			<point x="154" y="127" type="curve" smooth="yes"/>
			<point x="154" y="591" type="line" smooth="yes"/>
			<point x="154" y="611"/>
			<point x="167" y="623"/>
			<point x="187" y="623" type="curve"/>
			<point x="51" y="718" type="line"/>
			<point x="51" y="0" type="line"/>
		</contour>
		<contour>
			<point x="51" y="718" type="line"/>
			<point x="187" y="623" type="line"/>
			<point x="536" y="623" type="line" smooth="yes"/>
			<point x="556" y="623"/>
			<point x="568" y="611"/>
			<point x="568" y="591" type="curve" smooth="yes"/>
			<point x="568" y="515" type="line"/>
			<point x="261" y="515" type="line"/>
			<point x="261" y="192" type="line"/>
			<point x="474" y="192" type="line"/>
			<point x="568" y="251" type="line"/>
			<point x="568" y="192" type="line"/>
			<point x="668" y="192" type="line"/>
			<point x="668" y="718" type="line"/>
		</contour>
		<contour>
			<point x="441" y="284" type="line"/>
			<point x="398" y="284" type="line" smooth="yes"/>
			<point x="368" y="284"/>
			<point x="361" y="301"/>
			<point x="361" y="331" type="curve" smooth="yes"/>
			<point x="361" y="376" type="line" smooth="yes"/>
			<point x="361" y="406"/>
			<point x="368" y="425"/>
			<point x="398" y="425" type="curve" smooth="yes"/>
			<point x="568" y="425" type="line"/>
			<point x="568" y="366" type="line"/>
		</contour>
	</outline>
</glyph>
<glyph name="A" format="2">
	<advance width="504"/>
	<unicode hex="0041"/>
	<anchor x="252" y="0" name="bottom"/>
	<anchor x="454" y="0" name="ogonek"/>
	<anchor x="252" y="718" name="top"/>
	<outline>
		<contour>
			<point x="453" y="718" type="line"/>
			<point x="51" y="718" type="line"/>
			<point x="51" y="0" type="line"/>
			<point x="154" y="0" type="line"/>
			<point x="154" y="184" type="line" smooth="yes"/>
			<point x="154" y="214"/>
			<point x="161" y="231"/>
			<point x="191" y="231" type="curve" smooth="yes"/>
			<point x="313" y="231" type="line" smooth="yes"/>
			<point x="343" y="231"/>
			<point x="350" y="214"/>
			<point x="350" y="184" type="curve" smooth="yes"/>
			<point x="350" y="0" type="line"/>
			<point x="453" y="0" type="line"/>
		</contour>
		<contour>
			<point x="350" y="373" type="line" smooth="yes"/>
			<point x="350" y="343"/>
			<point x="343" y="326"/>
			<point x="313" y="326" type="curve" smooth="yes"/>
			<point x="191" y="326" type="line" smooth="yes"/>
			<point x="161" y="326"/>
			<point x="154" y="343"/>
			<point x="154" y="373" type="curve" smooth="yes"/>
			<point x="154" y="568" type="line" smooth="yes"/>
			<point x="154" y="605"/>
			<point x="174" y="625"/>
			<point x="211" y="625" type="curve" smooth="yes"/>
			<point x="293" y="625" type="line" smooth="yes"/>
			<point x="330" y="625"/>
			<point x="350" y="605"/>
			<point x="350" y="568" type="curve" smooth="yes"/>
		</contour>
	</outline>
</glyph>
<glyph name="B" format="2">
	<advance width="515"/>
	<unicode hex="0042"/>
	<anchor x="258" y="0" name="bottom"/>
	<anchor x="258" y="718" name="top"/>
	<outline>
		<contour>
			<point x="340" y="362" type="line"/>
			<point x="463" y="452" type="line"/>
			<point x="463" y="718" type="line"/>
			<point x="51" y="718" type="line"/>
			<point x="51" y="0" type="line"/>
			<point x="464" y="0" type="line"/>
			<point x="464" y="282" type="line"/>
		</contour>
		<contour>
			<point x="154" y="568" type="line" smooth="yes"/>
			<point x="154" y="605"/>
			<point x="174" y="625"/>
			<point x="211" y="625" type="curve" smooth="yes"/>
			<point x="360" y="625" type="line"/>
			<point x="360" y="498" type="line"/>
			<point x="237" y="408" type="line"/>
			<point x="191" y="408" type="line" smooth="yes"/>
			<point x="161" y="408"/>
			<point x="154" y="425"/>
			<point x="154" y="455" type="curve" smooth="yes"/>
		</contour>
		<contour>
			<point x="211" y="93" type="line" smooth="yes"/>
			<point x="174" y="93"/>
			<point x="154" y="113"/>
			<point x="154" y="150" type="curve" smooth="yes"/>
			<point x="154" y="266" type="line" smooth="yes"/>
			<point x="154" y="296"/>
			<point x="161" y="313"/>
			<point x="191" y="313" type="curve" smooth="yes"/>
			<point x="234" y="313" type="line"/>
			<point x="361" y="231" type="line"/>
			<point x="361" y="93" type="line"/>
		</contour>
	</outline>
</glyph>
<glyph name="C" format="2">
	<advance width="495"/>
	<unicode hex="0043"/>
	<anchor x="253" y="0" name="bottom"/>
	<anchor x="253" y="718" name="top"/>
	<outline>
		<contour>
			<point x="51" y="718" type="line"/>
			<point x="51" y="0" type="line"/>
			<point x="444" y="0" type="line"/>
			<point x="444" y="255" type="line"/>
			<point x="341" y="255" type="line"/>
			<point x="341" y="127" type="line" smooth="yes"/>
			<point x="341" y="107"/>
			<point x="329" y="95"/>
			<point x="309" y="95" type="curve" smooth="yes"/>
			<point x="186" y="95" type="line" smooth="yes"/>
			<point x="166" y="95"/>
			<point x="154" y="107"/>
			<point x="154" y="127" type="curve" smooth="yes"/>
			<point x="154" y="591" type="line" smooth="yes"/>
			<point x="154" y="611"/>
			<point x="166" y="623"/>
			<point x="186" y="623" type="curve" smooth="yes"/>
			<point x="309" y="623" type="line" smooth="yes"/>
			<point x="329" y="623"/>
			<point x="341" y="611"/>
			<point x="341" y="591" type="curve" smooth="yes"/>
			<point x="341" y="463" type="line"/>
			<point x="444" y="463" type="line"/>
			<point x="444" y="718" type="line"/>
		</contour>
	</outline>
</glyph>
<glyph name="D" format="2">
	<advance width="525"/>
	<unicode hex="0044"/>
	<anchor x="263" y="0" name="bottom"/>
	<anchor x="263" y="359" name="center"/>
	<anchor x="263" y="718" name="top"/>
	<outline>
		<contour>
			<point x="323" y="718" type="line"/>
			<point x="51" y="718" type="line"/>
			<point x="51" y="0" type="line"/>
			<point x="323" y="0" type="line"/>
			<point x="474" y="116" type="line"/>
			<point x="474" y="602" type="line"/>
		</contour>
		<contour>
			<point x="371" y="556" type="line"/>
			<point x="371" y="162" type="line"/>
			<point x="282" y="95" type="line"/>
			<point x="191" y="95" type="line" smooth="yes"/>
			<point x="161" y="95"/>
			<point x="154" y="112"/>
			<point x="154" y="142" type="curve" smooth="yes"/>
			<point x="154" y="576" type="line" smooth="yes"/>
			<point x="154" y="606"/>
			<point x="161" y="623"/>
			<point x="191" y="623" type="curve" smooth="yes"/>
			<point x="282" y="623" type="line"/>
		</contour>
	</outline>
</glyph>
<glyph name="E" format="2">
	<advance width="505"/>
	<unicode hex="0045"/>
	<anchor x="253" y="0" name="bottom"/>
	<anchor x="454" y="0" name="ogonek"/>
	<anchor x="253" y="718" name="top"/>
	<anchor x="20" y="718" name="topleft"/>
	<outline>
		<contour>
			<point x="454" y="513" type="line"/>
			<point x="454" y="718" type="line"/>
			<point x="51" y="718" type="line"/>
			<point x="51" y="0" type="line"/>
			<point x="454" y="0" type="line"/>
			<point x="454" y="205" type="line"/>
			<point x="351" y="205" type="line"/>
			<point x="351" y="127" type="line" smooth="yes"/>
			<point x="351" y="107"/>
			<point x="339" y="95"/>
			<point x="319" y="95" type="curve" smooth="yes"/>
			<point x="186" y="95" type="line" smooth="yes"/>
			<point x="166" y="95"/>
			<point x="154" y="107"/>
			<point x="154" y="127" type="curve" smooth="yes"/>
			<point x="154" y="275" type="line" smooth="yes"/>
			<point x="154" y="298"/>
			<point x="167" y="311"/>
			<point x="190" y="311" type="curve" smooth="yes"/>
			<point x="346" y="311" type="line"/>
			<point x="346" y="406" type="line"/>
			<point x="190" y="406" type="line" smooth="yes"/>
			<point x="167" y="406"/>
			<point x="154" y="419"/>
			<point x="154" y="442" type="curve" smooth="yes"/>
			<point x="154" y="591" type="line" smooth="yes"/>
			<point x="154" y="611"/>
			<point x="166" y="623"/>
			<point x="186" y="623" type="curve" smooth="yes"/>
			<point x="319" y="623" type="line" smooth="yes"/>
			<point x="339" y="623"/>
			<point x="351" y="615"/>
			<point x="351" y="591" type="curve" smooth="yes"/>
			<point x="351" y="513" type="line"/>
		</contour>
	</outline>
</glyph>
<glyph name="H" format="2">
	<advance width="526"/>
	<unicode hex="0048"/>
	<anchor x="263" y="0" name="bottom"/>
	<anchor x="263" y="359" name="center"/>
	<anchor x="263" y="718" name="top"/>
	<anchor x="20" y="718" name="topleft"/>
	<outline>
		<contour>
			<point x="475" y="718" type="line"/>
			<point x="289" y="718" type="line"/>
			<point x="289" y="625" type="line"/>
			<point x="315" y="625" type="line" smooth="yes"/>
			<point x="347" y="625"/>
			<point x="367" y="610"/>
			<point x="371" y="582" type="curve"/>
			<point x="371" y="455" type="line" smooth="yes"/>
			<point x="371" y="425"/>
			<point x="364" y="408"/>
			<point x="334" y="408" type="curve" smooth="yes"/>
			<point x="191" y="408" type="line" smooth="yes"/>
			<point x="161" y="408"/>
			<point x="154" y="425"/>
			<point x="154" y="455" type="curve" smooth="yes"/>
			<point x="154" y="718" type="line"/>
			<point x="51" y="718" type="line"/>
			<point x="51" y="0" type="line"/>
			<point x="237" y="0" type="line"/>
			<point x="237" y="93" type="line"/>
			<point x="211" y="93" type="line" smooth="yes"/>
			<point x="174" y="93"/>
			<point x="154" y="113"/>
			<point x="154" y="150" type="curve" smooth="yes"/>
			<point x="154" y="266" type="line" smooth="yes"/>
			<point x="154" y="296"/>
			<point x="161" y="313"/>
			<point x="191" y="313" type="curve" smooth="yes"/>
			<point x="334" y="313" type="line" smooth="yes"/>
			<point x="364" y="313"/>
			<point x="371" y="296"/>
			<point x="371" y="266" type="curve" smooth="yes"/>
			<point x="371" y="0" type="line"/>
			<point x="474" y="0" type="line"/>
			<point x="474" y="717" type="line"/>
		</contour>
	</outline>
</glyph>
<glyph name="I" format="2">
	<advance width="335"/>
	<unicode hex="0049"/>
	<anchor x="168" y="0" name="bottom"/>
	<anchor x="253" y="0" name="ogonek"/>
	<anchor x="168" y="718" name="top"/>
	<anchor x="30" y="718" name="topleft"/>
	<outline>
		<contour>
			<point x="219" y="591" type="line" smooth="yes"/>
			<point x="219" y="611"/>
			<point x="231" y="623"/>
			<point x="251" y="623" type="curve" smooth="yes"/>
			<point x="284" y="623" type="line"/>
			<point x="284" y="718" type="line"/>
			<point x="51" y="718" type="line"/>
			<point x="51" y="623" type="line"/>
			<point x="84" y="623" type="line" smooth="yes"/>
			<point x="104" y="623"/>
			<point x="116" y="611"/>
			<point x="116" y="591" type="curve" smooth="yes"/>
			<point x="116" y="127" type="line" smooth="yes"/>
			<point x="116" y="107"/>
			<point x="104" y="95"/>
			<point x="84" y="95" type="curve" smooth="yes"/>
			<point x="51" y="95" type="line"/>
			<point x="51" y="0" type="line"/>
			<point x="284" y="0" type="line"/>
			<point x="284" y="95" type="line"/>
			<point x="251" y="95" type="line" smooth="yes"/>
			<point x="231" y="95"/>
			<point x="219" y="107"/>
			<point x="219" y="127" type="curve" smooth="yes"/>
		</contour>
	</outline>
</glyph>
<glyph name="J" format="2">
	<advance width="485"/>
	<unicode hex="004A"/>
	<anchor x="233" y="0" name="bottom"/>
	<anchor x="243" y="718" name="top"/>
	<outline>
		<contour>
			<point x="434" y="718" type="line"/>
			<point x="51" y="718" type="line"/>
			<point x="51" y="623" type="line"/>
			<point x="299" y="623" type="line" smooth="yes"/>
			<point x="319" y="623"/>
			<point x="331" y="611"/>
			<point x="331" y="591" type="curve" smooth="yes"/>
			<point x="331" y="127" type="line" smooth="yes"/>
			<point x="331" y="107"/>
			<point x="319" y="95"/>
			<point x="299" y="95" type="curve" smooth="yes"/>
			<point x="186" y="95" type="line" smooth="yes"/>
			<point x="166" y="95"/>
			<point x="154" y="107"/>
			<point x="154" y="127" type="curve" smooth="yes"/>
			<point x="154" y="265" type="line"/>
			<point x="51" y="265" type="line"/>
			<point x="51" y="0" type="line"/>
			<point x="434" y="0" type="line"/>
		</contour>
	</outline>
</glyph>
<glyph name="L" format="2">
	<advance width="505"/>
	<unicode hex="004C"/>
	<anchor x="253" y="0" name="bottom"/>
	<anchor x="253" y="359" name="center"/>
	<anchor x="125" y="718" name="top"/>
	<anchor x="485" y="718" name="topright"/>
	<outline>
		<contour>
			<point x="351" y="405" type="line"/>
			<point x="351" y="127" type="line" smooth="yes"/>
			<point x="351" y="107"/>
			<point x="339" y="95"/>
			<point x="319" y="95" type="curve" smooth="yes"/>
			<point x="186" y="95" type="line" smooth="yes"/>
			<point x="166" y="95"/>
			<point x="154" y="107"/>
			<point x="154" y="127" type="curve" smooth="yes"/>
			<point x="154" y="591" type="line" smooth="yes"/>
			<point x="154" y="611"/>
			<point x="166" y="623"/>
			<point x="186" y="623" type="curve" smooth="yes"/>
			<point x="239" y="623" type="line"/>
			<point x="239" y="718" type="line"/>
			<point x="51" y="718" type="line"/>
			<point x="51" y="0" type="line"/>
			<point x="454" y="0" type="line"/>
			<point x="454" y="405" type="line"/>
		</contour>
	</outline>
</glyph>
<glyph name="M" format="2">
	<advance width="671"/>
	<unicode hex="004D"/>
	<anchor x="336" y="0" name="bottom"/>
	<anchor x="336" y="718" name="top"/>
	<outline>
		<contour>
			<point x="438" y="718" type="line"/>
			<point x="336" y="586" type="line"/>
			<point x="233" y="718" type="line"/>
			<point x="51" y="718" type="line"/>
			<point x="51" y="0" type="line"/>
			<point x="211" y="0" type="line"/>
			<point x="211" y="95" type="line"/>
			<point x="188" y="95" type="line" smooth="yes"/>
			<point x="168" y="95"/>
			<point x="156" y="107"/>
			<point x="156" y="127" type="curve" smooth="yes"/>
			<point x="156" y="605" type="line"/>
			<point x="195" y="605" type="line"/>
			<point x="281" y="494" type="line"/>
			<point x="286" y="488"/>
			<point x="288" y="481"/>
			<point x="288" y="473" type="curve" smooth="yes"/>
			<point x="288" y="210" type="line"/>
			<point x="383" y="210" type="line"/>
			<point x="383" y="473" type="line" smooth="yes"/>
			<point x="383" y="481"/>
			<point x="385" y="488"/>
			<point x="390" y="494" type="curve"/>
			<point x="476" y="605" type="line"/>
			<point x="515" y="605" type="line"/>
			<point x="515" y="127" type="line" smooth="yes"/>
			<point x="515" y="107"/>
			<point x="503" y="95"/>
			<point x="483" y="95" type="curve" smooth="yes"/>
			<point x="460" y="95" type="line"/>
			<point x="460" y="0" type="line"/>
			<point x="620" y="0" type="line"/>
			<point x="620" y="718" type="line"/>
		</contour>
	</outline>
</glyph>
<glyph name="N" format="2">
	<advance width="549"/>
	<unicode hex="004E"/>
	<anchor x="277" y="0" name="bottom"/>
	<anchor x="277" y="718" name="top"/>
	<outline>
		<contour>
			<point x="316" y="718" type="line"/>
			<point x="316" y="625" type="line"/>
			<point x="338" y="625" type="line" smooth="yes"/>
			<point x="375" y="625"/>
			<point x="395" y="605"/>
			<point x="395" y="568" type="curve" smooth="yes"/>
			<point x="395" y="224" type="line"/>
			<point x="154" y="718" type="line"/>
			<point x="51" y="718" type="line"/>
			<point x="51" y="0" type="line"/>
			<point x="233" y="0" type="line"/>
			<point x="233" y="93" type="line"/>
			<point x="211" y="93" type="line" smooth="yes"/>
			<point x="174" y="93"/>
			<point x="154" y="113"/>
			<point x="154" y="150" type="curve" smooth="yes"/>
			<point x="154" y="492" type="line"/>
			<point x="395" y="0" type="line"/>
			<point x="498" y="0" type="line"/>
			<point x="498" y="718" type="line"/>
		</contour>
	</outline>
</glyph>
<glyph name="P" format="2">
	<advance width="505"/>
	<unicode hex="0050"/>
	<anchor x="253" y="0" name="bottom"/>
	<anchor x="253" y="718" name="top"/>
	<outline>
		<contour>
			<point x="454" y="718" type="line"/>
			<point x="51" y="718" type="line"/>
			<point x="51" y="0" type="line"/>
			<point x="154" y="0" type="line"/>
			<point x="154" y="174" type="line" smooth="yes"/>
			<point x="154" y="204"/>
			<point x="161" y="221"/>
			<point x="191" y="221" type="curve" smooth="yes"/>
			<point x="454" y="221" type="line"/>
		</contour>
		<contour>
			<point x="191" y="316" type="line" smooth="yes"/>
			<point x="161" y="316"/>
			<point x="154" y="333"/>
			<point x="154" y="363" type="curve" smooth="yes"/>
			<point x="154" y="568" type="line" smooth="yes"/>
			<point x="154" y="605"/>
			<point x="174" y="625"/>
			<point x="211" y="625" type="curve" smooth="yes"/>
			<point x="351" y="625" type="line"/>
			<point x="351" y="316" type="line"/>
		</contour>
	</outline>
</glyph>
<glyph name="R" format="2">
	<advance width="505"/>
	<unicode hex="0052"/>
	<anchor x="253" y="0" name="bottom"/>
	<anchor x="253" y="718" name="top"/>
	<outline>
		<contour>
			<point x="454" y="718" type="line"/>
			<point x="51" y="718" type="line"/>
			<point x="51" y="0" type="line"/>
			<point x="237" y="0" type="line"/>
			<point x="237" y="93" type="line"/>
			<point x="211" y="93" type="line" smooth="yes"/>
			<point x="174" y="93"/>
			<point x="154" y="113"/>
			<point x="154" y="150" type="curve" smooth="yes"/>
			<point x="154" y="256" type="line" smooth="yes"/>
			<point x="154" y="286"/>
			<point x="161" y="303"/>
			<point x="191" y="303" type="curve" smooth="yes"/>
			<point x="214" y="303" type="line"/>
			<point x="341" y="221" type="line"/>
			<point x="341" y="0" type="line"/>
			<point x="454" y="0" type="line"/>
			<point x="454" y="267" type="line"/>
			<point x="320" y="352" type="line"/>
			<point x="454" y="447" type="line"/>
		</contour>
		<contour>
			<point x="217" y="398" type="line"/>
			<point x="191" y="398" type="line" smooth="yes"/>
			<point x="161" y="398"/>
			<point x="154" y="415"/>
			<point x="154" y="445" type="curve" smooth="yes"/>
			<point x="154" y="568" type="line" smooth="yes"/>
			<point x="154" y="605"/>
			<point x="174" y="625"/>
			<point x="211" y="625" type="curve" smooth="yes"/>
			<point x="341" y="625" type="line"/>
			<point x="341" y="488" type="line"/>
		</contour>
	</outline>
</glyph>
<glyph name="S" format="2">
	<advance width="505"/>
	<unicode hex="0053"/>
	<anchor x="253" y="0" name="bottom"/>
	<anchor x="253" y="718" name="top"/>
	<outline>
		<contour>
			<point x="454" y="513" type="line"/>
			<point x="454" y="718" type="line"/>
			<point x="55" y="718" type="line"/>
			<point x="55" y="308" type="line"/>
			<point x="285" y="308" type="line" smooth="yes"/>
			<point x="328" y="308"/>
			<point x="351" y="284"/>
			<point x="351" y="242" type="curve" smooth="yes"/>
			<point x="351" y="127" type="line" smooth="yes"/>
			<point x="351" y="107"/>
			<point x="339" y="95"/>
			<point x="319" y="95" type="curve" smooth="yes"/>
			<point x="186" y="95" type="line" smooth="yes"/>
			<point x="166" y="95"/>
			<point x="154" y="107"/>
			<point x="154" y="127" type="curve" smooth="yes"/>
			<point x="154" y="188" type="line"/>
			<point x="51" y="188" type="line"/>
			<point x="51" y="0" type="line"/>
			<point x="454" y="0" type="line"/>
			<point x="454" y="403" type="line"/>
			<point x="224" y="403" type="line" smooth="yes"/>
			<point x="181" y="403"/>
			<point x="158" y="426"/>
			<point x="158" y="469" type="curve" smooth="yes"/>
			<point x="158" y="591" type="line" smooth="yes"/>
			<point x="158" y="611"/>
			<point x="170" y="623"/>
			<point x="190" y="623" type="curve" smooth="yes"/>
			<point x="319" y="623" type="line" smooth="yes"/>
			<point x="339" y="623"/>
			<point x="351" y="611"/>
			<point x="351" y="591" type="curve" smooth="yes"/>
			<point x="351" y="513" type="line"/>
		</contour>
	</outline>
</glyph>
<glyph name="U" format="2">
	<advance width="505"/>
	<unicode hex="0055"/>
	<anchor x="253" y="0" name="bottom"/>
	<anchor x="340" y="0" name="ogonek"/>
	<anchor x="253" y="718" name="top"/>
	<anchor x="485" y="718" name="topright"/>
	<outline>
		<contour>
			<point x="154" y="718" type="line"/>
			<point x="51" y="718" type="line"/>
			<point x="51" y="0" type="line"/>
			<point x="454" y="0" type="line"/>
			<point x="454" y="718" type="line"/>
			<point x="351" y="718" type="line"/>
			<point x="351" y="127" type="line" smooth="yes"/>
			<point x="351" y="107"/>
			<point x="339" y="95"/>
			<point x="319" y="95" type="curve" smooth="yes"/>
			<point x="186" y="95" type="line" smooth="yes"/>
			<point x="166" y="95"/>
			<point x="154" y="107"/>
			<point x="154" y="127" type="curve" smooth="yes"/>
		</contour>
	</outline>
</glyph>
<glyph name="V" format="2">
	<advance width="504"/>
	<unicode hex="0056"/>
	<anchor x="252" y="0" name="bottom"/>
	<anchor x="252" y="718" name="top"/>
	<outline>
		<contour>
			<point x="200" y="0" type="line"/>
			<point x="304" y="0" type="line"/>
			<point x="453" y="240" type="line"/>
			<point x="453" y="718" type="line"/>
			<point x="350" y="718" type="line"/>
			<point x="350" y="264" type="line"/>
			<point x="252" y="105" type="line"/>
			<point x="154" y="264" type="line"/>
			<point x="154" y="718" type="line"/>
			<point x="51" y="718" type="line"/>
			<point x="51" y="240" type="line"/>
		</contour>
	</outline>
</glyph>
<glyph name="X" format="2">
	<advance width="504"/>
	<unicode hex="0058"/>
	<anchor x="252" y="0" name="bottom"/>
	<anchor x="252" y="718" name="top"/>
	<outline>
		<contour>
			<point x="453" y="718" type="line"/>
			<point x="350" y="718" type="line"/>
			<point x="350" y="594" type="line"/>
			<point x="252" y="449" type="line"/>
			<point x="154" y="594" type="line"/>
			<point x="154" y="718" type="line"/>
			<point x="51" y="718" type="line"/>
			<point x="51" y="570" type="line"/>
			<point x="194" y="360" type="line"/>
			<point x="51" y="149" type="line"/>
			<point x="51" y="0" type="line"/>
			<point x="154" y="0" type="line"/>
			<point x="154" y="125" type="line"/>
			<point x="252" y="270" type="line"/>
			<point x="350" y="125" type="line"/>
			<point x="350" y="0" type="line"/>
			<point x="453" y="0" type="line"/>
			<point x="453" y="149" type="line"/>
			<point x="310" y="360" type="line"/>
			<point x="453" y="570" type="line"/>
		</contour>
	</outline>
</glyph>
<glyph name="Y" format="2">
	<advance width="530"/>
	<unicode hex="0059"/>
	<anchor x="265" y="0" name="bottom"/>
	<anchor x="265" y="718" name="top"/>
	<anchor x="30" y="718" name="topleft"/>
	<outline>
		<contour>
			<point x="479" y="337" type="line"/>
			<point x="479" y="718" type="line"/>
			<point x="376" y="718" type="line"/>
			<point x="376" y="387" type="line"/>
			<point x="266" y="307" type="line"/>
			<point x="154" y="387" type="line"/>
			<point x="154" y="718" type="line"/>
			<point x="51" y="718" type="line"/>
			<point x="51" y="337" type="line"/>
			<point x="214" y="221" type="line"/>
			<point x="214" y="127" type="line" smooth="yes"/>
			<point x="214" y="107"/>
			<point x="202" y="95"/>
			<point x="182" y="95" type="curve" smooth="yes"/>
			<point x="149" y="95" type="line"/>
			<point x="149" y="0" type="line"/>
			<point x="382" y="0" type="line"/>
			<point x="382" y="95" type="line"/>
			<point x="349" y="95" type="line" smooth="yes"/>
			<point x="329" y="95"/>
			<point x="317" y="107"/>
			<point x="317" y="127" type="curve" smooth="yes"/>
			<point x="317" y="221" type="line"/>
		</contour>
	</outline>
</glyph>
<glyph name="Z" format="2">
	<advance width="505"/>
	<unicode hex="005A"/>
	<anchor x="253" y="0" name="bottom"/>
	<anchor x="253" y="718" name="top"/>
	<outline>
		<contour>
			<point x="351" y="188" type="line"/>
			<point x="351" y="127" type="line" smooth="yes"/>
			<point x="351" y="107"/>
			<point x="339" y="95"/>
			<point x="319" y="95" type="curve" smooth="yes"/>
			<point x="186" y="95" type="line" smooth="yes"/>
			<point x="166" y="95"/>
			<point x="154" y="107"/>
			<point x="154" y="127" type="curve" smooth="yes"/>
			<point x="154" y="242" type="line" smooth="yes"/>
			<point x="154" y="284"/>
			<point x="177" y="308"/>
			<point x="220" y="308" type="curve" smooth="yes"/>
			<point x="450" y="308" type="line"/>
			<point x="450" y="718" type="line"/>
			<point x="51" y="718" type="line"/>
			<point x="51" y="513" type="line"/>
			<point x="154" y="513" type="line"/>
			<point x="154" y="591" type="line" smooth="yes"/>
			<point x="154" y="611"/>
			<point x="166" y="623"/>
			<point x="186" y="623" type="curve" smooth="yes"/>
			<point x="315" y="623" type="line" smooth="yes"/>
			<point x="335" y="623"/>
			<point x="347" y="611"/>
			<point x="347" y="591" type="curve" smooth="yes"/>
			<point x="347" y="469" type="line" smooth="yes"/>
			<point x="347" y="426"/>
			<point x="324" y="403"/>
			<point x="281" y="403" type="curve" smooth="yes"/>
			<point x="51" y="403" type="line"/>
			<point x="51" y="0" type="line"/>
			<point x="454" y="0" type="line"/>
			<point x="454" y="188" type="line"/>
		</contour>
	</outline>
</glyph>
<glyph name="bracketright" format="2">
	<advance width="308"/>
	<unicode hex="005D"/>
	<anchor x="45" y="0" name="bottom"/>
	<anchor x="45" y="359" name="center"/>
	<anchor x="45" y="718" name="top"/>
	<anchor x="-198" y="718" name="topleft"/>
	<outline>
		<contour>
			<point x="153" y="718" type="line"/>
			<point x="153" y="200" type="line"/>
			<point x="256" y="200" type="line"/>
			<point x="256" y="718" type="line"/>
		</contour>
		<contour>
			<point x="154" y="568" type="curve"/>
			<point x="257" y="718" type="line"/>
			<point x="51" y="718" type="line"/>
			<point x="51" y="625" type="line"/>
			<point x="97" y="625" type="line" smooth="yes"/>
			<point x="134" y="625"/>
			<point x="154" y="605"/>
		</contour>
		<contour>
			<point x="153" y="0" type="line"/>
			<point x="256" y="0" type="line"/>
			<point x="256" y="518" type="line"/>
			<point x="153" y="518" type="line"/>
		</contour>
		<contour>
			<point x="154" y="150" type="line"/>
			<point x="154" y="113"/>
			<point x="134" y="93"/>
			<point x="97" y="93" type="curve" smooth="yes"/>
			<point x="51" y="93" type="line"/>
			<point x="51" y="0" type="line"/>
			<point x="257" y="0" type="line"/>
		</contour>
	</outline>
</glyph>
<glyph name="asciicircum" format="2">
	<advance width="464"/>
	<unicode hex="005E"/>
	<outline>
		<contour>
			<point x="310" y="435" type="line"/>
			<point x="413" y="435" type="line"/>
			<point x="413" y="499" type="line"/>
			<point x="232" y="766" type="line"/>
			<point x="51" y="499" type="line"/>
			<point x="51" y="435" type="line"/>
			<point x="154" y="435" type="line"/>
			<point x="154" y="475" type="line"/>
			<point x="232" y="592" type="line"/>
			<point x="310" y="475" type="line"/>
		</contour>
	</outline>
</glyph>
<glyph name="c" format="2">
	<advance width="499"/>
	<unicode hex="0063"/>
	<anchor x="250" y="0" name="bottom"/>
	<anchor x="250" y="487" name="top"/>
	<outline>
		<contour>
			<point x="51" y="487" type="line"/>
			<point x="51" y="0" type="line"/>
			<point x="448" y="0" type="line"/>
			<point x="448" y="170" type="line"/>
			<point x="348" y="170" type="line"/>
			<point x="348" y="122" type="line" smooth="yes"/>
			<point x="348" y="102"/>
			<point x="336" y="90"/>
			<point x="316" y="90" type="curve" smooth="yes"/>
			<point x="183" y="90" type="line" smooth="yes"/>
			<point x="163" y="90"/>
			<point x="151" y="102"/>
			<point x="151" y="122" type="curve" smooth="yes"/>
			<point x="151" y="365" type="line" smooth="yes"/>
			<point x="151" y="385"/>
			<point x="163" y="397"/>
			<point x="183" y="397" type="curve" smooth="yes"/>
			<point x="316" y="397" type="line" smooth="yes"/>
			<point x="336" y="397"/>
			<point x="348" y="385"/>
			<point x="348" y="365" type="curve" smooth="yes"/>
			<point x="348" y="317" type="line"/>
			<point x="448" y="317" type="line"/>
			<point x="448" y="487" type="line"/>
		</contour>
	</outline>
</glyph>
<glyph name="d" format="2">
	<advance width="504"/>
	<unicode hex="0064"/>
	<anchor x="263" y="0" name="bottom"/>
	<anchor x="263" y="359" name="center"/>
	<anchor x="337" y="0" name="ogonek"/>
	<anchor x="404" y="650" name="top"/>
	<anchor x="485" y="487" name="topright"/>
	<outline>
		<contour>
			<point x="353" y="650" type="line"/>
			<point x="353" y="487" type="line"/>
			<point x="51" y="487" type="line"/>
			<point x="51" y="0" type="line"/>
			<point x="453" y="0" type="line"/>
			<point x="453" y="650" type="line"/>
		</contour>
		<contour>
			<point x="353" y="137" type="line" smooth="yes"/>
			<point x="353" y="107"/>
			<point x="346" y="90"/>
			<point x="316" y="90" type="curve" smooth="yes"/>
			<point x="188" y="90" type="line" smooth="yes"/>
			<point x="158" y="90"/>
			<point x="151" y="107"/>
			<point x="151" y="137" type="curve" smooth="yes"/>
			<point x="151" y="340" type="line" smooth="yes"/>
			<point x="151" y="377"/>
			<point x="171" y="397"/>
			<point x="208" y="397" type="curve" smooth="yes"/>
			<point x="296" y="397" type="line" smooth="yes"/>
			<point x="333" y="397"/>
			<point x="353" y="377"/>
			<point x="353" y="340" type="curve" smooth="yes"/>
		</contour>
	</outline>
</glyph>
<glyph name="e" format="2">
	<advance width="509"/>
	<unicode hex="0065"/>
	<anchor x="253" y="0" name="bottom"/>
	<anchor x="458" y="0" name="ogonek"/>
	<anchor x="253" y="487" name="top"/>
	<outline>
		<contour>
			<point x="458" y="194" type="line"/>
			<point x="458" y="487" type="line"/>
			<point x="51" y="487" type="line"/>
			<point x="51" y="0" type="line"/>
			<point x="458" y="0" type="line"/>
			<point x="458" y="140" type="line"/>
			<point x="358" y="140" type="line"/>
			<point x="358" y="122" type="line" smooth="yes"/>
			<point x="358" y="102"/>
			<point x="346" y="90"/>
			<point x="326" y="90" type="curve" smooth="yes"/>
			<point x="183" y="90" type="line" smooth="yes"/>
			<point x="163" y="90"/>
			<point x="151" y="102"/>
			<point x="151" y="122" type="curve" smooth="yes"/>
			<point x="151" y="194" type="line"/>
		</contour>
		<contour>
			<point x="177" y="395" type="curve" smooth="yes"/>
			<point x="358" y="395" type="line"/>
			<point x="358" y="333" type="line" smooth="yes"/>
			<point x="358" y="303"/>
			<point x="351" y="284"/>
			<point x="321" y="284" type="curve" smooth="yes"/>
			<point x="176" y="284" type="line" smooth="yes"/>
			<point x="162" y="284"/>
			<point x="151" y="296"/>
			<point x="151" y="310" type="curve" smooth="yes"/>
			<point x="151" y="370" type="line" smooth="yes"/>
			<point x="151" y="384"/>
			<point x="163" y="395"/>
		</contour>
	</outline>
</glyph>
<glyph name="g" format="2">
	<advance width="509"/>
	<unicode hex="0067"/>
	<anchor x="253" y="-200" name="bottom"/>
	<anchor x="253" y="487" name="top"/>
	<outline>
		<contour>
			<point x="458" y="365" type="line"/>
			<point x="358" y="365" type="line"/>
			<point x="358" y="-78" type="line" smooth="yes"/>
			<point x="358" y="-98"/>
			<point x="346" y="-110"/>
			<point x="326" y="-110" type="curve" smooth="yes"/>
			<point x="52" y="-110" type="line"/>
			<point x="52" y="-200" type="line"/>
			<point x="458" y="-200" type="line"/>
			<point x="458" y="-78" type="line"/>
		</contour>
		<contour>
			<point x="458" y="487" type="line"/>
			<point x="51" y="487" type="line"/>
			<point x="51" y="0" type="line"/>
			<point x="264" y="0" type="line"/>
			<point x="358" y="59" type="line"/>
			<point x="358" y="0" type="line"/>
			<point x="458" y="0" type="line"/>
		</contour>
		<contour>
			<point x="231" y="92" type="line"/>
			<point x="188" y="92" type="line" smooth="yes"/>
			<point x="158" y="92"/>
			<point x="151" y="109"/>
			<point x="151" y="139" type="curve" smooth="yes"/>
			<point x="151" y="340" type="line" smooth="yes"/>
			<point x="151" y="377"/>
			<point x="171" y="397"/>
			<point x="208" y="397" type="curve" smooth="yes"/>
			<point x="358" y="397" type="line"/>
			<point x="358" y="174" type="line"/>
		</contour>
	</outline>
</glyph>
<glyph name="h" format="2">
	<advance width="509"/>
	<unicode hex="0068"/>
	<anchor x="263" y="0" name="bottom"/>
	<anchor x="263" y="359" name="center"/>
	<anchor x="102" y="650" name="top"/>
	<anchor x="20" y="718" name="topleft"/>
	<outline>
		<contour>
			<point x="458" y="487" type="line"/>
			<point x="151" y="487" type="line"/>
			<point x="151" y="650" type="line"/>
			<point x="51" y="650" type="line"/>
			<point x="51" y="0" type="line"/>
			<point x="151" y="0" type="line"/>
			<point x="151" y="395" type="line"/>
			<point x="321" y="395" type="line" smooth="yes"/>
			<point x="351" y="395"/>
			<point x="358" y="378"/>
			<point x="358" y="348" type="curve" smooth="yes"/>
			<point x="358" y="147" type="line" smooth="yes"/>
			<point x="358" y="110"/>
			<point x="338" y="90"/>
			<point x="301" y="90" type="curve" smooth="yes"/>
			<point x="275" y="90" type="line"/>
			<point x="275" y="0" type="line"/>
			<point x="458" y="0" type="line"/>
		</contour>
	</outline>
</glyph>
<glyph name="j" format="2">
	<advance width="256"/>
	<unicode hex="006A"/>
	<anchor x="252" y="0" name="bottom"/>
	<anchor x="156" y="487" name="top"/>
	<outline>
		<contour>
			<point x="205" y="-78" type="line"/>
			<point x="205" y="487" type="line"/>
			<point x="20" y="487" type="line"/>
			<point x="20" y="397" type="line"/>
			<point x="73" y="397" type="line" smooth="yes"/>
			<point x="93" y="397"/>
			<point x="105" y="385"/>
			<point x="105" y="365" type="curve" smooth="yes"/>
			<point x="105" y="-78" type="line" smooth="yes"/>
			<point x="105" y="-98"/>
			<point x="93" y="-110"/>
			<point x="73" y="-110" type="curve" smooth="yes"/>
			<point x="-50" y="-110" type="line"/>
			<point x="-50" y="-200" type="line"/>
			<point x="205" y="-200" type="line"/>
		</contour>
		<component base="dotaccent" xOffset="87" yOffset="-231"/>
	</outline>
</glyph>
<glyph name="k" format="2">
	<advance width="489"/>
	<unicode hex="006B"/>
	<anchor x="260" y="0" name="bottom"/>
	<anchor x="101" y="650" name="top"/>
	<outline>
		<contour>
			<point x="317" y="242" type="line"/>
			<point x="488" y="364" type="line"/>
			<point x="437" y="291" type="line"/>
			<point x="437" y="487" type="line"/>
			<point x="337" y="487" type="line"/>
			<point x="337" y="378" type="line"/>
			<point x="177" y="261" type="line"/>
			<point x="260" y="288" type="line"/>
			<point x="188" y="288" type="line" smooth="yes"/>
			<point x="158" y="288"/>
			<point x="151" y="305"/>
			<point x="151" y="335" type="curve" smooth="yes"/>
			<point x="151" y="650" type="line"/>
			<point x="51" y="650" type="line"/>
			<point x="51" y="0" type="line"/>
			<point x="151" y="0" type="line"/>
			<point x="151" y="151" type="line" smooth="yes"/>
			<point x="151" y="181"/>
			<point x="158" y="198"/>
			<point x="188" y="198" type="curve" smooth="yes"/>
			<point x="257" y="198" type="line"/>
			<point x="172" y="218" type="line"/>
			<point x="338" y="111" type="line"/>
			<point x="338" y="0" type="line"/>
			<point x="438" y="0" type="line"/>
			<point x="438" y="203" type="line"/>
			<point x="490" y="132" type="line"/>
		</contour>
	</outline>
</glyph>
<glyph name="l" format="2">
	<advance width="284"/>
	<unicode hex="006C"/>
	<anchor x="145" y="0" name="bottom"/>
	<anchor x="145" y="244" name="center"/>
	<anchor x="101" y="650" name="top"/>
	<anchor x="270" y="487" name="topright"/>
	<outline>
		<contour>
			<point x="154" y="0" type="line"/>
			<point x="154" y="650" type="line"/>
			<point x="51" y="650" type="line"/>
			<point x="51" y="0" type="line"/>
		</contour>
		<contour>
			<point x="51" y="359" type="line"/>
			<point x="51" y="0" type="line"/>
			<point x="239" y="0" type="line"/>
			<point x="239" y="95" type="line"/>
			<point x="186" y="95" type="line" smooth="yes"/>
			<point x="166" y="95"/>
			<point x="154" y="107"/>
			<point x="154" y="127" type="curve" smooth="yes"/>
			<point x="154" y="359" type="line"/>
		</contour>
	</outline>
</glyph>
<glyph name="m" format="2">
	<advance width="796"/>
	<unicode hex="006D"/>
	<anchor x="398" y="0" name="bottom"/>
	<anchor x="264" y="487" name="top"/>
	<outline>
		<contour>
			<point x="448" y="487" type="line"/>
			<point x="245" y="487" type="line"/>
			<point x="151" y="428" type="line"/>
			<point x="151" y="487" type="line"/>
			<point x="51" y="487" type="line"/>
			<point x="51" y="0" type="line"/>
			<point x="151" y="0" type="line"/>
			<point x="151" y="313" type="line"/>
			<point x="278" y="395" type="line"/>
			<point x="311" y="395" type="line" smooth="yes"/>
			<point x="341" y="395"/>
			<point x="348" y="378"/>
			<point x="348" y="348" type="curve" smooth="yes"/>
			<point x="348" y="147" type="line" smooth="yes"/>
			<point x="348" y="110"/>
			<point x="328" y="90"/>
			<point x="291" y="90" type="curve" smooth="yes"/>
			<point x="265" y="90" type="line"/>
			<point x="265" y="0" type="line"/>
			<point x="448" y="0" type="line"/>
			<point x="448" y="146" type="line"/>
		</contour>
		<contour>
			<point x="448" y="428" type="line"/>
			<point x="448" y="313" type="line"/>
			<point x="575" y="395" type="line"/>
			<point x="608" y="395" type="line" smooth="yes"/>
			<point x="638" y="395"/>
			<point x="645" y="378"/>
			<point x="645" y="348" type="curve" smooth="yes"/>
			<point x="645" y="0" type="line"/>
			<point x="745" y="0" type="line"/>
			<point x="745" y="487" type="line"/>
			<point x="542" y="487" type="line"/>
		</contour>
		<contour>
			<point x="348" y="146" type="line"/>
			<point x="348" y="0" type="line"/>
			<point x="531" y="0" type="line"/>
			<point x="531" y="90" type="line"/>
			<point x="505" y="90" type="line" smooth="yes"/>
			<point x="468" y="90"/>
			<point x="448" y="110"/>
			<point x="448" y="147" type="curve"/>
		</contour>
	</outline>
</glyph>
<glyph name="p" format="2">
	<advance width="504"/>
	<unicode hex="0070"/>
	<anchor x="241" y="487" name="bottom"/>
	<anchor x="241" y="128" name="center"/>
	<anchor x="241" y="-231" name="top"/>
	<outline>
		<contour>
			<point x="51" y="174" type="line"/>
			<point x="51" y="-200" type="line"/>
			<point x="151" y="-200" type="line"/>
			<point x="151" y="487" type="line"/>
			<point x="51" y="487" type="line"/>
		</contour>
		<component base="o" xScale="-1" yScale="-1" xOffset="504" yOffset="487"/>
	</outline>
</glyph>
<glyph name="r" format="2">
	<advance width="411"/>
	<unicode hex="0072"/>
	<anchor x="144" y="0" name="bottom"/>
	<anchor x="207" y="487" name="top"/>
	<outline>
		<contour>
			<point x="341" y="395" type="line"/>
			<point x="341" y="487" type="line"/>
			<point x="51" y="487" type="line"/>
			<point x="51" y="0" type="line"/>
			<point x="151" y="0" type="line"/>
			<point x="151" y="395" type="line"/>
		</contour>
		<contour>
			<point x="199" y="487" type="line"/>
			<point x="189" y="395" type="line"/>
			<point x="233" y="395" type="line" smooth="yes"/>
			<point x="251" y="395"/>
			<point x="260" y="386"/>
			<point x="260" y="368" type="curve" smooth="yes"/>
			<point x="260" y="312" type="line"/>
			<point x="360" y="312" type="line"/>
			<point x="360" y="487" type="line"/>
		</contour>
		<contour>
			<point x="151" y="122" type="curve"/>
			<point x="51" y="122" type="line"/>
			<point x="120" y="0" type="line"/>
			<point x="236" y="0" type="line"/>
			<point x="236" y="90" type="line"/>
			<point x="183" y="90" type="line" smooth="yes"/>
			<point x="163" y="90"/>
			<point x="151" y="102"/>
		</contour>
	</outline>
</glyph>
<glyph name="s" format="2">
	<advance width="499"/>
	<unicode hex="0073"/>
	<anchor x="250" y="0" name="bottom"/>
	<anchor x="250" y="487" name="top"/>
	<outline>
		<contour>
			<point x="448" y="357" type="line"/>
			<point x="448" y="487" type="line"/>
			<point x="55" y="487" type="line"/>
			<point x="55" y="200" type="line"/>
			<point x="322" y="200" type="line" smooth="yes"/>
			<point x="339" y="200"/>
			<point x="348" y="191"/>
			<point x="348" y="174" type="curve" smooth="yes"/>
			<point x="348" y="122" type="line" smooth="yes"/>
			<point x="348" y="102"/>
			<point x="336" y="90"/>
			<point x="316" y="90" type="curve" smooth="yes"/>
			<point x="183" y="90" type="line" smooth="yes"/>
			<point x="163" y="90"/>
			<point x="151" y="102"/>
			<point x="151" y="122" type="curve" smooth="yes"/>
			<point x="151" y="133" type="line"/>
			<point x="51" y="133" type="line"/>
			<point x="51" y="0" type="line"/>
			<point x="189" y="0" type="line"/>
			<point x="448" y="0" type="line"/>
			<point x="448" y="290" type="line"/>
			<point x="191" y="290" type="line" smooth="yes"/>
			<point x="168" y="290"/>
			<point x="155" y="303"/>
			<point x="155" y="326" type="curve" smooth="yes"/>
			<point x="155" y="365" type="line" smooth="yes"/>
			<point x="155" y="385"/>
			<point x="167" y="397"/>
			<point x="187" y="397" type="curve" smooth="yes"/>
			<point x="316" y="397" type="line" smooth="yes"/>
			<point x="336" y="397"/>
			<point x="348" y="385"/>
			<point x="348" y="365" type="curve" smooth="yes"/>
			<point x="348" y="357" type="line"/>
		</contour>
	</outline>
</glyph>
<glyph name="t" format="2">
	<advance width="486"/>
	<unicode hex="0074"/>
	<anchor x="291" y="0" name="bottom"/>
	<anchor x="215" y="359" name="center"/>
	<anchor x="215" y="598" name="top"/>
	<outline>
		<contour>
			<point x="263" y="122" type="curve" smooth="yes"/>
			<point x="263" y="397" type="line"/>
			<point x="404" y="397" type="line"/>
			<point x="404" y="487" type="line"/>
			<point x="263" y="487" type="line"/>
			<point x="263" y="598" type="line"/>
			<point x="163" y="598" type="line"/>
			<point x="163" y="487" type="line"/>
			<point x="51" y="487" type="line"/>
			<point x="51" y="397" type="line"/>
			<point x="163" y="397" type="line"/>
			<point x="163" y="0" type="line"/>
			<point x="425" y="0" type="line"/>
			<point x="425" y="90" type="line"/>
			<point x="295" y="90" type="line" smooth="yes"/>
			<point x="276" y="90"/>
			<point x="263" y="102"/>
		</contour>
		<contour>
			<point x="301" y="0" type="line"/>
			<point x="435" y="0" type="line"/>
			<point x="435" y="133" type="line"/>
			<point x="339" y="133" type="line"/>
			<point x="339" y="122" type="line" smooth="yes"/>
			<point x="339" y="102"/>
			<point x="327" y="90"/>
			<point x="307" y="90" type="curve"/>
		</contour>
	</outline>
</glyph>
<glyph name="u" format="2">
	<advance width="494"/>
	<unicode hex="0075"/>
	<anchor x="243" y="0" name="bottom"/>
	<anchor x="336" y="0" name="ogonek"/>
	<anchor x="243" y="487" name="top"/>
	<anchor x="475" y="487" name="topright"/>
	<outline>
		<contour>
			<point x="443" y="487" type="line"/>
			<point x="343" y="487" type="line"/>
			<point x="343" y="137" type="line" smooth="yes"/>
			<point x="343" y="107"/>
			<point x="336" y="90"/>
			<point x="306" y="90" type="curve" smooth="yes"/>
			<point x="188" y="90" type="line" smooth="yes"/>
			<point x="158" y="90"/>
			<point x="151" y="107"/>
			<point x="151" y="137" type="curve" smooth="yes"/>
			<point x="151" y="487" type="line"/>
			<point x="51" y="487" type="line"/>
			<point x="51" y="0" type="line"/>
			<point x="443" y="0" type="line"/>
		</contour>
	</outline>
</glyph>
<glyph name="v" format="2">
	<advance width="506"/>
	<unicode hex="0076"/>
	<anchor x="251" y="0" name="bottom"/>
	<anchor x="251" y="718" name="top"/>
	<outline>
		<contour>
			<point x="248" y="-37" type="line"/>
			<point x="455" y="111" type="line"/>
			<point x="455" y="487" type="line"/>
			<point x="355" y="487" type="line"/>
			<point x="355" y="161" type="line"/>
			<point x="253" y="86" type="line"/>
			<point x="151" y="161" type="line"/>
			<point x="151" y="487" type="line"/>
			<point x="51" y="487" type="line"/>
			<point x="51" y="111" type="line"/>
			<point x="257" y="-37" type="line"/>
			<point x="173" y="0" type="line"/>
			<point x="332" y="0" type="line"/>
		</contour>
	</outline>
</glyph>
<glyph name="w" format="2">
	<advance width="610"/>
	<unicode hex="0077"/>
	<anchor x="301" y="0" name="bottom"/>
	<anchor x="305" y="487" name="top"/>
	<outline>
		<contour>
			<point x="206" y="0" type="line"/>
			<point x="355" y="0" type="line"/>
			<point x="355" y="387" type="line"/>
			<point x="255" y="387" type="line"/>
			<point x="255" y="86" type="line"/>
			<point x="253" y="86" type="line"/>
			<point x="151" y="161" type="line"/>
			<point x="151" y="487" type="line"/>
			<point x="51" y="487" type="line"/>
			<point x="51" y="111" type="line"/>
		</contour>
		<contour>
			<point x="404" y="0" type="line"/>
			<point x="559" y="111" type="line"/>
			<point x="559" y="487" type="line"/>
			<point x="459" y="487" type="line"/>
			<point x="459" y="161" type="line"/>
			<point x="357" y="86" type="line"/>
			<point x="355" y="86" type="line"/>
			<point x="355" y="387" type="line"/>
			<point x="255" y="387" type="line"/>
			<point x="255" y="0" type="line"/>
		</contour>
	</outline>
</glyph>
<glyph name="x" format="2">
	<advance width="508"/>
	<unicode hex="0078"/>
	<anchor x="237" y="0" name="bottom"/>
	<anchor x="237" y="718" name="top"/>
	<outline>
		<contour>
			<point x="207" y="288" type="line"/>
			<point x="207" y="198" type="line"/>
			<point x="276" y="198" type="line"/>
			<point x="191" y="218" type="line"/>
			<point x="357" y="111" type="line"/>
			<point x="357" y="0" type="line"/>
			<point x="457" y="0" type="line"/>
			<point x="457" y="203" type="line"/>
			<point x="509" y="132" type="line"/>
			<point x="336" y="242" type="line"/>
			<point x="507" y="364" type="line"/>
			<point x="456" y="291" type="line"/>
			<point x="456" y="487" type="line"/>
			<point x="356" y="487" type="line"/>
			<point x="356" y="378" type="line"/>
			<point x="196" y="261" type="line"/>
			<point x="279" y="288" type="line"/>
		</contour>
		<contour>
			<point x="301" y="288" type="line"/>
			<point x="229" y="288" type="line"/>
			<point x="312" y="261" type="line"/>
			<point x="152" y="378" type="line"/>
			<point x="152" y="487" type="line"/>
			<point x="52" y="487" type="line"/>
			<point x="52" y="291" type="line"/>
			<point x="1" y="364" type="line"/>
			<point x="172" y="242" type="line"/>
			<point x="-1" y="132" type="line"/>
			<point x="51" y="203" type="line"/>
			<point x="51" y="0" type="line"/>
			<point x="151" y="0" type="line"/>
			<point x="151" y="111" type="line"/>
			<point x="317" y="218" type="line"/>
			<point x="232" y="198" type="line"/>
			<point x="301" y="198" type="line"/>
		</contour>
	</outline>
</glyph>
<glyph name="y" format="2">
	<advance width="494"/>
	<unicode hex="0079"/>
	<anchor x="204" y="0" name="bottom"/>
	<anchor x="247" y="487" name="top"/>
	<outline>
		<contour>
			<point x="343" y="47" type="line"/>
			<point x="343" y="-200" type="line"/>
			<point x="443" y="-200" type="line"/>
			<point x="443" y="47" type="line"/>
		</contour>
		<component base="u"/>
	</outline>
</glyph>
<glyph name="z" format="2">
	<advance width="499"/>
	<unicode hex="007A"/>
	<anchor x="249" y="0" name="bottom"/>
	<anchor x="249" y="487" name="top"/>
	<outline>
		<contour>
			<point x="51" y="397" type="line"/>
			<point x="183" y="397" type="line"/>
			<point x="309" y="397" type="line" smooth="yes"/>
			<point x="329" y="397"/>
			<point x="341" y="385"/>
			<point x="341" y="365" type="curve" smooth="yes"/>
			<point x="341" y="326" type="line" smooth="yes"/>
			<point x="341" y="303"/>
			<point x="328" y="290"/>
			<point x="305" y="290" type="curve" smooth="yes"/>
			<point x="53" y="290" type="line"/>
			<point x="53" y="0" type="line"/>
			<point x="448" y="0" type="line"/>
			<point x="448" y="90" type="line"/>
			<point x="316" y="90" type="line"/>
			<point x="185" y="90" type="line" smooth="yes"/>
			<point x="165" y="90"/>
			<point x="153" y="102"/>
			<point x="153" y="122" type="curve" smooth="yes"/>
			<point x="153" y="174" type="line" smooth="yes"/>
			<point x="153" y="191"/>
			<point x="162" y="200"/>
			<point x="179" y="200" type="curve" smooth="yes"/>
			<point x="441" y="200" type="line"/>
			<point x="441" y="487" type="line"/>
			<point x="51" y="487" type="line"/>
		</contour>
	</outline>
</glyph>
<glyph name="bar" format="2">
	<advance width="205"/>
	<unicode hex="007C"/>
	<outline>
		<contour>
			<point x="51" y="768" type="line"/>
			<point x="51" y="-50" type="line"/>
			<point x="154" y="-50" type="line"/>
			<point x="154" y="768" type="line"/>
		</contour>
	</outline>
</glyph>
<glyph name="asciitilde" format="2">
	<advance width="411"/>
	<unicode hex="007E"/>
	<outline>
		<contour>
			<point x="287" y="420" type="line"/>
			<point x="287" y="386" type="line" smooth="yes"/>
			<point x="287" y="369"/>
			<point x="278" y="359"/>
			<point x="252" y="359" type="curve" smooth="yes"/>
			<point x="233" y="359"/>
			<point x="217" y="369"/>
			<point x="217" y="386" type="curve" smooth="yes"/>
			<point x="217" y="420" type="line"/>
			<point x="86" y="420" type="line" smooth="yes"/>
			<point x="64" y="420"/>
			<point x="51" y="407"/>
			<point x="51" y="385" type="curve" smooth="yes"/>
			<point x="51" y="298" type="line"/>
			<point x="124" y="298" type="line"/>
			<point x="124" y="332" type="line" smooth="yes"/>
			<point x="124" y="349"/>
			<point x="133" y="359"/>
			<point x="159" y="359" type="curve" smooth="yes"/>
			<point x="178" y="359"/>
			<point x="194" y="349"/>
			<point x="194" y="332" type="curve" smooth="yes"/>
			<point x="194" y="298" type="line"/>
			<point x="325" y="298" type="line" smooth="yes"/>
			<point x="347" y="298"/>
			<point x="360" y="311"/>
			<point x="360" y="333" type="curve" smooth="yes"/>
			<point x="360" y="420" type="line"/>
		</contour>
	</outline>
</glyph>
<glyph name="cent" format="2">
	<advance width="505"/>
	<unicode hex="00A2"/>
	<anchor x="253" y="0" name="bottom"/>
	<anchor x="253" y="718" name="top"/>
	<outline>
		<contour>
			<point x="51" y="588" type="line"/>
			<point x="51" y="130" type="line"/>
			<point x="454" y="130" type="line"/>
			<point x="454" y="295" type="line"/>
			<point x="351" y="295" type="line"/>
			<point x="351" y="257" type="line" smooth="yes"/>
			<point x="351" y="237"/>
			<point x="339" y="225"/>
			<point x="319" y="225" type="curve" smooth="yes"/>
			<point x="186" y="225" type="line" smooth="yes"/>
			<point x="166" y="225"/>
			<point x="154" y="237"/>
			<point x="154" y="257" type="curve" smooth="yes"/>
			<point x="154" y="461" type="line" smooth="yes"/>
			<point x="154" y="481"/>
			<point x="166" y="493"/>
			<point x="186" y="493" type="curve" smooth="yes"/>
			<point x="319" y="493" type="line" smooth="yes"/>
			<point x="339" y="493"/>
			<point x="351" y="481"/>
			<point x="351" y="461" type="curve" smooth="yes"/>
			<point x="351" y="423" type="line"/>
			<point x="454" y="423" type="line"/>
			<point x="454" y="588" type="line"/>
		</contour>
		<contour>
			<point x="201" y="718" type="line"/>
			<point x="201" y="543" type="line"/>
			<point x="304" y="543" type="line"/>
			<point x="304" y="718" type="line"/>
		</contour>
		<contour>
			<point x="201" y="175" type="line"/>
			<point x="201" y="0" type="line"/>
			<point x="304" y="0" type="line"/>
			<point x="304" y="175" type="line"/>
		</contour>
	</outline>
</glyph>
<glyph name="sterling" format="2">
	<advance width="570"/>
	<unicode hex="00A3"/>
	<outline>
		<contour>
			<point x="119" y="718" type="line"/>
			<point x="119" y="285" type="line"/>
			<point x="119" y="127" type="line" smooth="yes"/>
			<point x="119" y="107"/>
			<point x="106" y="95"/>
			<point x="87" y="95" type="curve" smooth="yes"/>
			<point x="59" y="95" type="line"/>
			<point x="59" y="0" type="line"/>
			<point x="519" y="0" type="line"/>
			<point x="519" y="95" type="line"/>
			<point x="254" y="95" type="line" smooth="yes"/>
			<point x="235" y="95"/>
			<point x="222" y="107"/>
			<point x="222" y="127" type="curve" smooth="yes"/>
			<point x="222" y="718" type="line"/>
		</contour>
		<contour>
			<point x="507" y="718" type="line"/>
			<point x="119" y="718" type="line"/>
			<point x="119" y="623" type="line"/>
			<point x="507" y="623" type="line"/>
		</contour>
		<contour>
			<point x="394" y="360" type="line"/>
			<point x="394" y="455" type="line"/>
			<point x="51" y="455" type="line"/>
			<point x="51" y="360" type="line"/>
		</contour>
		<contour>
			<point x="384" y="220" type="line"/>
			<point x="384" y="315" type="line"/>
			<point x="51" y="315" type="line"/>
			<point x="51" y="220" type="line"/>
		</contour>
		<contour>
			<point x="507" y="718" type="line"/>
			<point x="372" y="623" type="line"/>
			<point x="392" y="623"/>
			<point x="404" y="611"/>
			<point x="404" y="591" type="curve" smooth="yes"/>
			<point x="404" y="533" type="line"/>
			<point x="507" y="533" type="line"/>
		</contour>
	</outline>
</glyph>
<glyph name="currency" format="2">
	<advance width="561"/>
	<unicode hex="00A4"/>
	<outline>
		<contour>
			<point x="463" y="533" type="line"/>
			<point x="99" y="533" type="line"/>
			<point x="99" y="185" type="line"/>
			<point x="463" y="185" type="line"/>
		</contour>
		<contour>
			<point x="360" y="312" type="line" smooth="yes"/>
			<point x="360" y="292"/>
			<point x="348" y="280"/>
			<point x="328" y="280" type="curve" smooth="yes"/>
			<point x="234" y="280" type="line" smooth="yes"/>
			<point x="214" y="280"/>
			<point x="202" y="292"/>
			<point x="202" y="312" type="curve" smooth="yes"/>
			<point x="202" y="406" type="line" smooth="yes"/>
			<point x="202" y="426"/>
			<point x="214" y="438"/>
			<point x="234" y="438" type="curve" smooth="yes"/>
			<point x="328" y="438" type="line" smooth="yes"/>
			<point x="348" y="438"/>
			<point x="360" y="426"/>
			<point x="360" y="406" type="curve" smooth="yes"/>
		</contour>
		<contour>
			<point x="459" y="610" type="line"/>
			<point x="335" y="486" type="line"/>
			<point x="408" y="413" type="line"/>
			<point x="531" y="537" type="line"/>
		</contour>
		<contour>
			<point x="155" y="307" type="line"/>
			<point x="32" y="183" type="line"/>
			<point x="104" y="110" type="line"/>
			<point x="228" y="234" type="line"/>
		</contour>
		<contour>
			<point x="30" y="536" type="line"/>
			<point x="155" y="412" type="line"/>
			<point x="227" y="485" type="line"/>
			<point x="103" y="609" type="line"/>
		</contour>
		<contour>
			<point x="334" y="232" type="line"/>
			<point x="458" y="109" type="line"/>
			<point x="531" y="181" type="line"/>
			<point x="407" y="305" type="line"/>
		</contour>
	</outline>
</glyph>
<glyph name="yen" format="2">
	<advance width="510"/>
	<unicode hex="00A5"/>
	<outline>
		<contour>
			<point x="392" y="280" type="line"/>
			<point x="392" y="375" type="line"/>
			<point x="119" y="375" type="line"/>
			<point x="119" y="280" type="line"/>
		</contour>
		<contour>
			<point x="392" y="140" type="line"/>
			<point x="392" y="235" type="line"/>
			<point x="119" y="235" type="line"/>
			<point x="119" y="140" type="line"/>
		</contour>
		<component base="Y.ss02"/>
	</outline>
</glyph>
<glyph name="brokenbar" format="2">
	<advance width="205"/>
	<unicode hex="00A6"/>
	<outline>
		<contour>
			<point x="51" y="489" type="line"/>
			<point x="154" y="489" type="line"/>
			<point x="154" y="230" type="line"/>
			<point x="51" y="230" type="line"/>
		</contour>
		<component base="bar"/>
	</outline>
</glyph>
<glyph name="section" format="2">
	<advance width="475"/>
	<unicode hex="00A7"/>
	<outline>
		<contour>
			<point x="154" y="148" type="line"/>
			<point x="51" y="148" type="line"/>
			<point x="51" y="0" type="line"/>
			<point x="424" y="0" type="line"/>
			<point x="424" y="145" type="line"/>
			<point x="321" y="145" type="line"/>
			<point x="321" y="127" type="line" smooth="yes"/>
			<point x="321" y="107"/>
			<point x="309" y="95"/>
			<point x="289" y="95" type="curve" smooth="yes"/>
			<point x="186" y="95" type="line" smooth="yes"/>
			<point x="166" y="95"/>
			<point x="154" y="107"/>
			<point x="154" y="127" type="curve" smooth="yes"/>
		</contour>
		<contour>
			<point x="55" y="545" type="line"/>
			<point x="158" y="545" type="line"/>
			<point x="158" y="591" type="line" smooth="yes"/>
			<point x="158" y="611"/>
			<point x="170" y="623"/>
			<point x="190" y="623" type="curve" smooth="yes"/>
			<point x="289" y="623" type="line" smooth="yes"/>
			<point x="309" y="623"/>
			<point x="321" y="611"/>
			<point x="321" y="591" type="curve" smooth="yes"/>
			<point x="321" y="563" type="line"/>
			<point x="424" y="563" type="line"/>
			<point x="424" y="718" type="line"/>
			<point x="55" y="718" type="line"/>
		</contour>
		<contour>
			<point x="55" y="549" type="line"/>
			<point x="55" y="377" type="line"/>
			<point x="55" y="222" type="line"/>
			<point x="255" y="222" type="line" smooth="yes"/>
			<point x="298" y="222"/>
			<point x="321" y="198"/>
			<point x="321" y="156" type="curve" smooth="yes"/>
			<point x="321" y="129" type="line"/>
			<point x="424" y="129" type="line"/>
			<point x="424" y="317" type="line"/>
			<point x="224" y="317" type="line" smooth="yes"/>
			<point x="181" y="317"/>
			<point x="158" y="340"/>
			<point x="158" y="383" type="curve" smooth="yes"/>
			<point x="158" y="549" type="line"/>
		</contour>
		<contour>
			<point x="158" y="552" type="curve"/>
			<point x="55" y="546" type="line"/>
			<point x="55" y="391" type="line"/>
			<point x="255" y="391" type="line" smooth="yes"/>
			<point x="298" y="391"/>
			<point x="321" y="367"/>
			<point x="321" y="325" type="curve" smooth="yes"/>
			<point x="321" y="278" type="line"/>
			<point x="424" y="278" type="line"/>
			<point x="424" y="486" type="line"/>
			<point x="224" y="486" type="line" smooth="yes"/>
			<point x="181" y="486"/>
			<point x="158" y="509"/>
		</contour>
	</outline>
</glyph>
<glyph name="dieresis" format="2">
	<advance width="288"/>
	<unicode hex="00A8"/>
	<anchor x="144" y="718" name="_top"/>
	<anchor x="144" y="873" name="top"/>
	<outline>
		<contour>
			<point x="0" y="884" type="line"/>
			<point x="0" y="789" type="line"/>
			<point x="118" y="789" type="line"/>
			<point x="118" y="884" type="line"/>
		</contour>
		<contour>
			<point x="170" y="884" type="line"/>
			<point x="170" y="789" type="line"/>
			<point x="288" y="789" type="line"/>
			<point x="288" y="884" type="line"/>
		</contour>
	</outline>
</glyph>
<glyph name="copyright" format="2">
	<advance width="715"/>
	<unicode hex="00A9"/>
	<anchor x="308" y="0" name="bottom"/>
	<anchor x="308" y="359" name="center"/>
	<anchor x="541" y="10" name="ogonek"/>
	<anchor x="308" y="718" name="top"/>
	<anchor x="35" y="718" name="topleft"/>
	<anchor x="580" y="718" name="topright"/>
	<outline>
		<contour>
			<point x="664" y="718" type="line"/>
			<point x="51" y="718" type="line"/>
			<point x="51" y="0" type="line"/>
			<point x="664" y="0" type="line"/>
		</contour>
		<contour>
			<point x="561" y="127" type="line" smooth="yes"/>
			<point x="561" y="107"/>
			<point x="549" y="95"/>
			<point x="529" y="95" type="curve" smooth="yes"/>
			<point x="186" y="95" type="line" smooth="yes"/>
			<point x="166" y="95"/>
			<point x="154" y="107"/>
			<point x="154" y="127" type="curve" smooth="yes"/>
			<point x="154" y="591" type="line" smooth="yes"/>
			<point x="154" y="611"/>
			<point x="166" y="623"/>
			<point x="186" y="623" type="curve" smooth="yes"/>
			<point x="529" y="623" type="line" smooth="yes"/>
			<point x="549" y="623"/>
			<point x="561" y="611"/>
			<point x="561" y="591" type="curve" smooth="yes"/>
		</contour>
		<contour>
			<point x="216" y="557" type="line"/>
			<point x="216" y="159" type="line"/>
			<point x="499" y="159" type="line"/>
			<point x="499" y="314" type="line"/>
			<point x="396" y="314" type="line"/>
			<point x="396" y="286" type="line" smooth="yes"/>
			<point x="396" y="266"/>
			<point x="384" y="254"/>
			<point x="364" y="254" type="curve" smooth="yes"/>
			<point x="351" y="254" type="line" smooth="yes"/>
			<point x="331" y="254"/>
			<point x="319" y="266"/>
			<point x="319" y="286" type="curve" smooth="yes"/>
			<point x="319" y="430" type="line" smooth="yes"/>
			<point x="319" y="450"/>
			<point x="331" y="462"/>
			<point x="351" y="462" type="curve" smooth="yes"/>
			<point x="364" y="462" type="line" smooth="yes"/>
			<point x="384" y="462"/>
			<point x="396" y="450"/>
			<point x="396" y="430" type="curve" smooth="yes"/>
			<point x="396" y="402" type="line"/>
			<point x="499" y="402" type="line"/>
			<point x="499" y="557" type="line"/>
		</contour>
	</outline>
</glyph>
<glyph name="logicalnot" format="2">
	<advance width="542"/>
	<unicode hex="00AC"/>
	<outline>
		<contour>
			<point x="50" y="406" type="line"/>
			<point x="50" y="311" type="line"/>
			<point x="492" y="311" type="line"/>
			<point x="492" y="406" type="line"/>
		</contour>
		<contour>
			<point x="389" y="148" type="line"/>
			<point x="492" y="148" type="line"/>
			<point x="492" y="400" type="line"/>
			<point x="389" y="400" type="line"/>
		</contour>
	</outline>
</glyph>
<glyph name="registered" format="2">
	<advance width="505"/>
	<unicode hex="00AE"/>
	<anchor x="253" y="0" name="bottom"/>
	<anchor x="253" y="718" name="top"/>
	<outline>
		<contour>
			<point x="320" y="452" type="line"/>
			<point x="454" y="547" type="line"/>
			<point x="454" y="718" type="line"/>
			<point x="341" y="718" type="line"/>
			<point x="341" y="588" type="line"/>
			<point x="217" y="498" type="line"/>
			<point x="191" y="498" type="line" smooth="yes"/>
			<point x="161" y="498"/>
			<point x="154" y="515"/>
			<point x="154" y="545" type="curve" smooth="yes"/>
			<point x="154" y="568" type="line" smooth="yes"/>
			<point x="154" y="605"/>
			<point x="174" y="625"/>
			<point x="211" y="625" type="curve" smooth="yes"/>
			<point x="382" y="625" type="line"/>
			<point x="382" y="718" type="line"/>
			<point x="51" y="718" type="line"/>
			<point x="51" y="300" type="line"/>
			<point x="154" y="300" type="line"/>
			<point x="154" y="356" type="line" smooth="yes"/>
			<point x="154" y="386"/>
			<point x="161" y="403"/>
			<point x="191" y="403" type="curve" smooth="yes"/>
			<point x="228" y="403" type="line"/>
			<point x="335" y="300" type="line"/>
			<point x="454" y="300" type="line"/>
			<point x="417" y="357" type="line"/>
		</contour>
		<contour>
			<point x="335" y="401" type="line"/>
			<point x="335" y="300" type="line"/>
			<point x="454" y="300" type="line"/>
			<point x="454" y="401" type="line"/>
		</contour>
	</outline>
</glyph>
<glyph name="macron" format="2">
	<advance width="268"/>
	<unicode hex="00AF"/>
	<anchor x="134" y="718" name="_top"/>
	<anchor x="134" y="840" name="top"/>
	<outline>
		<contour>
			<point x="0" y="849" type="line"/>
			<point x="0" y="764" type="line"/>
			<point x="268" y="764" type="line"/>
			<point x="268" y="849" type="line"/>
		</contour>
	</outline>
</glyph>
<glyph name="degree" format="2">
	<advance width="446"/>
	<unicode hex="00B0"/>
	<outline>
		<contour>
			<point x="395" y="718" type="line"/>
			<point x="51" y="718" type="line"/>
			<point x="51" y="390" type="line"/>
			<point x="395" y="390" type="line"/>
		</contour>
		<contour>
			<point x="292" y="517" type="line" smooth="yes"/>
			<point x="292" y="497"/>
			<point x="280" y="485"/>
			<point x="260" y="485" type="curve" smooth="yes"/>
			<point x="186" y="485" type="line" smooth="yes"/>
			<point x="166" y="485"/>
			<point x="154" y="497"/>
			<point x="154" y="517" type="curve" smooth="yes"/>
			<point x="154" y="591" type="line" smooth="yes"/>
			<point x="154" y="611"/>
			<point x="166" y="623"/>
			<point x="186" y="623" type="curve" smooth="yes"/>
			<point x="260" y="623" type="line" smooth="yes"/>
			<point x="280" y="623"/>
			<point x="292" y="611"/>
			<point x="292" y="591" type="curve" smooth="yes"/>
		</contour>
	</outline>
</glyph>
<glyph name="plusminus" format="2">
	<advance width="472"/>
	<unicode hex="00B1"/>
	<outline>
		<contour>
			<point x="422" y="216" type="line"/>
			<point x="50" y="216" type="line"/>
			<point x="50" y="121" type="line"/>
			<point x="422" y="121" type="line"/>
		</contour>
		<contour>
			<point x="50" y="476" type="line"/>
			<point x="50" y="381" type="line"/>
			<point x="422" y="381" type="line"/>
			<point x="422" y="476" type="line"/>
		</contour>
		<contour>
			<point x="184" y="288" type="line"/>
			<point x="287" y="288" type="line"/>
			<point x="287" y="570" type="line"/>
			<point x="184" y="570" type="line"/>
		</contour>
	</outline>
</glyph>
<glyph name="acute" format="2">
	<advance width="108"/>
	<unicode hex="00B4"/>
	<anchor x="49" y="718" name="_top"/>
	<anchor x="-85" y="751" name="top"/>
	<outline>
		<contour>
			<point x="94" y="843" type="curve" smooth="yes"/>
			<point x="94" y="923" type="line"/>
			<point x="4" y="923" type="line"/>
			<point x="4" y="766" type="line"/>
			<point x="16" y="766" type="line" smooth="yes"/>
			<point x="61" y="766"/>
			<point x="94" y="798"/>
		</contour>
	</outline>
</glyph>
<glyph name="paragraph" format="2">
	<advance width="546"/>
	<unicode hex="00B6"/>
	<outline>
		<contour>
			<point x="324" y="718" type="line"/>
			<point x="51" y="718" type="line"/>
			<point x="51" y="371" type="line"/>
			<point x="184" y="371" type="line" smooth="yes"/>
			<point x="214" y="371"/>
			<point x="221" y="354"/>
			<point x="221" y="324" type="curve" smooth="yes"/>
			<point x="221" y="0" type="line"/>
			<point x="324" y="0" type="line"/>
		</contour>
		<contour>
			<point x="392" y="718" type="line"/>
			<point x="392" y="0" type="line"/>
			<point x="495" y="0" type="line"/>
			<point x="495" y="718" type="line"/>
		</contour>
	</outline>
</glyph>
<glyph name="cedilla" format="2">
	<advance width="600"/>
	<unicode hex="00B8"/>
	<anchor x="236" y="0" name="_bottom"/>
	<outline>
		<contour>
			<point x="216" y="-87" type="line"/>
			<point x="216" y="-174" type="line"/>
			<point x="274" y="-174" type="line"/>
			<point x="311" y="-174"/>
			<point x="320" y="-161"/>
			<point x="320" y="-137" type="curve" smooth="yes"/>
			<point x="320" y="-77" type="line" smooth="yes"/>
			<point x="320" y="-53"/>
			<point x="307" y="-40"/>
			<point x="283" y="-40" type="curve" smooth="yes"/>
			<point x="256" y="-40" type="line"/>
			<point x="256" y="0" type="line"/>
			<point x="216" y="0" type="line"/>
		</contour>
	</outline>
</glyph>
<glyph name="AE" format="2">
	<advance width="735"/>
	<unicode hex="00C6"/>
	<anchor x="222" y="0" name="bottom"/>
	<anchor x="423" y="10" name="ogonek"/>
	<anchor x="374" y="718" name="top"/>
	<anchor x="290" y="718" name="topleft"/>
	<outline>
		<contour>
			<point x="684" y="513" type="line"/>
			<point x="684" y="718" type="line"/>
			<point x="51" y="718" type="line"/>
			<point x="51" y="0" type="line"/>
			<point x="154" y="0" type="line"/>
			<point x="154" y="184" type="line" smooth="yes"/>
			<point x="154" y="214"/>
			<point x="161" y="231"/>
			<point x="191" y="231" type="curve" smooth="yes"/>
			<point x="283" y="231" type="line" smooth="yes"/>
			<point x="313" y="231"/>
			<point x="320" y="214"/>
			<point x="320" y="184" type="curve" smooth="yes"/>
			<point x="320" y="0" type="line"/>
			<point x="684" y="0" type="line"/>
			<point x="684" y="205" type="line"/>
			<point x="581" y="205" type="line"/>
			<point x="581" y="127" type="line" smooth="yes"/>
			<point x="581" y="107"/>
			<point x="569" y="95"/>
			<point x="549" y="95" type="curve" smooth="yes"/>
			<point x="456" y="95" type="line" smooth="yes"/>
			<point x="436" y="95"/>
			<point x="424" y="107"/>
			<point x="424" y="127" type="curve" smooth="yes"/>
			<point x="424" y="275" type="line" smooth="yes"/>
			<point x="424" y="298"/>
			<point x="437" y="311"/>
			<point x="460" y="311" type="curve" smooth="yes"/>
			<point x="576" y="311" type="line"/>
			<point x="576" y="406" type="line"/>
			<point x="460" y="406" type="line" smooth="yes"/>
			<point x="437" y="406"/>
			<point x="424" y="419"/>
			<point x="424" y="442" type="curve" smooth="yes"/>
			<point x="424" y="591" type="line" smooth="yes"/>
			<point x="424" y="611"/>
			<point x="436" y="623"/>
			<point x="456" y="623" type="curve" smooth="yes"/>
			<point x="549" y="623" type="line" smooth="yes"/>
			<point x="569" y="623"/>
			<point x="581" y="615"/>
			<point x="581" y="591" type="curve" smooth="yes"/>
			<point x="581" y="513" type="line"/>
		</contour>
		<contour>
			<point x="320" y="373" type="line" smooth="yes"/>
			<point x="320" y="343"/>
			<point x="313" y="326"/>
			<point x="283" y="326" type="curve" smooth="yes"/>
			<point x="191" y="326" type="line" smooth="yes"/>
			<point x="161" y="326"/>
			<point x="154" y="343"/>
			<point x="154" y="373" type="curve" smooth="yes"/>
			<point x="154" y="568" type="line" smooth="yes"/>
			<point x="154" y="605"/>
			<point x="174" y="625"/>
			<point x="211" y="625" type="curve" smooth="yes"/>
			<point x="263" y="625" type="line" smooth="yes"/>
			<point x="300" y="625"/>
			<point x="320" y="605"/>
			<point x="320" y="568" type="curve" smooth="yes"/>
		</contour>
	</outline>
</glyph>
<glyph name="Igrave" format="2">
	<advance width="315"/>
	<unicode hex="00CC"/>
	<anchor x="158" y="0" name="bottom"/>
	<anchor x="243" y="0" name="ogonek"/>
	<anchor x="158" y="718" name="top"/>
	<anchor x="20" y="718" name="topleft"/>
	<outline>
		<contour>
			<point x="113" y="843" type="line" smooth="yes"/>
			<point x="113" y="798"/>
			<point x="146" y="766"/>
			<point x="191" y="766" type="curve" smooth="yes"/>
			<point x="203" y="766" type="line"/>
			<point x="203" y="923" type="line"/>
			<point x="113" y="923" type="line"/>
		</contour>
		<contour>
			<point x="209" y="591" type="line" smooth="yes"/>
			<point x="209" y="611"/>
			<point x="221" y="623"/>
			<point x="241" y="623" type="curve" smooth="yes"/>
			<point x="264" y="623" type="line"/>
			<point x="264" y="718" type="line"/>
			<point x="51" y="718" type="line"/>
			<point x="51" y="623" type="line"/>
			<point x="74" y="623" type="line" smooth="yes"/>
			<point x="94" y="623"/>
			<point x="106" y="611"/>
			<point x="106" y="591" type="curve" smooth="yes"/>
			<point x="106" y="127" type="line" smooth="yes"/>
			<point x="106" y="107"/>
			<point x="94" y="95"/>
			<point x="74" y="95" type="curve" smooth="yes"/>
			<point x="51" y="95" type="line"/>
			<point x="51" y="0" type="line"/>
			<point x="264" y="0" type="line"/>
			<point x="264" y="95" type="line"/>
			<point x="241" y="95" type="line" smooth="yes"/>
			<point x="221" y="95"/>
			<point x="209" y="107"/>
			<point x="209" y="127" type="curve" smooth="yes"/>
		</contour>
	</outline>
</glyph>
<glyph name="Eth" format="2">
	<advance width="556"/>
	<unicode hex="00D0"/>
	<outline>
		<contour>
			<point x="354" y="718" type="line"/>
			<point x="82" y="718" type="line"/>
			<point x="82" y="406" type="line"/>
			<point x="51" y="406" type="line"/>
			<point x="51" y="311" type="line"/>
			<point x="82" y="311" type="line"/>
			<point x="82" y="0" type="line"/>
			<point x="354" y="0" type="line"/>
			<point x="505" y="116" type="line"/>
			<point x="505" y="602" type="line"/>
		</contour>
		<contour>
			<point x="402" y="162" type="line"/>
			<point x="313" y="95" type="line"/>
			<point x="222" y="95" type="line" smooth="yes"/>
			<point x="192" y="95"/>
			<point x="185" y="112"/>
			<point x="185" y="142" type="curve" smooth="yes"/>
			<point x="185" y="311" type="line"/>
			<point x="290" y="311" type="line"/>
			<point x="290" y="406" type="line"/>
			<point x="185" y="406" type="line"/>
			<point x="185" y="576" type="line" smooth="yes"/>
			<point x="185" y="606"/>
			<point x="192" y="623"/>
			<point x="222" y="623" type="curve" smooth="yes"/>
			<point x="313" y="623" type="line"/>
			<point x="402" y="556" type="line"/>
		</contour>
	</outline>
</glyph>
<glyph name="multiply" format="2">
	<advance width="455"/>
	<unicode hex="00D7"/>
	<outline>
		<contour>
			<point x="97" y="556" type="line"/>
			<point x="30" y="489" type="line"/>
			<point x="357" y="162" type="line"/>
			<point x="424" y="229" type="line"/>
		</contour>
		<contour>
			<point x="31" y="231" type="line"/>
			<point x="98" y="163" type="line"/>
			<point x="425" y="490" type="line"/>
			<point x="357" y="557" type="line"/>
		</contour>
	</outline>
</glyph>
<glyph name="Oslash" format="2">
	<advance width="585"/>
	<unicode hex="00D8"/>
	<anchor x="291" y="0" name="bottom"/>
	<anchor x="291" y="359" name="center"/>
	<anchor x="375" y="0" name="ogonek"/>
	<anchor x="291" y="718" name="top"/>
	<anchor x="58" y="718" name="topleft"/>
	<anchor x="523" y="718" name="topright"/>
	<outline>
		<contour>
			<point x="534" y="718" type="line"/>
			<point x="89" y="718" type="line"/>
			<point x="89" y="72" type="line"/>
			<point x="51" y="0" type="line"/>
			<point x="492" y="0" type="line"/>
			<point x="492" y="638" type="line"/>
		</contour>
		<contour>
			<point x="192" y="591" type="line" smooth="yes"/>
			<point x="192" y="611"/>
			<point x="204" y="623"/>
			<point x="224" y="623" type="curve" smooth="yes"/>
			<point x="357" y="623" type="line" smooth="yes"/>
			<point x="364" y="623"/>
			<point x="371" y="621"/>
			<point x="376" y="618" type="curve"/>
			<point x="192" y="269" type="line"/>
		</contour>
		<contour>
			<point x="389" y="127" type="line" smooth="yes"/>
			<point x="389" y="107"/>
			<point x="377" y="95"/>
			<point x="357" y="95" type="curve" smooth="yes"/>
			<point x="224" y="95" type="line" smooth="yes"/>
			<point x="217" y="95"/>
			<point x="212" y="96"/>
			<point x="207" y="99" type="curve"/>
			<point x="389" y="443" type="line"/>
		</contour>
	</outline>
</glyph>
<glyph name="Ugrave" format="2">
	<advance width="505"/>
	<unicode hex="00D9"/>
	<anchor x="253" y="0" name="bottom"/>
	<anchor x="454" y="10" name="ogonek"/>
	<anchor x="253" y="718" name="top"/>
	<anchor x="485" y="718" name="topright"/>
	<outline>
		<contour>
			<point x="208" y="843" type="line" smooth="yes"/>
			<point x="208" y="798"/>
			<point x="241" y="766"/>
			<point x="286" y="766" type="curve" smooth="yes"/>
			<point x="298" y="766" type="line"/>
			<point x="298" y="923" type="line"/>
			<point x="208" y="923" type="line"/>
		</contour>
		<contour>
			<point x="154" y="718" type="line"/>
			<point x="51" y="718" type="line"/>
			<point x="51" y="0" type="line"/>
			<point x="454" y="0" type="line"/>
			<point x="454" y="718" type="line"/>
			<point x="351" y="718" type="line"/>
			<point x="351" y="127" type="line" smooth="yes"/>
			<point x="351" y="107"/>
			<point x="339" y="95"/>
			<point x="319" y="95" type="curve" smooth="yes"/>
			<point x="186" y="95" type="line" smooth="yes"/>
			<point x="166" y="95"/>
			<point x="154" y="107"/>
			<point x="154" y="127" type="curve" smooth="yes"/>
		</contour>
	</outline>
</glyph>
<glyph name="Thorn" format="2">
	<advance width="560"/>
	<unicode hex="00DE"/>
	<anchor x="158" y="0" name="bottom"/>
	<anchor x="243" y="0" name="ogonek"/>
	<anchor x="158" y="718" name="top"/>
	<anchor x="20" y="718" name="topleft"/>
	<outline>
		<contour>
			<point x="246" y="189" type="curve" smooth="yes"/>
			<point x="509" y="189" type="line"/>
			<point x="509" y="556" type="line"/>
			<point x="209" y="556" type="line"/>
			<point x="209" y="591" type="line" smooth="yes"/>
			<point x="209" y="611"/>
			<point x="221" y="623"/>
			<point x="241" y="623" type="curve" smooth="yes"/>
			<point x="264" y="623" type="line"/>
			<point x="264" y="718" type="line"/>
			<point x="51" y="718" type="line"/>
			<point x="51" y="623" type="line"/>
			<point x="74" y="623" type="line" smooth="yes"/>
			<point x="94" y="623"/>
			<point x="106" y="611"/>
			<point x="106" y="591" type="curve" smooth="yes"/>
			<point x="106" y="127" type="line" smooth="yes"/>
			<point x="106" y="107"/>
			<point x="94" y="95"/>
			<point x="74" y="95" type="curve" smooth="yes"/>
			<point x="51" y="95" type="line"/>
			<point x="51" y="0" type="line"/>
			<point x="264" y="0" type="line"/>
			<point x="264" y="95" type="line"/>
			<point x="241" y="95" type="line" smooth="yes"/>
			<point x="221" y="95"/>
			<point x="209" y="107"/>
			<point x="209" y="127" type="curve" smooth="yes"/>
			<point x="209" y="142" type="line" smooth="yes"/>
			<point x="209" y="172"/>
			<point x="216" y="189"/>
		</contour>
		<contour>
			<point x="266" y="463" type="curve" smooth="yes"/>
			<point x="406" y="463" type="line"/>
			<point x="406" y="284" type="line"/>
			<point x="246" y="284" type="line" smooth="yes"/>
			<point x="216" y="284"/>
			<point x="209" y="301"/>
			<point x="209" y="331" type="curve" smooth="yes"/>
			<point x="209" y="406" type="line" smooth="yes"/>
			<point x="209" y="443"/>
			<point x="229" y="463"/>
		</contour>
	</outline>
</glyph>
<glyph name="germandbls" format="2">
	<advance width="604"/>
	<unicode hex="00DF"/>
	<anchor x="223" y="0" name="bottom"/>
	<anchor x="223" y="718" name="top"/>
	<outline>
		<contour>
			<point x="505" y="650" type="line"/>
			<point x="133" y="650" type="line"/>
			<point x="133" y="487" type="line"/>
			<point x="51" y="487" type="line"/>
			<point x="51" y="397" type="line"/>
			<point x="133" y="397" type="line"/>
			<point x="133" y="122" type="line" smooth="yes"/>
			<point x="133" y="102"/>
			<point x="121" y="90"/>
			<point x="101" y="90" type="curve" smooth="yes"/>
			<point x="78" y="90" type="line"/>
			<point x="78" y="0" type="line"/>
			<point x="233" y="0" type="line"/>
			<point x="233" y="397" type="line"/>
			<point x="233" y="487" type="line"/>
			<point x="233" y="528" type="line" smooth="yes"/>
			<point x="233" y="548"/>
			<point x="246" y="560"/>
			<point x="265" y="560" type="curve" smooth="yes"/>
			<point x="455" y="560" type="line"/>
		</contour>
		<contour>
			<point x="537" y="650" type="line"/>
			<point x="441" y="650" type="line"/>
			<point x="290" y="429" type="line"/>
			<point x="290" y="300" type="line"/>
			<point x="427" y="300" type="line" smooth="yes"/>
			<point x="444" y="300"/>
			<point x="453" y="291"/>
			<point x="453" y="274" type="curve" smooth="yes"/>
			<point x="453" y="122" type="line" smooth="yes"/>
			<point x="453" y="102"/>
			<point x="441" y="90"/>
			<point x="421" y="90" type="curve" smooth="yes"/>
			<point x="418" y="90" type="line" smooth="yes"/>
			<point x="398" y="90"/>
			<point x="386" y="102"/>
			<point x="386" y="122" type="curve" smooth="yes"/>
			<point x="386" y="133" type="line"/>
			<point x="286" y="133" type="line"/>
			<point x="286" y="0" type="line"/>
			<point x="424" y="0" type="line"/>
			<point x="553" y="0" type="line"/>
			<point x="553" y="390" type="line"/>
			<point x="421" y="390" type="line" smooth="yes"/>
			<point x="385" y="390"/>
			<point x="381" y="412"/>
			<point x="399" y="440" type="curve" smooth="yes"/>
		</contour>
	</outline>
</glyph>
<glyph name="agrave" format="2">
	<advance width="509"/>
	<unicode hex="00E0"/>
	<anchor x="192" y="0" name="bottom"/>
	<anchor x="462" y="0" name="ogonek"/>
	<anchor x="264" y="487" name="top"/>
	<outline>
		<contour>
			<point x="219" y="612" type="line" smooth="yes"/>
			<point x="219" y="567"/>
			<point x="252" y="535"/>
			<point x="297" y="535" type="curve" smooth="yes"/>
			<point x="309" y="535" type="line"/>
			<point x="309" y="692" type="line"/>
			<point x="219" y="692" type="line"/>
		</contour>
		<contour>
			<point x="51" y="487" type="line"/>
			<point x="51" y="347" type="line"/>
			<point x="151" y="347" type="line"/>
			<point x="151" y="365" type="line" smooth="yes"/>
			<point x="151" y="385"/>
			<point x="163" y="397"/>
			<point x="183" y="397" type="curve" smooth="yes"/>
			<point x="326" y="397" type="line" smooth="yes"/>
			<point x="346" y="397"/>
			<point x="358" y="385"/>
			<point x="358" y="365" type="curve" smooth="yes"/>
			<point x="358" y="287" type="line"/>
			<point x="51" y="287" type="line"/>
			<point x="51" y="0" type="line"/>
			<point x="264" y="0" type="line"/>
			<point x="358" y="59" type="line"/>
			<point x="358" y="0" type="line"/>
			<point x="458" y="0" type="line"/>
			<point x="458" y="487" type="line"/>
		</contour>
		<contour>
			<point x="231" y="92" type="line"/>
			<point x="188" y="92" type="line" smooth="yes"/>
			<point x="158" y="92"/>
			<point x="151" y="109"/>
			<point x="151" y="139" type="curve" smooth="yes"/>
			<point x="151" y="148" type="line" smooth="yes"/>
			<point x="151" y="178"/>
			<point x="158" y="197"/>
			<point x="188" y="197" type="curve" smooth="yes"/>
			<point x="358" y="197" type="line"/>
			<point x="358" y="174" type="line"/>
		</contour>
	</outline>
</glyph>
<glyph name="egrave" format="2">
	<advance width="509"/>
	<unicode hex="00E8"/>
	<anchor x="253" y="0" name="bottom"/>
	<anchor x="458" y="0" name="ogonek"/>
	<anchor x="253" y="487" name="top"/>
	<outline>
		<contour>
			<point x="208" y="612" type="line" smooth="yes"/>
			<point x="208" y="567"/>
			<point x="241" y="535"/>
			<point x="286" y="535" type="curve" smooth="yes"/>
			<point x="298" y="535" type="line"/>
			<point x="298" y="692" type="line"/>
			<point x="208" y="692" type="line"/>
		</contour>
		<contour>
			<point x="458" y="194" type="line"/>
			<point x="458" y="487" type="line"/>
			<point x="51" y="487" type="line"/>
			<point x="51" y="0" type="line"/>
			<point x="458" y="0" type="line"/>
			<point x="458" y="140" type="line"/>
			<point x="358" y="140" type="line"/>
			<point x="358" y="122" type="line" smooth="yes"/>
			<point x="358" y="102"/>
			<point x="346" y="90"/>
			<point x="326" y="90" type="curve" smooth="yes"/>
			<point x="183" y="90" type="line" smooth="yes"/>
			<point x="163" y="90"/>
			<point x="151" y="102"/>
			<point x="151" y="122" type="curve" smooth="yes"/>
			<point x="151" y="194" type="line"/>
		</contour>
		<contour>
			<point x="177" y="395" type="curve" smooth="yes"/>
			<point x="358" y="395" type="line"/>
			<point x="358" y="333" type="line" smooth="yes"/>
			<point x="358" y="303"/>
			<point x="351" y="284"/>
			<point x="321" y="284" type="curve" smooth="yes"/>
			<point x="176" y="284" type="line" smooth="yes"/>
			<point x="162" y="284"/>
			<point x="151" y="296"/>
			<point x="151" y="310" type="curve" smooth="yes"/>
			<point x="151" y="370" type="line" smooth="yes"/>
			<point x="151" y="384"/>
			<point x="163" y="395"/>
		</contour>
	</outline>
</glyph>
<glyph name="eth" format="2">
	<advance width="504"/>
	<unicode hex="00F0"/>
	<anchor x="404" y="650" name="top"/>
	<outline>
		<contour>
			<point x="353" y="510" type="line"/>
			<point x="353" y="427" type="line"/>
			<point x="51" y="427" type="line"/>
			<point x="51" y="0" type="line"/>
			<point x="453" y="0" type="line"/>
			<point x="453" y="510" type="line"/>
		</contour>
		<contour>
			<point x="353" y="137" type="line" smooth="yes"/>
			<point x="353" y="107"/>
			<point x="346" y="90"/>
			<point x="316" y="90" type="curve" smooth="yes"/>
			<point x="188" y="90" type="line" smooth="yes"/>
			<point x="158" y="90"/>
			<point x="151" y="107"/>
			<point x="151" y="137" type="curve" smooth="yes"/>
			<point x="151" y="280" type="line" smooth="yes"/>
			<point x="151" y="317"/>
			<point x="171" y="337"/>
			<point x="208" y="337" type="curve" smooth="yes"/>
			<point x="296" y="337" type="line" smooth="yes"/>
			<point x="333" y="337"/>
			<point x="353" y="317"/>
			<point x="353" y="280" type="curve" smooth="yes"/>
		</contour>
		<contour>
			<point x="124" y="741" type="line"/>
			<point x="70" y="659" type="line"/>
			<point x="353" y="481" type="line"/>
			<point x="353" y="450" type="line"/>
			<point x="453" y="450" type="line"/>
			<point x="453" y="573" type="line"/>
			<point x="505" y="502" type="line"/>
		</contour>
		<contour>
			<point x="92" y="544" type="line"/>
			<point x="134" y="470" type="line"/>
			<point x="417" y="648" type="line"/>
			<point x="373" y="720" type="line"/>
		</contour>
	</outline>
</glyph>
<glyph name="divide" format="2">
	<advance width="542"/>
	<unicode hex="00F7"/>
	<outline>
		<contour>
			<point x="50" y="406" type="line"/>
			<point x="50" y="311" type="line"/>
			<point x="492" y="311" type="line"/>
			<point x="492" y="406" type="line"/>
		</contour>
		<component base="colon" xOffset="173"/>
	</outline>
</glyph>
<glyph name="oslash" format="2">
	<advance width="504"/>
	<unicode hex="00F8"/>
	<outline>
		<contour>
			<point x="431" y="486" type="line"/>
			<point x="336" y="486" type="line"/>
			<point x="74" y="0" type="line"/>
			<point x="168" y="0" type="line"/>
		</contour>
		<component base="o"/>
	</outline>
</glyph>
<glyph name="dcaron" format="2">
	<advance width="534"/>
	<unicode hex="010F"/>
	<anchor x="523" y="445" name="_top"/>
	<outline>
		<contour>
			<point x="565" y="570" type="curve" smooth="yes"/>
			<point x="565" y="650" type="line"/>
			<point x="486" y="650" type="line"/>
			<point x="486" y="493" type="line"/>
			<point x="487" y="493" type="line" smooth="yes"/>
			<point x="532" y="493"/>
			<point x="565" y="525"/>
		</contour>
		<component base="d"/>
	</outline>
</glyph>
<glyph name="Hbar" format="2">
	<advance width="602"/>
	<unicode hex="0126"/>
	<anchor x="301" y="0" name="bottom"/>
	<anchor x="301" y="359" name="center"/>
	<anchor x="301" y="718" name="top"/>
	<anchor x="544" y="718" name="topleft"/>
	<outline>
		<contour>
			<point x="551" y="578" type="line"/>
			<point x="513" y="578" type="line"/>
			<point x="513" y="718" type="line"/>
			<point x="410" y="718" type="line"/>
			<point x="410" y="578" type="line"/>
			<point x="193" y="578" type="line"/>
			<point x="193" y="582" type="line"/>
			<point x="197" y="610"/>
			<point x="217" y="625"/>
			<point x="249" y="625" type="curve" smooth="yes"/>
			<point x="275" y="625" type="line"/>
			<point x="275" y="718" type="line"/>
			<point x="89" y="718" type="line"/>
			<point x="90" y="717" type="line"/>
			<point x="90" y="578" type="line"/>
			<point x="51" y="578" type="line"/>
			<point x="51" y="483" type="line"/>
			<point x="90" y="483" type="line"/>
			<point x="90" y="0" type="line"/>
			<point x="193" y="0" type="line"/>
			<point x="193" y="266" type="line" smooth="yes"/>
			<point x="193" y="296"/>
			<point x="200" y="313"/>
			<point x="230" y="313" type="curve" smooth="yes"/>
			<point x="373" y="313" type="line" smooth="yes"/>
			<point x="403" y="313"/>
			<point x="410" y="296"/>
			<point x="410" y="266" type="curve" smooth="yes"/>
			<point x="410" y="150" type="line" smooth="yes"/>
			<point x="410" y="113"/>
			<point x="390" y="93"/>
			<point x="353" y="93" type="curve" smooth="yes"/>
			<point x="327" y="93" type="line"/>
			<point x="327" y="0" type="line"/>
			<point x="513" y="0" type="line"/>
			<point x="513" y="483" type="line"/>
			<point x="551" y="483" type="line"/>
		</contour>
		<contour>
			<point x="410" y="455" type="line" smooth="yes"/>
			<point x="410" y="425"/>
			<point x="403" y="408"/>
			<point x="373" y="408" type="curve" smooth="yes"/>
			<point x="230" y="408" type="line" smooth="yes"/>
			<point x="200" y="408"/>
			<point x="193" y="425"/>
			<point x="193" y="455" type="curve" smooth="yes"/>
			<point x="193" y="483" type="line"/>
			<point x="410" y="483" type="line"/>
		</contour>
	</outline>
</glyph>
<glyph name="hbar" format="2">
	<advance width="509"/>
	<unicode hex="0127"/>
	<outline>
		<contour>
			<point x="51" y="610" type="line"/>
			<point x="7" y="610" type="line"/>
			<point x="7" y="525" type="line"/>
			<point x="51" y="525" type="line"/>
		</contour>
		<contour>
			<point x="151" y="525" type="line"/>
			<point x="307" y="525" type="line"/>
			<point x="307" y="610" type="line"/>
			<point x="151" y="610" type="line"/>
		</contour>
		<component base="h"/>
	</outline>
</glyph>
<glyph name="idotless" format="2">
	<advance width="312"/>
	<unicode hex="0131"/>
	<anchor x="156" y="0" name="bottom"/>
	<anchor x="240" y="0" name="ogonek"/>
	<anchor x="156" y="487" name="top"/>
	<outline>
		<contour>
			<point x="206" y="365" type="line" smooth="yes"/>
			<point x="206" y="385"/>
			<point x="218" y="397"/>
			<point x="238" y="397" type="curve" smooth="yes"/>
			<point x="261" y="397" type="line"/>
			<point x="261" y="487" type="line"/>
			<point x="51" y="487" type="line"/>
			<point x="51" y="397" type="line"/>
			<point x="74" y="397" type="line" smooth="yes"/>
			<point x="94" y="397"/>
			<point x="106" y="385"/>
			<point x="106" y="365" type="curve" smooth="yes"/>
			<point x="106" y="122" type="line" smooth="yes"/>
			<point x="106" y="102"/>
			<point x="94" y="90"/>
			<point x="74" y="90" type="curve" smooth="yes"/>
			<point x="51" y="90" type="line"/>
			<point x="51" y="0" type="line"/>
			<point x="261" y="0" type="line"/>
			<point x="261" y="90" type="line"/>
			<point x="238" y="90" type="line" smooth="yes"/>
			<point x="218" y="90"/>
			<point x="206" y="102"/>
			<point x="206" y="122" type="curve" smooth="yes"/>
		</contour>
	</outline>
</glyph>
<glyph name="Lslash" format="2">
	<advance width="505"/>
	<unicode hex="0141"/>
	<anchor x="253" y="0" name="bottom"/>
	<anchor x="253" y="250" name="center"/>
	<anchor x="253" y="500" name="top"/>
	<anchor x="485" y="500" name="topright"/>
	<outline>
		<contour>
			<point x="351" y="225" type="line"/>
			<point x="351" y="127" type="line" smooth="yes"/>
			<point x="351" y="107"/>
			<point x="339" y="95"/>
			<point x="319" y="95" type="curve" smooth="yes"/>
			<point x="186" y="95" type="line" smooth="yes"/>
			<point x="166" y="95"/>
			<point x="154" y="107"/>
			<point x="154" y="127" type="curve" smooth="yes"/>
			<point x="154" y="259" type="line"/>
			<point x="420" y="464" type="line"/>
			<point x="364" y="545" type="line"/>
			<point x="154" y="383" type="line"/>
			<point x="154" y="591" type="line" smooth="yes"/>
			<point x="154" y="611"/>
			<point x="166" y="623"/>
			<point x="186" y="623" type="curve" smooth="yes"/>
			<point x="239" y="623" type="line"/>
			<point x="239" y="718" type="line"/>
			<point x="51" y="718" type="line"/>
			<point x="51" y="0" type="line"/>
			<point x="454" y="0" type="line"/>
			<point x="454" y="225" type="line"/>
		</contour>
	</outline>
</glyph>
<glyph name="lslash" format="2">
	<advance width="404"/>
	<unicode hex="0142"/>
	<anchor x="231" y="0" name="bottom"/>
	<anchor x="231" y="250" name="center"/>
	<anchor x="231" y="500" name="top"/>
	<anchor x="463" y="500" name="topright"/>
	<outline>
		<contour>
			<point x="51" y="209" type="line"/>
			<point x="51" y="86" type="line"/>
			<point x="353" y="368" type="line"/>
			<point x="353" y="491" type="line"/>
		</contour>
		<component base="l" xOffset="78"/>
	</outline>
</glyph>
<glyph name="Eng" format="2">
	<advance width="549"/>
	<unicode hex="014A"/>
	<anchor x="277" y="0" name="bottom"/>
	<anchor x="277" y="718" name="top"/>
	<outline>
		<contour>
			<point x="316" y="718" type="line"/>
			<point x="316" y="625" type="line"/>
			<point x="338" y="625" type="line" smooth="yes"/>
			<point x="375" y="625"/>
			<point x="395" y="605"/>
			<point x="395" y="568" type="curve" smooth="yes"/>
			<point x="395" y="224" type="line"/>
			<point x="154" y="718" type="line"/>
			<point x="51" y="718" type="line"/>
			<point x="51" y="0" type="line"/>
			<point x="233" y="0" type="line"/>
			<point x="233" y="93" type="line"/>
			<point x="211" y="93" type="line" smooth="yes"/>
			<point x="174" y="93"/>
			<point x="154" y="113"/>
			<point x="154" y="150" type="curve" smooth="yes"/>
			<point x="154" y="492" type="line"/>
			<point x="393" y="3" type="line"/>
			<point x="388" y="-23"/>
			<point x="369" y="-37"/>
			<point x="338" y="-37" type="curve" smooth="yes"/>
			<point x="316" y="-37" type="line"/>
			<point x="316" y="-130" type="line"/>
			<point x="498" y="-130" type="line"/>
			<point x="498" y="718" type="line"/>
		</contour>
	</outline>
</glyph>
<glyph name="OE" format="2">
	<advance width="735"/>
	<unicode hex="0152"/>
	<anchor x="223" y="359" name="center"/>
	<outline>
		<contour>
			<point x="684" y="513" type="line"/>
			<point x="684" y="718" type="line"/>
			<point x="51" y="718" type="line"/>
			<point x="51" y="0" type="line"/>
			<point x="684" y="0" type="line"/>
			<point x="684" y="205" type="line"/>
			<point x="581" y="205" type="line"/>
			<point x="581" y="127" type="line" smooth="yes"/>
			<point x="581" y="107"/>
			<point x="569" y="95"/>
			<point x="549" y="95" type="curve" smooth="yes"/>
			<point x="456" y="95" type="line" smooth="yes"/>
			<point x="436" y="95"/>
			<point x="424" y="107"/>
			<point x="424" y="127" type="curve" smooth="yes"/>
			<point x="424" y="275" type="line" smooth="yes"/>
			<point x="424" y="298"/>
			<point x="437" y="311"/>
			<point x="460" y="311" type="curve" smooth="yes"/>
			<point x="576" y="311" type="line"/>
			<point x="576" y="406" type="line"/>
			<point x="460" y="406" type="line" smooth="yes"/>
			<point x="437" y="406"/>
			<point x="424" y="419"/>
			<point x="424" y="442" type="curve" smooth="yes"/>
			<point x="424" y="591" type="line" smooth="yes"/>
			<point x="424" y="611"/>
			<point x="436" y="623"/>
			<point x="456" y="623" type="curve" smooth="yes"/>
			<point x="549" y="623" type="line" smooth="yes"/>
			<point x="569" y="623"/>
			<point x="581" y="615"/>
			<point x="581" y="591" type="curve" smooth="yes"/>
			<point x="581" y="513" type="line"/>
		</contour>
		<contour>
			<point x="321" y="127" type="line" smooth="yes"/>
			<point x="321" y="107"/>
			<point x="309" y="95"/>
			<point x="289" y="95" type="curve" smooth="yes"/>
			<point x="186" y="95" type="line" smooth="yes"/>
			<point x="166" y="95"/>
			<point x="154" y="107"/>
			<point x="154" y="127" type="curve" smooth="yes"/>
			<point x="154" y="591" type="line" smooth="yes"/>
			<point x="154" y="611"/>
			<point x="166" y="623"/>
			<point x="186" y="623" type="curve" smooth="yes"/>
			<point x="289" y="623" type="line" smooth="yes"/>
			<point x="309" y="623"/>
			<point x="321" y="611"/>
			<point x="321" y="591" type="curve" smooth="yes"/>
		</contour>
	</outline>
</glyph>
<glyph name="tcaron" format="2">
	<advance width="486"/>
	<unicode hex="0165"/>
	<outline>
		<contour>
			<point x="372" y="590" type="curve" smooth="yes"/>
			<point x="372" y="650" type="line"/>
			<point x="293" y="650" type="line"/>
			<point x="293" y="513" type="line"/>
			<point x="294" y="513" type="line" smooth="yes"/>
			<point x="339" y="513"/>
			<point x="372" y="545"/>
		</contour>
		<component base="t"/>
	</outline>
</glyph>
<glyph name="Tbar" format="2">
	<advance width="585"/>
	<unicode hex="0166"/>
	<anchor x="293" y="0" name="bottom"/>
	<anchor x="293" y="359" name="center"/>
	<anchor x="293" y="718" name="top"/>
	<outline>
		<contour>
			<point x="534" y="362" type="line"/>
			<point x="534" y="718" type="line"/>
			<point x="51" y="718" type="line"/>
			<point x="51" y="362" type="line"/>
			<point x="153" y="362" type="line"/>
			<point x="153" y="591" type="line" smooth="yes"/>
			<point x="153" y="611"/>
			<point x="165" y="623"/>
			<point x="185" y="623" type="curve" smooth="yes"/>
			<point x="209" y="623" type="line" smooth="yes"/>
			<point x="229" y="623"/>
			<point x="241" y="611"/>
			<point x="241" y="591" type="curve" smooth="yes"/>
			<point x="241" y="286" type="line"/>
			<point x="102" y="286" type="line"/>
			<point x="102" y="191" type="line"/>
			<point x="241" y="191" type="line"/>
			<point x="241" y="95" type="line"/>
			<point x="91" y="95" type="line"/>
			<point x="91" y="0" type="line"/>
			<point x="493" y="0" type="line"/>
			<point x="493" y="95" type="line"/>
			<point x="344" y="95" type="line"/>
			<point x="344" y="191" type="line"/>
			<point x="482" y="191" type="line"/>
			<point x="482" y="286" type="line"/>
			<point x="344" y="286" type="line"/>
			<point x="344" y="591" type="line" smooth="yes"/>
			<point x="344" y="611"/>
			<point x="356" y="623"/>
			<point x="376" y="623" type="curve" smooth="yes"/>
			<point x="400" y="623" type="line" smooth="yes"/>
			<point x="420" y="623"/>
			<point x="432" y="611"/>
			<point x="432" y="591" type="curve" smooth="yes"/>
			<point x="432" y="362" type="line"/>
		</contour>
	</outline>
</glyph>
<glyph name="tbar" format="2">
	<advance width="486"/>
	<unicode hex="0167"/>
	<outline>
		<contour>
			<point x="375" y="316" type="line"/>
			<point x="75" y="316" type="line"/>
			<point x="75" y="231" type="line"/>
			<point x="375" y="231" type="line"/>
		</contour>
		<component base="t"/>
	</outline>
</glyph>
<glyph name="Schwa" format="2">
	<advance width="505"/>
	<unicode hex="018F"/>
	<outline>
		<contour>
			<point x="454" y="718" type="line"/>
			<point x="51" y="718" type="line"/>
			<point x="51" y="543" type="line"/>
			<point x="154" y="543" type="line"/>
			<point x="154" y="591" type="line" smooth="yes"/>
			<point x="154" y="611"/>
			<point x="166" y="623"/>
			<point x="186" y="623" type="curve" smooth="yes"/>
			<point x="351" y="623" type="line"/>
			<point x="351" y="463" type="line" smooth="yes"/>
			<point x="351" y="440"/>
			<point x="338" y="427"/>
			<point x="315" y="427" type="curve" smooth="yes"/>
			<point x="51" y="427" type="line"/>
			<point x="51" y="0" type="line"/>
			<point x="454" y="0" type="line"/>
		</contour>
		<contour>
			<point x="351" y="127" type="line" smooth="yes"/>
			<point x="351" y="107"/>
			<point x="339" y="95"/>
			<point x="319" y="95" type="curve" smooth="yes"/>
			<point x="186" y="95" type="line" smooth="yes"/>
			<point x="166" y="95"/>
			<point x="154" y="103"/>
			<point x="154" y="127" type="curve" smooth="yes"/>
			<point x="154" y="332" type="line"/>
			<point x="315" y="332" type="line" smooth="yes"/>
			<point x="338" y="332"/>
			<point x="351" y="319"/>
			<point x="351" y="296" type="curve" smooth="yes"/>
		</contour>
	</outline>
</glyph>
<glyph name="Adblgrave" format="2">
	<advance width="504"/>
	<unicode hex="0200"/>
	<anchor x="252" y="0" name="bottom"/>
	<anchor x="454" y="10" name="ogonek"/>
	<anchor x="252" y="718" name="top"/>
	<outline>
		<contour>
			<point x="139" y="836" type="line" smooth="yes"/>
			<point x="145" y="791"/>
			<point x="172" y="759"/>
			<point x="217" y="759" type="curve" smooth="yes"/>
			<point x="243" y="759" type="line"/>
			<point x="223" y="923" type="line"/>
			<point x="128" y="923" type="line"/>
		</contour>
		<contour>
			<point x="269" y="836" type="line" smooth="yes"/>
			<point x="275" y="791"/>
			<point x="302" y="759"/>
			<point x="347" y="759" type="curve" smooth="yes"/>
			<point x="373" y="759" type="line"/>
			<point x="353" y="923" type="line"/>
			<point x="258" y="923" type="line"/>
		</contour>
		<contour>
			<point x="453" y="718" type="line"/>
			<point x="51" y="718" type="line"/>
			<point x="51" y="0" type="line"/>
			<point x="154" y="0" type="line"/>
			<point x="154" y="184" type="line" smooth="yes"/>
			<point x="154" y="214"/>
			<point x="161" y="231"/>
			<point x="191" y="231" type="curve" smooth="yes"/>
			<point x="313" y="231" type="line" smooth="yes"/>
			<point x="343" y="231"/>
			<point x="350" y="214"/>
			<point x="350" y="184" type="curve" smooth="yes"/>
			<point x="350" y="0" type="line"/>
			<point x="453" y="0" type="line"/>
		</contour>
		<contour>
			<point x="350" y="373" type="line" smooth="yes"/>
			<point x="350" y="343"/>
			<point x="343" y="326"/>
			<point x="313" y="326" type="curve" smooth="yes"/>
			<point x="191" y="326" type="line" smooth="yes"/>
			<point x="161" y="326"/>
			<point x="154" y="343"/>
			<point x="154" y="373" type="curve" smooth="yes"/>
			<point x="154" y="568" type="line" smooth="yes"/>
			<point x="154" y="605"/>
			<point x="174" y="625"/>
			<point x="211" y="625" type="curve" smooth="yes"/>
			<point x="293" y="625" type="line" smooth="yes"/>
			<point x="330" y="625"/>
			<point x="350" y="605"/>
			<point x="350" y="568" type="curve" smooth="yes"/>
		</contour>
	</outline>
</glyph>
<glyph name="adblgrave" format="2">
	<advance width="509"/>
	<unicode hex="0201"/>
	<anchor x="192" y="0" name="bottom"/>
	<anchor x="462" y="0" name="ogonek"/>
	<anchor x="264" y="487" name="top"/>
	<outline>
		<contour>
			<point x="151" y="605" type="line" smooth="yes"/>
			<point x="157" y="560"/>
			<point x="184" y="528"/>
			<point x="229" y="528" type="curve" smooth="yes"/>
			<point x="255" y="528" type="line"/>
			<point x="235" y="692" type="line"/>
			<point x="140" y="692" type="line"/>
		</contour>
		<contour>
			<point x="281" y="605" type="line" smooth="yes"/>
			<point x="287" y="560"/>
			<point x="314" y="528"/>
			<point x="359" y="528" type="curve" smooth="yes"/>
			<point x="385" y="528" type="line"/>
			<point x="365" y="692" type="line"/>
			<point x="270" y="692" type="line"/>
		</contour>
		<contour>
			<point x="51" y="487" type="line"/>
			<point x="51" y="347" type="line"/>
			<point x="151" y="347" type="line"/>
			<point x="151" y="365" type="line" smooth="yes"/>
			<point x="151" y="385"/>
			<point x="163" y="397"/>
			<point x="183" y="397" type="curve" smooth="yes"/>
			<point x="326" y="397" type="line" smooth="yes"/>
			<point x="346" y="397"/>
			<point x="358" y="385"/>
			<point x="358" y="365" type="curve" smooth="yes"/>
			<point x="358" y="287" type="line"/>
			<point x="51" y="287" type="line"/>
			<point x="51" y="0" type="line"/>
			<point x="264" y="0" type="line"/>
			<point x="358" y="59" type="line"/>
			<point x="358" y="0" type="line"/>
			<point x="458" y="0" type="line"/>
			<point x="458" y="487" type="line"/>
		</contour>
		<contour>
			<point x="231" y="92" type="line"/>
			<point x="188" y="92" type="line" smooth="yes"/>
			<point x="158" y="92"/>
			<point x="151" y="109"/>
			<point x="151" y="139" type="curve" smooth="yes"/>
			<point x="151" y="148" type="line" smooth="yes"/>
			<point x="151" y="178"/>
			<point x="158" y="197"/>
			<point x="188" y="197" type="curve" smooth="yes"/>
			<point x="358" y="197" type="line"/>
			<point x="358" y="174" type="line"/>
		</contour>
	</outline>
</glyph>
<glyph name="Edblgrave" format="2">
	<advance width="505"/>
	<unicode hex="0204"/>
	<anchor x="253" y="0" name="bottom"/>
	<anchor x="454" y="10" name="ogonek"/>
	<anchor x="253" y="718" name="top"/>
	<anchor x="20" y="718" name="topleft"/>
	<outline>
		<contour>
			<point x="140" y="836" type="line" smooth="yes"/>
			<point x="146" y="791"/>
			<point x="173" y="759"/>
			<point x="218" y="759" type="curve" smooth="yes"/>
			<point x="244" y="759" type="line"/>
			<point x="224" y="923" type="line"/>
			<point x="129" y="923" type="line"/>
		</contour>
		<contour>
			<point x="270" y="836" type="line" smooth="yes"/>
			<point x="276" y="791"/>
			<point x="303" y="759"/>
			<point x="348" y="759" type="curve" smooth="yes"/>
			<point x="374" y="759" type="line"/>
			<point x="354" y="923" type="line"/>
			<point x="259" y="923" type="line"/>
		</contour>
		<contour>
			<point x="454" y="513" type="line"/>
			<point x="454" y="718" type="line"/>
			<point x="51" y="718" type="line"/>
			<point x="51" y="0" type="line"/>
			<point x="454" y="0" type="line"/>
			<point x="454" y="205" type="line"/>
			<point x="351" y="205" type="line"/>
			<point x="351" y="127" type="line" smooth="yes"/>
			<point x="351" y="107"/>
			<point x="339" y="95"/>
			<point x="319" y="95" type="curve" smooth="yes"/>
			<point x="186" y="95" type="line" smooth="yes"/>
			<point x="166" y="95"/>
			<point x="154" y="107"/>
			<point x="154" y="127" type="curve" smooth="yes"/>
			<point x="154" y="275" type="line" smooth="yes"/>
			<point x="154" y="298"/>
			<point x="167" y="311"/>
			<point x="190" y="311" type="curve" smooth="yes"/>
			<point x="346" y="311" type="line"/>
			<point x="346" y="406" type="line"/>
			<point x="190" y="406" type="line" smooth="yes"/>
			<point x="167" y="406"/>
			<point x="154" y="419"/>
			<point x="154" y="442" type="curve" smooth="yes"/>
			<point x="154" y="591" type="line" smooth="yes"/>
			<point x="154" y="611"/>
			<point x="166" y="623"/>
			<point x="186" y="623" type="curve" smooth="yes"/>
			<point x="319" y="623" type="line" smooth="yes"/>
			<point x="339" y="623"/>
			<point x="351" y="615"/>
			<point x="351" y="591" type="curve" smooth="yes"/>
			<point x="351" y="513" type="line"/>
		</contour>
	</outline>
</glyph>
<glyph name="edblgrave" format="2">
	<advance width="509"/>
	<unicode hex="0205"/>
	<anchor x="253" y="0" name="bottom"/>
	<anchor x="458" y="0" name="ogonek"/>
	<anchor x="253" y="487" name="top"/>
	<outline>
		<contour>
			<point x="140" y="605" type="line" smooth="yes"/>
			<point x="146" y="560"/>
			<point x="173" y="528"/>
			<point x="218" y="528" type="curve" smooth="yes"/>
			<point x="244" y="528" type="line"/>
			<point x="224" y="692" type="line"/>
			<point x="129" y="692" type="line"/>
		</contour>
		<contour>
			<point x="270" y="605" type="line" smooth="yes"/>
			<point x="276" y="560"/>
			<point x="303" y="528"/>
			<point x="348" y="528" type="curve" smooth="yes"/>
			<point x="374" y="528" type="line"/>
			<point x="354" y="692" type="line"/>
			<point x="259" y="692" type="line"/>
		</contour>
		<contour>
			<point x="458" y="194" type="line"/>
			<point x="458" y="487" type="line"/>
			<point x="51" y="487" type="line"/>
			<point x="51" y="0" type="line"/>
			<point x="458" y="0" type="line"/>
			<point x="458" y="140" type="line"/>
			<point x="358" y="140" type="line"/>
			<point x="358" y="122" type="line" smooth="yes"/>
			<point x="358" y="102"/>
			<point x="346" y="90"/>
			<point x="326" y="90" type="curve" smooth="yes"/>
			<point x="183" y="90" type="line" smooth="yes"/>
			<point x="163" y="90"/>
			<point x="151" y="102"/>
			<point x="151" y="122" type="curve" smooth="yes"/>
			<point x="151" y="194" type="line"/>
		</contour>
		<contour>
			<point x="177" y="395" type="curve" smooth="yes"/>
			<point x="358" y="395" type="line"/>
			<point x="358" y="333" type="line" smooth="yes"/>
			<point x="358" y="303"/>
			<point x="351" y="284"/>
			<point x="321" y="284" type="curve" smooth="yes"/>
			<point x="176" y="284" type="line" smooth="yes"/>
			<point x="162" y="284"/>
			<point x="151" y="296"/>
			<point x="151" y="310" type="curve" smooth="yes"/>
			<point x="151" y="370" type="line" smooth="yes"/>
			<point x="151" y="384"/>
			<point x="163" y="395"/>
		</contour>
	</outline>
</glyph>
<glyph name="Idblgrave" format="2">
	<advance width="315"/>
	<unicode hex="0208"/>
	<anchor x="158" y="0" name="bottom"/>
	<anchor x="243" y="0" name="ogonek"/>
	<anchor x="158" y="718" name="top"/>
	<anchor x="20" y="718" name="topleft"/>
	<outline>
		<contour>
			<point x="45" y="836" type="line" smooth="yes"/>
			<point x="51" y="791"/>
			<point x="78" y="759"/>
			<point x="123" y="759" type="curve" smooth="yes"/>
			<point x="149" y="759" type="line"/>
			<point x="129" y="923" type="line"/>
			<point x="34" y="923" type="line"/>
		</contour>
		<contour>
			<point x="175" y="836" type="line" smooth="yes"/>
			<point x="181" y="791"/>
			<point x="208" y="759"/>
			<point x="253" y="759" type="curve" smooth="yes"/>
			<point x="279" y="759" type="line"/>
			<point x="259" y="923" type="line"/>
			<point x="164" y="923" type="line"/>
		</contour>
		<contour>
			<point x="209" y="591" type="line" smooth="yes"/>
			<point x="209" y="611"/>
			<point x="221" y="623"/>
			<point x="241" y="623" type="curve" smooth="yes"/>
			<point x="264" y="623" type="line"/>
			<point x="264" y="718" type="line"/>
			<point x="51" y="718" type="line"/>
			<point x="51" y="623" type="line"/>
			<point x="74" y="623" type="line" smooth="yes"/>
			<point x="94" y="623"/>
			<point x="106" y="611"/>
			<point x="106" y="591" type="curve" smooth="yes"/>
			<point x="106" y="127" type="line" smooth="yes"/>
			<point x="106" y="107"/>
			<point x="94" y="95"/>
			<point x="74" y="95" type="curve" smooth="yes"/>
			<point x="51" y="95" type="line"/>
			<point x="51" y="0" type="line"/>
			<point x="264" y="0" type="line"/>
			<point x="264" y="95" type="line"/>
			<point x="241" y="95" type="line" smooth="yes"/>
			<point x="221" y="95"/>
			<point x="209" y="107"/>
			<point x="209" y="127" type="curve" smooth="yes"/>
		</contour>
	</outline>
</glyph>
<glyph name="idblgrave" format="2">
	<advance width="312"/>
	<unicode hex="0209"/>
	<anchor x="156" y="0" name="bottom"/>
	<anchor x="240" y="0" name="ogonek"/>
	<anchor x="156" y="487" name="top"/>
	<outline>
		<contour>
			<point x="43" y="605" type="line" smooth="yes"/>
			<point x="49" y="560"/>
			<point x="76" y="528"/>
			<point x="121" y="528" type="curve" smooth="yes"/>
			<point x="147" y="528" type="line"/>
			<point x="127" y="692" type="line"/>
			<point x="32" y="692" type="line"/>
		</contour>
		<contour>
			<point x="173" y="605" type="line" smooth="yes"/>
			<point x="179" y="560"/>
			<point x="206" y="528"/>
			<point x="251" y="528" type="curve" smooth="yes"/>
			<point x="277" y="528" type="line"/>
			<point x="257" y="692" type="line"/>
			<point x="162" y="692" type="line"/>
		</contour>
		<contour>
			<point x="206" y="365" type="line" smooth="yes"/>
			<point x="206" y="385"/>
			<point x="218" y="397"/>
			<point x="238" y="397" type="curve" smooth="yes"/>
			<point x="261" y="397" type="line"/>
			<point x="261" y="487" type="line"/>
			<point x="51" y="487" type="line"/>
			<point x="51" y="397" type="line"/>
			<point x="74" y="397" type="line" smooth="yes"/>
			<point x="94" y="397"/>
			<point x="106" y="385"/>
			<point x="106" y="365" type="curve" smooth="yes"/>
			<point x="106" y="122" type="line" smooth="yes"/>
			<point x="106" y="102"/>
			<point x="94" y="90"/>
			<point x="74" y="90" type="curve" smooth="yes"/>
			<point x="51" y="90" type="line"/>
			<point x="51" y="0" type="line"/>
			<point x="261" y="0" type="line"/>
			<point x="261" y="90" type="line"/>
			<point x="238" y="90" type="line" smooth="yes"/>
			<point x="218" y="90"/>
			<point x="206" y="102"/>
			<point x="206" y="122" type="curve" smooth="yes"/>
		</contour>
	</outline>
</glyph>
<glyph name="Rdblgrave" format="2">
	<advance width="505"/>
	<unicode hex="0210"/>
	<anchor x="253" y="0" name="bottom"/>
	<anchor x="253" y="718" name="top"/>
	<outline>
		<contour>
			<point x="140" y="836" type="line" smooth="yes"/>
			<point x="146" y="791"/>
			<point x="173" y="759"/>
			<point x="218" y="759" type="curve" smooth="yes"/>
			<point x="244" y="759" type="line"/>
			<point x="224" y="923" type="line"/>
			<point x="129" y="923" type="line"/>
		</contour>
		<contour>
			<point x="270" y="836" type="line" smooth="yes"/>
			<point x="276" y="791"/>
			<point x="303" y="759"/>
			<point x="348" y="759" type="curve" smooth="yes"/>
			<point x="374" y="759" type="line"/>
			<point x="354" y="923" type="line"/>
			<point x="259" y="923" type="line"/>
		</contour>
		<contour>
			<point x="454" y="718" type="line"/>
			<point x="51" y="718" type="line"/>
			<point x="51" y="0" type="line"/>
			<point x="237" y="0" type="line"/>
			<point x="237" y="93" type="line"/>
			<point x="211" y="93" type="line" smooth="yes"/>
			<point x="174" y="93"/>
			<point x="154" y="113"/>
			<point x="154" y="150" type="curve" smooth="yes"/>
			<point x="154" y="256" type="line" smooth="yes"/>
			<point x="154" y="286"/>
			<point x="161" y="303"/>
			<point x="191" y="303" type="curve" smooth="yes"/>
			<point x="214" y="303" type="line"/>
			<point x="341" y="221" type="line"/>
			<point x="341" y="0" type="line"/>
			<point x="454" y="0" type="line"/>
			<point x="454" y="267" type="line"/>
			<point x="320" y="352" type="line"/>
			<point x="454" y="447" type="line"/>
		</contour>
		<contour>
			<point x="217" y="398" type="line"/>
			<point x="191" y="398" type="line" smooth="yes"/>
			<point x="161" y="398"/>
			<point x="154" y="415"/>
			<point x="154" y="445" type="curve" smooth="yes"/>
			<point x="154" y="568" type="line" smooth="yes"/>
			<point x="154" y="605"/>
			<point x="174" y="625"/>
			<point x="211" y="625" type="curve" smooth="yes"/>
			<point x="341" y="625" type="line"/>
			<point x="341" y="488" type="line"/>
		</contour>
	</outline>
</glyph>
<glyph name="Udblgrave" format="2">
	<advance width="505"/>
	<unicode hex="0214"/>
	<anchor x="253" y="0" name="bottom"/>
	<anchor x="454" y="10" name="ogonek"/>
	<anchor x="253" y="718" name="top"/>
	<anchor x="485" y="718" name="topright"/>
	<outline>
		<contour>
			<point x="140" y="836" type="line" smooth="yes"/>
			<point x="146" y="791"/>
			<point x="173" y="759"/>
			<point x="218" y="759" type="curve" smooth="yes"/>
			<point x="244" y="759" type="line"/>
			<point x="224" y="923" type="line"/>
			<point x="129" y="923" type="line"/>
		</contour>
		<contour>
			<point x="270" y="836" type="line" smooth="yes"/>
			<point x="276" y="791"/>
			<point x="303" y="759"/>
			<point x="348" y="759" type="curve" smooth="yes"/>
			<point x="374" y="759" type="line"/>
			<point x="354" y="923" type="line"/>
			<point x="259" y="923" type="line"/>
		</contour>
		<contour>
			<point x="154" y="718" type="line"/>
			<point x="51" y="718" type="line"/>
			<point x="51" y="0" type="line"/>
			<point x="454" y="0" type="line"/>
			<point x="454" y="718" type="line"/>
			<point x="351" y="718" type="line"/>
			<point x="351" y="127" type="line" smooth="yes"/>
			<point x="351" y="107"/>
			<point x="339" y="95"/>
			<point x="319" y="95" type="curve" smooth="yes"/>
			<point x="186" y="95" type="line" smooth="yes"/>
			<point x="166" y="95"/>
			<point x="154" y="107"/>
			<point x="154" y="127" type="curve" smooth="yes"/>
		</contour>
	</outline>
</glyph>
<glyph name="jdotless" format="2">
	<advance width="256"/>
	<unicode hex="0237"/>
	<anchor x="155" y="487" name="top"/>
	<outline>
		<contour>
			<point x="205" y="-200" type="line"/>
			<point x="205" y="487" type="line"/>
			<point x="20" y="487" type="line"/>
			<point x="20" y="397" type="line"/>
			<point x="73" y="397" type="line" smooth="yes"/>
			<point x="93" y="397"/>
			<point x="105" y="385"/>
			<point x="105" y="365" type="curve" smooth="yes"/>
			<point x="105" y="-78" type="line" smooth="yes"/>
			<point x="105" y="-98"/>
			<point x="93" y="-110"/>
			<point x="73" y="-110" type="curve" smooth="yes"/>
			<point x="-50" y="-110" type="line"/>
			<point x="-50" y="-200" type="line"/>
		</contour>
	</outline>
</glyph>
<glyph name="circumflex" format="2">
	<advance width="308"/>
	<unicode hex="02C6"/>
	<anchor x="155" y="718" name="_top"/>
	<outline>
		<contour>
			<point x="308" y="761" type="line"/>
			<point x="153" y="923" type="line"/>
			<point x="0" y="761" type="line"/>
			<point x="76" y="761" type="line" smooth="yes"/>
			<point x="95" y="761"/>
			<point x="112" y="768"/>
			<point x="121" y="781" type="curve" smooth="yes"/>
			<point x="153" y="827" type="line"/>
			<point x="186" y="781" type="line" smooth="yes"/>
			<point x="195" y="768"/>
			<point x="213" y="761"/>
			<point x="232" y="761" type="curve" smooth="yes"/>
		</contour>
	</outline>
</glyph>
<glyph name="caron" format="2">
	<advance width="308"/>
	<unicode hex="02C7"/>
	<guideline x="-187" y="923" angle="0"/>
	<anchor x="155" y="718" name="_top"/>
	<anchor x="155" y="911" name="top"/>
	<outline>
		<contour>
			<point x="0" y="923" type="line"/>
			<point x="155" y="761" type="line"/>
			<point x="308" y="923" type="line"/>
			<point x="232" y="923" type="line" smooth="yes"/>
			<point x="213" y="923"/>
			<point x="196" y="916"/>
			<point x="187" y="903" type="curve" smooth="yes"/>
			<point x="155" y="857" type="line"/>
			<point x="122" y="903" type="line" smooth="yes"/>
			<point x="113" y="916"/>
			<point x="95" y="923"/>
			<point x="76" y="923" type="curve" smooth="yes"/>
		</contour>
	</outline>
</glyph>
<glyph name="breve" format="2">
	<advance width="362"/>
	<unicode hex="02D8"/>
	<anchor x="181" y="718" name="_top"/>
	<outline>
		<contour>
			<point x="150" y="892" type="line"/>
			<point x="74" y="892" type="line"/>
			<point x="74" y="855" type="line" smooth="yes"/>
			<point x="74" y="783"/>
			<point x="128" y="760"/>
			<point x="181" y="760" type="curve" smooth="yes"/>
			<point x="234" y="760"/>
			<point x="288" y="783"/>
			<point x="288" y="855" type="curve" smooth="yes"/>
			<point x="288" y="892" type="line"/>
			<point x="212" y="892" type="line"/>
			<point x="212" y="858" type="line" smooth="yes"/>
			<point x="212" y="813"/>
			<point x="150" y="813"/>
			<point x="150" y="858" type="curve" smooth="yes"/>
		</contour>
	</outline>
</glyph>
<glyph name="dotaccent" format="2">
	<advance width="118"/>
	<unicode hex="02D9"/>
	<anchor x="59" y="718" name="_top"/>
	<anchor x="59" y="873" name="top"/>
	<outline>
		<contour>
			<point x="0" y="854" type="line"/>
			<point x="0" y="759" type="line"/>
			<point x="118" y="759" type="line"/>
			<point x="118" y="854" type="line"/>
		</contour>
	</outline>
</glyph>
<glyph name="ring" format="2">
	<advance width="136"/>
	<unicode hex="02DA"/>
	<anchor x="68" y="718" name="_top"/>
	<anchor x="80" y="820" name="top"/>
	<outline>
		<contour>
			<point x="0" y="882" type="line"/>
			<point x="0" y="752" type="line"/>
			<point x="136" y="752" type="line"/>
			<point x="136" y="882" type="line"/>
		</contour>
		<contour>
			<point x="43" y="841" type="line"/>
			<point x="93" y="841" type="line"/>
			<point x="93" y="793" type="line"/>
			<point x="43" y="793" type="line"/>
		</contour>
	</outline>
</glyph>
<glyph name="ogonek" format="2">
	<advance width="600"/>
	<unicode hex="02DB"/>
	<anchor x="400" y="0" name="_ogonek"/>
	<outline>
		<contour>
			<point x="296" y="-97" type="line" smooth="yes"/>
			<point x="296" y="-142"/>
			<point x="329" y="-174"/>
			<point x="374" y="-174" type="curve" smooth="yes"/>
			<point x="400" y="-174" type="line"/>
			<point x="400" y="-50" type="line"/>
			<point x="336" y="-50" type="line"/>
			<point x="336" y="0" type="line"/>
			<point x="296" y="0" type="line"/>
		</contour>
	</outline>
</glyph>
<glyph name="tilde" format="2">
	<advance width="229"/>
	<unicode hex="02DC"/>
	<anchor x="114" y="718" name="_top"/>
	<anchor x="114" y="873" name="top"/>
	<outline>
		<contour>
			<point x="185" y="879" type="line"/>
			<point x="185" y="865" type="line" smooth="yes"/>
			<point x="185" y="848"/>
			<point x="176" y="838"/>
			<point x="160" y="838" type="curve" smooth="yes"/>
			<point x="144" y="838"/>
			<point x="135" y="848"/>
			<point x="135" y="865" type="curve" smooth="yes"/>
			<point x="135" y="899" type="line"/>
			<point x="-11" y="899" type="line"/>
			<point x="-11" y="797" type="line"/>
			<point x="42" y="797" type="line"/>
			<point x="42" y="811" type="line" smooth="yes"/>
			<point x="42" y="828"/>
			<point x="51" y="838"/>
			<point x="67" y="838" type="curve" smooth="yes"/>
			<point x="83" y="838"/>
			<point x="92" y="828"/>
			<point x="92" y="811" type="curve" smooth="yes"/>
			<point x="92" y="777" type="line"/>
			<point x="238" y="777" type="line"/>
			<point x="238" y="879" type="line"/>
		</contour>
	</outline>
</glyph>
<glyph name="hungarumlaut" format="2">
	<advance width="245"/>
	<unicode hex="02DD"/>
	<anchor x="121" y="718" name="_top"/>
	<outline>
		<contour>
			<point x="104" y="836" type="curve" smooth="yes"/>
			<point x="115" y="923" type="line"/>
			<point x="20" y="923" type="line"/>
			<point x="0" y="759" type="line"/>
			<point x="26" y="759" type="line" smooth="yes"/>
			<point x="71" y="759"/>
			<point x="98" y="791"/>
		</contour>
		<contour>
			<point x="234" y="836" type="curve" smooth="yes"/>
			<point x="245" y="923" type="line"/>
			<point x="150" y="923" type="line"/>
			<point x="130" y="759" type="line"/>
			<point x="156" y="759" type="line" smooth="yes"/>
			<point x="201" y="759"/>
			<point x="228" y="791"/>
		</contour>
	</outline>
</glyph>
<glyph name="commaaccentcomb" format="2">
	<advance width="195"/>
	<unicode hex="0326"/>
	<anchor x="94" y="0" name="_bottom"/>
	<outline>
		<contour>
			<point x="49.895" y="-60.333" type="line"/>
			<point x="49.895" y="-211.667" type="line"/>
			<point x="100" y="-212" type="line" smooth="yes"/>
			<point x="124" y="-212"/>
			<point x="137" y="-199"/>
			<point x="137" y="-175" type="curve" smooth="yes"/>
			<point x="137.094" y="-60.333" type="line"/>
		</contour>
	</outline>
</glyph>
<glyph name="Wgrave" format="2">
	<advance width="671"/>
	<unicode hex="1E80"/>
	<anchor x="336" y="0" name="bottom"/>
	<anchor x="336" y="718" name="top"/>
	<outline>
		<contour>
			<point x="291" y="843" type="line" smooth="yes"/>
			<point x="291" y="798"/>
			<point x="324" y="766"/>
			<point x="369" y="766" type="curve" smooth="yes"/>
			<point x="381" y="766" type="line"/>
			<point x="381" y="923" type="line"/>
			<point x="291" y="923" type="line"/>
		</contour>
		<contour>
			<point x="438" y="0" type="line"/>
			<point x="620" y="0" type="line"/>
			<point x="620" y="718" type="line"/>
			<point x="460" y="718" type="line"/>
			<point x="460" y="623" type="line"/>
			<point x="483" y="623" type="line" smooth="yes"/>
			<point x="503" y="623"/>
			<point x="515" y="611"/>
			<point x="515" y="591" type="curve" smooth="yes"/>
			<point x="515" y="113" type="line"/>
			<point x="476" y="113" type="line"/>
			<point x="390" y="224" type="line"/>
			<point x="385" y="230"/>
			<point x="383" y="237"/>
			<point x="383" y="245" type="curve" smooth="yes"/>
			<point x="383" y="508" type="line"/>
			<point x="288" y="508" type="line"/>
			<point x="288" y="245" type="line" smooth="yes"/>
			<point x="288" y="237"/>
			<point x="286" y="230"/>
			<point x="281" y="224" type="curve"/>
			<point x="195" y="113" type="line"/>
			<point x="156" y="113" type="line"/>
			<point x="156" y="591" type="line" smooth="yes"/>
			<point x="156" y="611"/>
			<point x="168" y="623"/>
			<point x="188" y="623" type="curve" smooth="yes"/>
			<point x="211" y="623" type="line"/>
			<point x="211" y="718" type="line"/>
			<point x="51" y="718" type="line"/>
			<point x="51" y="0" type="line"/>
			<point x="233" y="0" type="line"/>
			<point x="336" y="132" type="line"/>
		</contour>
	</outline>
</glyph>
<glyph name="Germandbls" format="2">
	<advance width="505"/>
	<unicode hex="1E9E"/>
	<anchor x="253" y="0" name="bottom"/>
	<anchor x="253" y="718" name="top"/>
	<outline>
		<contour>
			<point x="392" y="403" type="line"/>
			<point x="454" y="447" type="line"/>
			<point x="454" y="718" type="line"/>
			<point x="51" y="718" type="line"/>
			<point x="51" y="0" type="line"/>
			<point x="154" y="0" type="line"/>
			<point x="154" y="568" type="line" smooth="yes"/>
			<point x="154" y="605"/>
			<point x="174" y="625"/>
			<point x="211" y="625" type="curve" smooth="yes"/>
			<point x="341" y="625" type="line"/>
			<point x="341" y="468" type="line"/>
			<point x="217" y="378" type="line"/>
			<point x="217" y="308" type="line"/>
			<point x="325" y="308" type="line" smooth="yes"/>
			<point x="368" y="308"/>
			<point x="391" y="284"/>
			<point x="391" y="242" type="curve" smooth="yes"/>
			<point x="391" y="127" type="line" smooth="yes"/>
			<point x="391" y="107"/>
			<point x="379" y="95"/>
			<point x="359" y="95" type="curve" smooth="yes"/>
			<point x="346" y="95" type="line" smooth="yes"/>
			<point x="326" y="95"/>
			<point x="314" y="107"/>
			<point x="314" y="127" type="curve" smooth="yes"/>
			<point x="314" y="178" type="line"/>
			<point x="211" y="178" type="line"/>
			<point x="211" y="0" type="line"/>
			<point x="494" y="0" type="line"/>
			<point x="494" y="403" type="line"/>
		</contour>
	</outline>
</glyph>
<glyph name="Ygrave" format="2">
	<advance width="530"/>
	<unicode hex="1EF2"/>
	<anchor x="265" y="0" name="bottom"/>
	<anchor x="265" y="718" name="top"/>
	<anchor x="30" y="718" name="topleft"/>
	<outline>
		<contour>
			<point x="220" y="843" type="line" smooth="yes"/>
			<point x="220" y="798"/>
			<point x="253" y="766"/>
			<point x="298" y="766" type="curve" smooth="yes"/>
			<point x="310" y="766" type="line"/>
			<point x="310" y="923" type="line"/>
			<point x="220" y="923" type="line"/>
		</contour>
		<contour>
			<point x="479" y="337" type="line"/>
			<point x="479" y="718" type="line"/>
			<point x="376" y="718" type="line"/>
			<point x="376" y="387" type="line"/>
			<point x="266" y="307" type="line"/>
			<point x="154" y="387" type="line"/>
			<point x="154" y="718" type="line"/>
			<point x="51" y="718" type="line"/>
			<point x="51" y="337" type="line"/>
			<point x="214" y="221" type="line"/>
			<point x="214" y="127" type="line" smooth="yes"/>
			<point x="214" y="107"/>
			<point x="202" y="95"/>
			<point x="182" y="95" type="curve" smooth="yes"/>
			<point x="149" y="95" type="line"/>
			<point x="149" y="0" type="line"/>
			<point x="382" y="0" type="line"/>
			<point x="382" y="95" type="line"/>
			<point x="349" y="95" type="line" smooth="yes"/>
			<point x="329" y="95"/>
			<point x="317" y="107"/>
			<point x="317" y="127" type="curve" smooth="yes"/>
			<point x="317" y="221" type="line"/>
		</contour>
	</outline>
</glyph>
<glyph name="endash" format="2">
	<advance width="396"/>
	<unicode hex="2013"/>
	<outline>
		<contour>
			<point x="50" y="406" type="line"/>
			<point x="50" y="311" type="line"/>
			<point x="346" y="311" type="line"/>
			<point x="346" y="406" type="line"/>
		</contour>
	</outline>
</glyph>
<glyph name="emdash" format="2">
	<advance width="526"/>
	<unicode hex="2014"/>
	<outline>
		<contour>
			<point x="50" y="406" type="line"/>
			<point x="50" y="311" type="line"/>
			<point x="476" y="311" type="line"/>
			<point x="476" y="406" type="line"/>
		</contour>
	</outline>
</glyph>
<glyph name="dagger" format="2">
	<advance width="600"/>
	<unicode hex="2020"/>
	<outline>
		<contour>
			<point x="352" y="718" type="line"/>
			<point x="249" y="718" type="line"/>
			<point x="249" y="0" type="line"/>
			<point x="352" y="0" type="line"/>
			<point x="352" y="385" type="line" smooth="yes"/>
			<point x="352" y="408"/>
			<point x="365" y="421"/>
			<point x="388" y="421" type="curve" smooth="yes"/>
			<point x="550" y="421" type="line"/>
			<point x="550" y="516" type="line"/>
			<point x="388" y="516" type="line" smooth="yes"/>
			<point x="365" y="516"/>
			<point x="352" y="529"/>
			<point x="352" y="552" type="curve" smooth="yes"/>
		</contour>
		<contour>
			<point x="248" y="718" type="line"/>
			<point x="248" y="552" type="line" smooth="yes"/>
			<point x="248" y="529"/>
			<point x="235" y="516"/>
			<point x="212" y="516" type="curve" smooth="yes"/>
			<point x="50" y="516" type="line"/>
			<point x="50" y="421" type="line"/>
			<point x="212" y="421" type="line" smooth="yes"/>
			<point x="235" y="421"/>
			<point x="248" y="408"/>
			<point x="248" y="385" type="curve" smooth="yes"/>
			<point x="248" y="0" type="line"/>
			<point x="351" y="0" type="line"/>
			<point x="351" y="718" type="line"/>
		</contour>
		<contour>
			<point x="248" y="359" type="line"/>
			<point x="351" y="359" type="line"/>
			<point x="351" y="591" type="line" smooth="yes"/>
			<point x="351" y="611"/>
			<point x="363" y="623"/>
			<point x="383" y="623" type="curve" smooth="yes"/>
			<point x="406" y="623" type="line"/>
			<point x="406" y="718" type="line"/>
			<point x="193" y="718" type="line"/>
			<point x="193" y="623" type="line"/>
			<point x="216" y="623" type="line" smooth="yes"/>
			<point x="236" y="623"/>
			<point x="248" y="611"/>
			<point x="248" y="591" type="curve" smooth="yes"/>
		</contour>
	</outline>
</glyph>
<glyph name="daggerdbl" format="2">
	<advance width="600"/>
	<unicode hex="2021"/>
	<outline>
		<contour>
			<point x="388" y="516" type="line" smooth="yes"/>
			<point x="365" y="516"/>
			<point x="352" y="529"/>
			<point x="352" y="552" type="curve" smooth="yes"/>
			<point x="352" y="600" type="line"/>
			<point x="355" y="615"/>
			<point x="366" y="623"/>
			<point x="383" y="623" type="curve" smooth="yes"/>
			<point x="406" y="623" type="line"/>
			<point x="406" y="718" type="line"/>
			<point x="193" y="718" type="line"/>
			<point x="193" y="623" type="line"/>
			<point x="216" y="623" type="line" smooth="yes"/>
			<point x="236" y="623"/>
			<point x="248" y="611"/>
			<point x="248" y="591" type="curve" smooth="yes"/>
			<point x="248" y="552" type="line" smooth="yes"/>
			<point x="248" y="529"/>
			<point x="235" y="516"/>
			<point x="212" y="516" type="curve" smooth="yes"/>
			<point x="50" y="516" type="line"/>
			<point x="50" y="421" type="line"/>
			<point x="212" y="421" type="line" smooth="yes"/>
			<point x="235" y="421"/>
			<point x="248" y="408"/>
			<point x="248" y="385" type="curve" smooth="yes"/>
			<point x="248" y="0" type="line"/>
			<point x="352" y="0" type="line"/>
			<point x="352" y="385" type="line" smooth="yes"/>
			<point x="352" y="408"/>
			<point x="365" y="421"/>
			<point x="388" y="421" type="curve" smooth="yes"/>
			<point x="550" y="421" type="line"/>
			<point x="550" y="516" type="line"/>
		</contour>
		<contour>
			<point x="248" y="165" type="curve"/>
			<point x="352" y="165" type="line"/>
			<point x="352" y="188"/>
			<point x="365" y="201"/>
			<point x="388" y="201" type="curve" smooth="yes"/>
			<point x="550" y="201" type="line"/>
			<point x="550" y="296" type="line"/>
			<point x="388" y="296" type="line" smooth="yes"/>
			<point x="365" y="296"/>
			<point x="352" y="309"/>
			<point x="352" y="332" type="curve"/>
			<point x="248" y="332" type="line"/>
			<point x="248" y="309"/>
			<point x="235" y="296"/>
			<point x="212" y="296" type="curve" smooth="yes"/>
			<point x="50" y="296" type="line"/>
			<point x="50" y="201" type="line"/>
			<point x="212" y="201" type="line" smooth="yes"/>
			<point x="235" y="201"/>
			<point x="248" y="188"/>
		</contour>
	</outline>
</glyph>
<glyph name="guilsinglright" format="2">
	<advance width="451"/>
	<unicode hex="203A"/>
	<outline>
		<contour>
			<point x="40" y="221" type="line"/>
			<point x="90" y="136" type="line"/>
			<point x="421" y="360" type="line"/>
			<point x="90" y="580" type="line"/>
			<point x="40" y="494" type="line"/>
			<point x="257" y="359" type="line"/>
		</contour>
	</outline>
</glyph>
<glyph name="euro" format="2">
	<advance width="585"/>
	<unicode hex="20AC"/>
	<anchor x="363" y="0" name="bottom"/>
	<anchor x="363" y="718" name="top"/>
	<outline>
		<contour>
			<point x="369" y="391" type="line"/>
			<point x="369" y="486" type="line"/>
			<point x="51" y="486" type="line"/>
			<point x="51" y="391" type="line"/>
		</contour>
		<contour>
			<point x="369" y="231" type="line"/>
			<point x="369" y="326" type="line"/>
			<point x="51" y="326" type="line"/>
			<point x="51" y="231" type="line"/>
		</contour>
		<contour>
			<point x="121" y="718" type="line"/>
			<point x="121" y="0" type="line"/>
			<point x="534" y="0" type="line"/>
			<point x="534" y="255" type="line"/>
			<point x="431" y="255" type="line"/>
			<point x="431" y="127" type="line" smooth="yes"/>
			<point x="431" y="107"/>
			<point x="419" y="95"/>
			<point x="399" y="95" type="curve" smooth="yes"/>
			<point x="256" y="95" type="line" smooth="yes"/>
			<point x="236" y="95"/>
			<point x="224" y="107"/>
			<point x="224" y="127" type="curve" smooth="yes"/>
			<point x="224" y="591" type="line" smooth="yes"/>
			<point x="224" y="611"/>
			<point x="236" y="623"/>
			<point x="256" y="623" type="curve" smooth="yes"/>
			<point x="399" y="623" type="line" smooth="yes"/>
			<point x="419" y="623"/>
			<point x="431" y="611"/>
			<point x="431" y="591" type="curve" smooth="yes"/>
			<point x="431" y="463" type="line"/>
			<point x="534" y="463" type="line"/>
			<point x="534" y="718" type="line"/>
		</contour>
	</outline>
</glyph>
<glyph name="trademark" format="2">
	<advance width="1256"/>
	<unicode hex="2122"/>
	<anchor x="293" y="0" name="bottom"/>
	<anchor x="293" y="359" name="center"/>
	<anchor x="293" y="718" name="top"/>
	<outline>
		<contour>
			<point x="534" y="492" type="line"/>
			<point x="534" y="718" type="line"/>
			<point x="241" y="718" type="line"/>
			<point x="241" y="300" type="line"/>
			<point x="344" y="300" type="line"/>
			<point x="344" y="591" type="line"/>
			<point x="344" y="611"/>
			<point x="356" y="623"/>
			<point x="376" y="623" type="curve" smooth="yes"/>
			<point x="400" y="623" type="line" smooth="yes"/>
			<point x="420" y="623"/>
			<point x="432" y="611"/>
			<point x="432" y="591" type="curve" smooth="yes"/>
			<point x="432" y="492" type="line"/>
		</contour>
		<contour>
			<point x="51" y="492" type="line"/>
			<point x="153" y="492" type="line"/>
			<point x="153" y="591" type="line" smooth="yes"/>
			<point x="153" y="611"/>
			<point x="165" y="623"/>
			<point x="185" y="623" type="curve" smooth="yes"/>
			<point x="209" y="623" type="line" smooth="yes"/>
			<point x="229" y="623"/>
			<point x="241" y="611"/>
			<point x="241" y="591" type="curve"/>
			<point x="241" y="300" type="line"/>
			<point x="344" y="300" type="line"/>
			<point x="344" y="718" type="line"/>
			<point x="51" y="718" type="line"/>
		</contour>
		<contour>
			<point x="91" y="395" type="line"/>
			<point x="91" y="300" type="line"/>
			<point x="493" y="300" type="line"/>
			<point x="493" y="395" type="line"/>
		</contour>
		<contour>
			<point x="636" y="300" type="line"/>
			<point x="741" y="300" type="line"/>
			<point x="741" y="646" type="line"/>
			<point x="636" y="646" type="line"/>
		</contour>
		<contour>
			<point x="873" y="340" type="line"/>
			<point x="968" y="340" type="line"/>
			<point x="968" y="525" type="line"/>
			<point x="818" y="718" type="line"/>
			<point x="636" y="718" type="line"/>
			<point x="636" y="605" type="line"/>
			<point x="780" y="605" type="line"/>
			<point x="866" y="494" type="line" smooth="yes"/>
			<point x="871" y="488"/>
			<point x="873" y="481"/>
			<point x="873" y="473" type="curve" smooth="yes"/>
		</contour>
		<contour>
			<point x="1205" y="300" type="line"/>
			<point x="1205" y="646" type="line"/>
			<point x="1100" y="646" type="line"/>
			<point x="1100" y="300" type="line"/>
		</contour>
		<contour>
			<point x="968" y="460" type="line"/>
			<point x="968" y="473" type="line" smooth="yes"/>
			<point x="968" y="481"/>
			<point x="970" y="488"/>
			<point x="975" y="494" type="curve" smooth="yes"/>
			<point x="1061" y="605" type="line"/>
			<point x="1205" y="605" type="line"/>
			<point x="1205" y="718" type="line"/>
			<point x="1023" y="718" type="line"/>
			<point x="873" y="525" type="line"/>
			<point x="873" y="460" type="line"/>
		</contour>
		<contour>
			<point x="638" y="489" type="line"/>
			<point x="636" y="300" type="line"/>
			<point x="796" y="300" type="line"/>
			<point x="796" y="395" type="line"/>
			<point x="773" y="395" type="line" smooth="yes"/>
			<point x="753" y="395"/>
			<point x="741" y="407"/>
			<point x="741" y="427" type="curve" smooth="yes"/>
			<point x="741" y="489" type="line"/>
		</contour>
		<contour>
			<point x="1203" y="489" type="line"/>
			<point x="1100" y="489" type="line"/>
			<point x="1100" y="427" type="line" smooth="yes"/>
			<point x="1100" y="407"/>
			<point x="1088" y="395"/>
			<point x="1068" y="395" type="curve" smooth="yes"/>
			<point x="1045" y="395" type="line"/>
			<point x="1045" y="300" type="line"/>
			<point x="1205" y="300" type="line"/>
		</contour>
	</outline>
</glyph>
<glyph name="leftArrow" format="2">
	<advance width="520"/>
	<unicode hex="2190"/>
	<outline>
		<contour>
			<point x="469" y="407" type="line"/>
			<point x="91" y="407" type="line"/>
			<point x="91" y="312" type="line"/>
			<point x="469" y="312" type="line"/>
		</contour>
		<contour>
			<point x="207" y="158" type="line"/>
			<point x="278" y="214" type="line"/>
			<point x="166" y="359" type="line"/>
			<point x="278" y="505" type="line"/>
			<point x="207" y="561" type="line"/>
			<point x="51" y="359" type="line"/>
		</contour>
	</outline>
</glyph>
<glyph name="upArrow" format="2">
	<advance width="505"/>
	<unicode hex="2191"/>
	<outline>
		<contour>
			<point x="201" y="0" type="line"/>
			<point x="304" y="0" type="line"/>
			<point x="304" y="678" type="line"/>
			<point x="201" y="678" type="line"/>
		</contour>
		<contour>
			<point x="454" y="562" type="line"/>
			<point x="253" y="718" type="line"/>
			<point x="51" y="562" type="line"/>
			<point x="107" y="491" type="line"/>
			<point x="253" y="603" type="line"/>
			<point x="398" y="491" type="line"/>
		</contour>
	</outline>
</glyph>
<glyph name="rightArrow" format="2">
	<advance width="520"/>
	<unicode hex="2192"/>
	<outline>
		<contour>
			<point x="51" y="407" type="line"/>
			<point x="51" y="312" type="line"/>
			<point x="429" y="312" type="line"/>
			<point x="429" y="407" type="line"/>
		</contour>
		<contour>
			<point x="313" y="158" type="line"/>
			<point x="469" y="359" type="line"/>
			<point x="313" y="561" type="line"/>
			<point x="242" y="505" type="line"/>
			<point x="354" y="359" type="line"/>
			<point x="242" y="214" type="line"/>
		</contour>
	</outline>
</glyph>
<glyph name="downArrow" format="2">
	<advance width="505"/>
	<unicode hex="2193"/>
	<outline>
		<contour>
			<point x="201" y="718" type="line"/>
			<point x="201" y="40" type="line"/>
			<point x="304" y="40" type="line"/>
			<point x="304" y="718" type="line"/>
		</contour>
		<contour>
			<point x="454" y="156" type="line"/>
			<point x="398" y="227" type="line"/>
			<point x="253" y="115" type="line"/>
			<point x="107" y="227" type="line"/>
			<point x="51" y="156" type="line"/>
			<point x="253" y="0" type="line"/>
		</contour>
	</outline>
</glyph>
<glyph name="leftRightArrow" format="2">
	<advance width="680"/>
	<unicode hex="2194"/>
	<outline>
		<contour>
			<point x="241" y="407" type="line"/>
			<point x="241" y="312" type="line"/>
			<point x="619" y="312" type="line"/>
			<point x="619" y="407" type="line"/>
		</contour>
		<contour>
			<point x="503" y="158" type="line"/>
			<point x="659" y="359" type="line"/>
			<point x="503" y="561" type="line"/>
			<point x="432" y="505" type="line"/>
			<point x="544" y="359" type="line"/>
			<point x="432" y="214" type="line"/>
		</contour>
		<contour>
			<point x="469" y="407" type="line"/>
			<point x="91" y="407" type="line"/>
			<point x="91" y="312" type="line"/>
			<point x="469" y="312" type="line"/>
		</contour>
		<contour>
			<point x="207" y="158" type="line"/>
			<point x="278" y="214" type="line"/>
			<point x="166" y="359" type="line"/>
			<point x="278" y="505" type="line"/>
			<point x="207" y="561" type="line"/>
			<point x="51" y="359" type="line"/>
		</contour>
	</outline>
</glyph>
<glyph name="upDownArrow" format="2">
	<advance width="505"/>
	<unicode hex="2195"/>
	<outline>
		<contour>
			<point x="300" y="524" type="line"/>
			<point x="205" y="524" type="line"/>
			<point x="205" y="56" type="line"/>
			<point x="300" y="56" type="line"/>
		</contour>
		<contour>
			<point x="51" y="172" type="line"/>
			<point x="252" y="16" type="line"/>
			<point x="454" y="172" type="line"/>
			<point x="398" y="243" type="line"/>
			<point x="252" y="131" type="line"/>
			<point x="107" y="243" type="line"/>
		</contour>
		<contour>
			<point x="300" y="206" type="line"/>
			<point x="300" y="664" type="line"/>
			<point x="205" y="664" type="line"/>
			<point x="205" y="206" type="line"/>
		</contour>
		<contour>
			<point x="51" y="548" type="line"/>
			<point x="107" y="477" type="line"/>
			<point x="252" y="589" type="line"/>
			<point x="398" y="477" type="line"/>
			<point x="454" y="548" type="line"/>
			<point x="252" y="704" type="line"/>
		</contour>
	</outline>
</glyph>
<glyph name="northWestArrow" format="2">
	<advance width="543"/>
	<unicode hex="2196"/>
	<outline>
		<contour>
			<point x="503" y="138" type="line"/>
			<point x="198" y="664" type="line"/>
			<point x="114" y="616" type="line"/>
			<point x="418" y="89" type="line"/>
		</contour>
		<contour>
			<point x="40" y="439" type="line"/>
			<point x="119" y="407" type="line"/>
			<point x="189" y="576" type="line"/>
			<point x="371" y="552" type="line"/>
			<point x="389" y="640" type="line"/>
			<point x="136" y="674" type="line"/>
		</contour>
	</outline>
</glyph>
<glyph name="northEastArrow" format="2">
	<advance width="543"/>
	<unicode hex="2197"/>
	<outline>
		<contour>
			<point x="40" y="138" type="line"/>
			<point x="125" y="89" type="line"/>
			<point x="429" y="616" type="line"/>
			<point x="345" y="664" type="line"/>
		</contour>
		<contour>
			<point x="503" y="439" type="line"/>
			<point x="407" y="674" type="line"/>
			<point x="154" y="640" type="line"/>
			<point x="172" y="552" type="line"/>
			<point x="354" y="576" type="line"/>
			<point x="424" y="407" type="line"/>
		</contour>
	</outline>
</glyph>
<glyph name="southEastArrow" format="2">
	<advance width="543"/>
	<unicode hex="2198"/>
	<outline>
		<contour>
			<point x="40" y="625" type="line"/>
			<point x="345" y="99" type="line"/>
			<point x="429" y="147" type="line"/>
			<point x="125" y="674" type="line"/>
		</contour>
		<contour>
			<point x="503" y="324" type="line"/>
			<point x="424" y="356" type="line"/>
			<point x="354" y="187" type="line"/>
			<point x="172" y="211" type="line"/>
			<point x="154" y="123" type="line"/>
			<point x="407" y="89" type="line"/>
		</contour>
	</outline>
</glyph>
<glyph name="southWestArrow" format="2">
	<advance width="543"/>
	<unicode hex="2199"/>
	<outline>
		<contour>
			<point x="503" y="625" type="line"/>
			<point x="418" y="674" type="line"/>
			<point x="114" y="147" type="line"/>
			<point x="198" y="99" type="line"/>
		</contour>
		<contour>
			<point x="40" y="324" type="line"/>
			<point x="136" y="89" type="line"/>
			<point x="389" y="123" type="line"/>
			<point x="371" y="211" type="line"/>
			<point x="189" y="187" type="line"/>
			<point x="119" y="356" type="line"/>
		</contour>
	</outline>
</glyph>
<glyph name="approxequal" format="2">
	<advance width="411"/>
	<unicode hex="2248"/>
	<outline>
		<contour>
			<point x="287" y="329" type="line"/>
			<point x="287" y="295" type="line" smooth="yes"/>
			<point x="287" y="278"/>
			<point x="278" y="268"/>
			<point x="252" y="268" type="curve" smooth="yes"/>
			<point x="233" y="268"/>
			<point x="217" y="278"/>
			<point x="217" y="295" type="curve" smooth="yes"/>
			<point x="217" y="329" type="line"/>
			<point x="86" y="329" type="line" smooth="yes"/>
			<point x="64" y="329"/>
			<point x="51" y="316"/>
			<point x="51" y="294" type="curve" smooth="yes"/>
			<point x="51" y="207" type="line"/>
			<point x="124" y="207" type="line"/>
			<point x="124" y="241" type="line" smooth="yes"/>
			<point x="124" y="258"/>
			<point x="133" y="268"/>
			<point x="159" y="268" type="curve" smooth="yes"/>
			<point x="178" y="268"/>
			<point x="194" y="258"/>
			<point x="194" y="241" type="curve" smooth="yes"/>
			<point x="194" y="207" type="line"/>
			<point x="325" y="207" type="line" smooth="yes"/>
			<point x="347" y="207"/>
			<point x="360" y="220"/>
			<point x="360" y="242" type="curve" smooth="yes"/>
			<point x="360" y="329" type="line"/>
		</contour>
		<contour>
			<point x="287" y="511" type="line"/>
			<point x="287" y="477" type="line" smooth="yes"/>
			<point x="287" y="460"/>
			<point x="278" y="450"/>
			<point x="252" y="450" type="curve" smooth="yes"/>
			<point x="233" y="450"/>
			<point x="217" y="460"/>
			<point x="217" y="477" type="curve" smooth="yes"/>
			<point x="217" y="511" type="line"/>
			<point x="86" y="511" type="line" smooth="yes"/>
			<point x="64" y="511"/>
			<point x="51" y="498"/>
			<point x="51" y="476" type="curve" smooth="yes"/>
			<point x="51" y="389" type="line"/>
			<point x="124" y="389" type="line"/>
			<point x="124" y="423" type="line" smooth="yes"/>
			<point x="124" y="440"/>
			<point x="133" y="450"/>
			<point x="159" y="450" type="curve" smooth="yes"/>
			<point x="178" y="450"/>
			<point x="194" y="440"/>
			<point x="194" y="423" type="curve" smooth="yes"/>
			<point x="194" y="389" type="line"/>
			<point x="325" y="389" type="line" smooth="yes"/>
			<point x="347" y="389"/>
			<point x="360" y="402"/>
			<point x="360" y="424" type="curve" smooth="yes"/>
			<point x="360" y="511" type="line"/>
		</contour>
	</outline>
</glyph>
<glyph name="notequal" format="2">
	<advance width="542"/>
	<unicode hex="2260"/>
	<outline>
		<contour>
			<point x="75" y="89" type="line"/>
			<point x="180" y="89" type="line"/>
			<point x="467" y="628" type="line"/>
			<point x="361" y="628" type="line"/>
		</contour>
		<component base="equal"/>
	</outline>
</glyph>
<glyph name="lessequal" format="2">
	<advance width="482"/>
	<unicode hex="2264"/>
	<outline>
		<contour>
			<point x="432" y="216" type="line"/>
			<point x="214" y="359" type="line"/>
			<point x="431" y="494" type="line"/>
			<point x="382" y="580" type="line"/>
			<point x="50" y="360" type="line"/>
			<point x="263" y="216" type="line"/>
		</contour>
		<contour>
			<point x="432" y="216" type="line"/>
			<point x="60" y="216" type="line"/>
			<point x="60" y="121" type="line"/>
			<point x="432" y="121" type="line"/>
		</contour>
	</outline>
</glyph>
<glyph name="greaterequal" format="2">
	<advance width="482"/>
	<unicode hex="2265"/>
	<outline>
		<contour>
			<point x="50" y="216" type="line"/>
			<point x="219" y="216" type="line"/>
			<point x="432" y="360" type="line"/>
			<point x="100" y="580" type="line"/>
			<point x="51" y="494" type="line"/>
			<point x="268" y="359" type="line"/>
		</contour>
		<contour>
			<point x="50" y="216" type="line"/>
			<point x="50" y="121" type="line"/>
			<point x="422" y="121" type="line"/>
			<point x="422" y="216" type="line"/>
		</contour>
	</outline>
</glyph>
<glyph name="lozenge" format="2">
	<advance width="522"/>
	<unicode hex="25CA"/>
	<outline>
		<contour>
			<point x="471" y="359" type="line"/>
			<point x="313" y="594" type="line"/>
			<point x="210" y="594" type="line"/>
			<point x="51" y="359" type="line"/>
			<point x="210" y="125" type="line"/>
			<point x="313" y="125" type="line"/>
		</contour>
		<contour>
			<point x="170" y="360" type="line"/>
			<point x="262" y="494" type="line"/>
			<point x="353" y="360" type="line"/>
			<point x="262" y="225" type="line"/>
		</contour>
	</outline>
</glyph>
<glyph name="A.ss02" format="2">
	<advance width="444"/>
	<anchor x="222" y="0" name="bottom"/>
	<anchor x="394" y="0" name="ogonek"/>
	<anchor x="222" y="718" name="top"/>
	<outline>
		<contour>
			<point x="393" y="718" type="line"/>
			<point x="51" y="718" type="line"/>
			<point x="51" y="0" type="line"/>
			<point x="154" y="0" type="line"/>
			<point x="154" y="184" type="line" smooth="yes"/>
			<point x="154" y="214"/>
			<point x="161" y="231"/>
			<point x="191" y="231" type="curve" smooth="yes"/>
			<point x="253" y="231" type="line" smooth="yes"/>
			<point x="283" y="231"/>
			<point x="290" y="214"/>
			<point x="290" y="184" type="curve" smooth="yes"/>
			<point x="290" y="0" type="line"/>
			<point x="393" y="0" type="line"/>
		</contour>
		<contour>
			<point x="290" y="373" type="line" smooth="yes"/>
			<point x="290" y="343"/>
			<point x="283" y="326"/>
			<point x="253" y="326" type="curve" smooth="yes"/>
			<point x="191" y="326" type="line" smooth="yes"/>
			<point x="161" y="326"/>
			<point x="154" y="343"/>
			<point x="154" y="373" type="curve" smooth="yes"/>
			<point x="154" y="568" type="line" smooth="yes"/>
			<point x="154" y="605"/>
			<point x="174" y="625"/>
			<point x="211" y="625" type="curve" smooth="yes"/>
			<point x="233" y="625" type="line" smooth="yes"/>
			<point x="270" y="625"/>
			<point x="290" y="605"/>
			<point x="290" y="568" type="curve" smooth="yes"/>
		</contour>
	</outline>
</glyph>
<glyph name="AE.ss01" format="2">
	<advance width="904"/>
	<anchor x="262" y="0" name="bottom"/>
	<anchor x="504" y="10" name="ogonek"/>
	<anchor x="452" y="718" name="top"/>
	<outline>
		<contour>
			<point x="853" y="493" type="line"/>
			<point x="853" y="718" type="line"/>
			<point x="51" y="718" type="line"/>
			<point x="51" y="0" type="line"/>
			<point x="154" y="0" type="line"/>
			<point x="154" y="184" type="line" smooth="yes"/>
			<point x="154" y="214"/>
			<point x="161" y="231"/>
			<point x="191" y="231" type="curve" smooth="yes"/>
			<point x="363" y="231" type="line" smooth="yes"/>
			<point x="393" y="231"/>
			<point x="400" y="214"/>
			<point x="400" y="184" type="curve" smooth="yes"/>
			<point x="400" y="0" type="line"/>
			<point x="853" y="0" type="line"/>
			<point x="853" y="225" type="line"/>
			<point x="750" y="225" type="line"/>
			<point x="750" y="127" type="line" smooth="yes"/>
			<point x="750" y="107"/>
			<point x="738" y="95"/>
			<point x="718" y="95" type="curve" smooth="yes"/>
			<point x="535" y="95" type="line" smooth="yes"/>
			<point x="515" y="95"/>
			<point x="503" y="107"/>
			<point x="503" y="127" type="curve" smooth="yes"/>
			<point x="503" y="275" type="line" smooth="yes"/>
			<point x="503" y="298"/>
			<point x="516" y="311"/>
			<point x="539" y="311" type="curve" smooth="yes"/>
			<point x="705" y="311" type="line"/>
			<point x="705" y="406" type="line"/>
			<point x="539" y="406" type="line" smooth="yes"/>
			<point x="516" y="406"/>
			<point x="503" y="419"/>
			<point x="503" y="442" type="curve" smooth="yes"/>
			<point x="503" y="591" type="line" smooth="yes"/>
			<point x="503" y="611"/>
			<point x="515" y="623"/>
			<point x="535" y="623" type="curve" smooth="yes"/>
			<point x="718" y="623" type="line" smooth="yes"/>
			<point x="738" y="623"/>
			<point x="750" y="615"/>
			<point x="750" y="591" type="curve" smooth="yes"/>
			<point x="750" y="493" type="line"/>
		</contour>
		<contour>
			<point x="400" y="373" type="line" smooth="yes"/>
			<point x="400" y="343"/>
			<point x="393" y="326"/>
			<point x="363" y="326" type="curve" smooth="yes"/>
			<point x="191" y="326" type="line" smooth="yes"/>
			<point x="161" y="326"/>
			<point x="154" y="343"/>
			<point x="154" y="373" type="curve" smooth="yes"/>
			<point x="154" y="568" type="line" smooth="yes"/>
			<point x="154" y="605"/>
			<point x="174" y="625"/>
			<point x="211" y="625" type="curve" smooth="yes"/>
			<point x="343" y="625" type="line" smooth="yes"/>
			<point x="380" y="625"/>
			<point x="400" y="605"/>
			<point x="400" y="568" type="curve" smooth="yes"/>
		</contour>
	</outline>
</glyph>
<glyph name="AE.ss02" format="2">
	<advance width="635"/>
	<anchor x="322" y="718" name="top"/>
	<outline>
		<contour>
			<point x="584" y="513" type="line"/>
			<point x="584" y="718" type="line"/>
			<point x="51" y="718" type="line"/>
			<point x="51" y="0" type="line"/>
			<point x="154" y="0" type="line"/>
			<point x="154" y="184" type="line" smooth="yes"/>
			<point x="154" y="214"/>
			<point x="161" y="231"/>
			<point x="191" y="231" type="curve" smooth="yes"/>
			<point x="233" y="231" type="line" smooth="yes"/>
			<point x="263" y="231"/>
			<point x="270" y="214"/>
			<point x="270" y="184" type="curve" smooth="yes"/>
			<point x="270" y="0" type="line"/>
			<point x="584" y="0" type="line"/>
			<point x="584" y="205" type="line"/>
			<point x="481" y="205" type="line"/>
			<point x="481" y="127" type="line" smooth="yes"/>
			<point x="481" y="107"/>
			<point x="469" y="95"/>
			<point x="449" y="95" type="curve" smooth="yes"/>
			<point x="406" y="95" type="line" smooth="yes"/>
			<point x="386" y="95"/>
			<point x="374" y="107"/>
			<point x="374" y="127" type="curve" smooth="yes"/>
			<point x="374" y="275" type="line" smooth="yes"/>
			<point x="374" y="298"/>
			<point x="387" y="311"/>
			<point x="410" y="311" type="curve" smooth="yes"/>
			<point x="536" y="311" type="line"/>
			<point x="536" y="406" type="line"/>
			<point x="410" y="406" type="line" smooth="yes"/>
			<point x="387" y="406"/>
			<point x="374" y="419"/>
			<point x="374" y="442" type="curve" smooth="yes"/>
			<point x="374" y="591" type="line" smooth="yes"/>
			<point x="374" y="611"/>
			<point x="386" y="623"/>
			<point x="406" y="623" type="curve" smooth="yes"/>
			<point x="449" y="623" type="line" smooth="yes"/>
			<point x="469" y="623"/>
			<point x="481" y="615"/>
			<point x="481" y="591" type="curve" smooth="yes"/>
			<point x="481" y="513" type="line"/>
		</contour>
		<contour>
			<point x="270" y="373" type="line" smooth="yes"/>
			<point x="270" y="343"/>
			<point x="263" y="326"/>
			<point x="233" y="326" type="curve" smooth="yes"/>
			<point x="191" y="326" type="line" smooth="yes"/>
			<point x="161" y="326"/>
			<point x="154" y="343"/>
			<point x="154" y="373" type="curve" smooth="yes"/>
			<point x="154" y="568" type="line" smooth="yes"/>
			<point x="154" y="605"/>
			<point x="174" y="625"/>
			<point x="211" y="625" type="curve" smooth="yes"/>
			<point x="213" y="625" type="line" smooth="yes"/>
			<point x="250" y="625"/>
			<point x="270" y="605"/>
			<point x="270" y="568" type="curve" smooth="yes"/>
		</contour>
	</outline>
</glyph>
<glyph name="Adblgrave.ss01" format="2">
	<advance width="584"/>
	<anchor x="292" y="0" name="bottom"/>
	<anchor x="534" y="10" name="ogonek"/>
	<anchor x="292" y="718" name="top"/>
	<outline>
		<contour>
			<point x="179" y="836" type="line" smooth="yes"/>
			<point x="185" y="791"/>
			<point x="212" y="759"/>
			<point x="257" y="759" type="curve" smooth="yes"/>
			<point x="283" y="759" type="line"/>
			<point x="263" y="923" type="line"/>
			<point x="168" y="923" type="line"/>
		</contour>
		<contour>
			<point x="309" y="836" type="line" smooth="yes"/>
			<point x="315" y="791"/>
			<point x="342" y="759"/>
			<point x="387" y="759" type="curve" smooth="yes"/>
			<point x="413" y="759" type="line"/>
			<point x="393" y="923" type="line"/>
			<point x="298" y="923" type="line"/>
		</contour>
		<contour>
			<point x="533" y="718" type="line"/>
			<point x="51" y="718" type="line"/>
			<point x="51" y="0" type="line"/>
			<point x="154" y="0" type="line"/>
			<point x="154" y="184" type="line" smooth="yes"/>
			<point x="154" y="214"/>
			<point x="161" y="231"/>
			<point x="191" y="231" type="curve" smooth="yes"/>
			<point x="393" y="231" type="line" smooth="yes"/>
			<point x="423" y="231"/>
			<point x="430" y="214"/>
			<point x="430" y="184" type="curve" smooth="yes"/>
			<point x="430" y="0" type="line"/>
			<point x="533" y="0" type="line"/>
		</contour>
		<contour>
			<point x="430" y="373" type="line" smooth="yes"/>
			<point x="430" y="343"/>
			<point x="423" y="326"/>
			<point x="393" y="326" type="curve" smooth="yes"/>
			<point x="191" y="326" type="line" smooth="yes"/>
			<point x="161" y="326"/>
			<point x="154" y="343"/>
			<point x="154" y="373" type="curve" smooth="yes"/>
			<point x="154" y="568" type="line" smooth="yes"/>
			<point x="154" y="605"/>
			<point x="174" y="625"/>
			<point x="211" y="625" type="curve" smooth="yes"/>
			<point x="373" y="625" type="line" smooth="yes"/>
			<point x="410" y="625"/>
			<point x="430" y="605"/>
			<point x="430" y="568" type="curve" smooth="yes"/>
		</contour>
	</outline>
</glyph>
<glyph name="Agrave.ss01" format="2">
	<advance width="584"/>
	<anchor x="292" y="0" name="bottom"/>
	<anchor x="534" y="10" name="ogonek"/>
	<anchor x="292" y="718" name="top"/>
	<outline>
		<contour>
			<point x="247" y="843" type="line" smooth="yes"/>
			<point x="247" y="798"/>
			<point x="280" y="766"/>
			<point x="325" y="766" type="curve" smooth="yes"/>
			<point x="337" y="766" type="line"/>
			<point x="337" y="923" type="line"/>
			<point x="247" y="923" type="line"/>
		</contour>
		<contour>
			<point x="533" y="718" type="line"/>
			<point x="51" y="718" type="line"/>
			<point x="51" y="0" type="line"/>
			<point x="154" y="0" type="line"/>
			<point x="154" y="184" type="line" smooth="yes"/>
			<point x="154" y="214"/>
			<point x="161" y="231"/>
			<point x="191" y="231" type="curve" smooth="yes"/>
			<point x="393" y="231" type="line" smooth="yes"/>
			<point x="423" y="231"/>
			<point x="430" y="214"/>
			<point x="430" y="184" type="curve" smooth="yes"/>
			<point x="430" y="0" type="line"/>
			<point x="533" y="0" type="line"/>
		</contour>
		<contour>
			<point x="430" y="373" type="line" smooth="yes"/>
			<point x="430" y="343"/>
			<point x="423" y="326"/>
			<point x="393" y="326" type="curve" smooth="yes"/>
			<point x="191" y="326" type="line" smooth="yes"/>
			<point x="161" y="326"/>
			<point x="154" y="343"/>
			<point x="154" y="373" type="curve" smooth="yes"/>
			<point x="154" y="568" type="line" smooth="yes"/>
			<point x="154" y="605"/>
			<point x="174" y="625"/>
			<point x="211" y="625" type="curve" smooth="yes"/>
			<point x="373" y="625" type="line" smooth="yes"/>
			<point x="410" y="625"/>
			<point x="430" y="605"/>
			<point x="430" y="568" type="curve" smooth="yes"/>
		</contour>
	</outline>
</glyph>
<glyph name="Agrave.ss02" format="2">
	<advance width="444"/>
	<anchor x="222" y="0" name="bottom"/>
	<anchor x="393" y="10" name="ogonek"/>
	<anchor x="222" y="718" name="top"/>
	<outline>
		<contour>
			<point x="177" y="843" type="line" smooth="yes"/>
			<point x="177" y="798"/>
			<point x="210" y="766"/>
			<point x="255" y="766" type="curve" smooth="yes"/>
			<point x="267" y="766" type="line"/>
			<point x="267" y="923" type="line"/>
			<point x="177" y="923" type="line"/>
		</contour>
		<contour>
			<point x="393" y="718" type="line"/>
			<point x="51" y="718" type="line"/>
			<point x="51" y="0" type="line"/>
			<point x="154" y="0" type="line"/>
			<point x="154" y="184" type="line" smooth="yes"/>
			<point x="154" y="214"/>
			<point x="161" y="231"/>
			<point x="191" y="231" type="curve" smooth="yes"/>
			<point x="253" y="231" type="line" smooth="yes"/>
			<point x="283" y="231"/>
			<point x="290" y="214"/>
			<point x="290" y="184" type="curve" smooth="yes"/>
			<point x="290" y="0" type="line"/>
			<point x="393" y="0" type="line"/>
		</contour>
		<contour>
			<point x="290" y="373" type="line" smooth="yes"/>
			<point x="290" y="343"/>
			<point x="283" y="326"/>
			<point x="253" y="326" type="curve" smooth="yes"/>
			<point x="191" y="326" type="line" smooth="yes"/>
			<point x="161" y="326"/>
			<point x="154" y="343"/>
			<point x="154" y="373" type="curve" smooth="yes"/>
			<point x="154" y="568" type="line" smooth="yes"/>
			<point x="154" y="605"/>
			<point x="174" y="625"/>
			<point x="211" y="625" type="curve" smooth="yes"/>
			<point x="233" y="625" type="line" smooth="yes"/>
			<point x="270" y="625"/>
			<point x="290" y="605"/>
			<point x="290" y="568" type="curve" smooth="yes"/>
		</contour>
	</outline>
</glyph>
<glyph name="B.ss01" format="2">
	<advance width="595"/>
	<anchor x="298" y="0" name="bottom"/>
	<anchor x="298" y="718" name="top"/>
	<outline>
		<contour>
			<point x="420" y="362" type="line"/>
			<point x="543" y="452" type="line"/>
			<point x="543" y="718" type="line"/>
			<point x="51" y="718" type="line"/>
			<point x="51" y="0" type="line"/>
			<point x="544" y="0" type="line"/>
			<point x="544" y="282" type="line"/>
		</contour>
		<contour>
			<point x="154" y="568" type="line" smooth="yes"/>
			<point x="154" y="605"/>
			<point x="174" y="625"/>
			<point x="211" y="625" type="curve" smooth="yes"/>
			<point x="440" y="625" type="line"/>
			<point x="440" y="498" type="line"/>
			<point x="317" y="408" type="line"/>
			<point x="191" y="408" type="line" smooth="yes"/>
			<point x="161" y="408"/>
			<point x="154" y="425"/>
			<point x="154" y="455" type="curve" smooth="yes"/>
		</contour>
		<contour>
			<point x="211" y="93" type="line" smooth="yes"/>
			<point x="174" y="93"/>
			<point x="154" y="113"/>
			<point x="154" y="150" type="curve" smooth="yes"/>
			<point x="154" y="266" type="line" smooth="yes"/>
			<point x="154" y="296"/>
			<point x="161" y="313"/>
			<point x="191" y="313" type="curve" smooth="yes"/>
			<point x="314" y="313" type="line"/>
			<point x="441" y="231" type="line"/>
			<point x="441" y="93" type="line"/>
		</contour>
	</outline>
</glyph>
<glyph name="B.ss02" format="2">
	<advance width="445"/>
	<anchor x="238" y="0" name="bottom"/>
	<anchor x="238" y="718" name="top"/>
	<outline>
		<contour>
			<point x="270" y="362" type="line"/>
			<point x="393" y="452" type="line"/>
			<point x="393" y="718" type="line"/>
			<point x="51" y="718" type="line"/>
			<point x="51" y="0" type="line"/>
			<point x="394" y="0" type="line"/>
			<point x="394" y="282" type="line"/>
		</contour>
		<contour>
			<point x="154" y="568" type="line" smooth="yes"/>
			<point x="154" y="605"/>
			<point x="174" y="625"/>
			<point x="211" y="625" type="curve" smooth="yes"/>
			<point x="290" y="625" type="line"/>
			<point x="290" y="496" type="line"/>
			<point x="170" y="408" type="line"/>
			<point x="154" y="408" type="line"/>
		</contour>
		<contour>
			<point x="211" y="93" type="line" smooth="yes"/>
			<point x="174" y="93"/>
			<point x="154" y="113"/>
			<point x="154" y="150" type="curve" smooth="yes"/>
			<point x="154" y="313" type="line"/>
			<point x="167" y="313" type="line"/>
			<point x="291" y="233" type="line"/>
			<point x="291" y="93" type="line"/>
		</contour>
	</outline>
</glyph>
<glyph name="C.ss01" format="2">
	<advance width="595"/>
	<anchor x="293" y="0" name="bottom"/>
	<anchor x="293" y="718" name="top"/>
	<outline>
		<contour>
			<point x="51" y="718" type="line"/>
			<point x="51" y="0" type="line"/>
			<point x="544" y="0" type="line"/>
			<point x="544" y="255" type="line"/>
			<point x="441" y="255" type="line"/>
			<point x="441" y="127" type="line" smooth="yes"/>
			<point x="441" y="107"/>
			<point x="429" y="95"/>
			<point x="409" y="95" type="curve" smooth="yes"/>
			<point x="186" y="95" type="line" smooth="yes"/>
			<point x="166" y="95"/>
			<point x="154" y="107"/>
			<point x="154" y="127" type="curve" smooth="yes"/>
			<point x="154" y="591" type="line" smooth="yes"/>
			<point x="154" y="611"/>
			<point x="166" y="623"/>
			<point x="186" y="623" type="curve" smooth="yes"/>
			<point x="409" y="623" type="line" smooth="yes"/>
			<point x="429" y="623"/>
			<point x="441" y="611"/>
			<point x="441" y="591" type="curve" smooth="yes"/>
			<point x="441" y="463" type="line"/>
			<point x="544" y="463" type="line"/>
			<point x="544" y="718" type="line"/>
		</contour>
	</outline>
</glyph>
<glyph name="C.ss02" format="2">
	<advance width="415"/>
	<anchor x="208" y="0" name="bottom"/>
	<anchor x="208" y="718" name="top"/>
	<outline>
		<contour>
			<point x="51" y="718" type="line"/>
			<point x="51" y="0" type="line"/>
			<point x="364" y="0" type="line"/>
			<point x="364" y="255" type="line"/>
			<point x="261" y="255" type="line"/>
			<point x="261" y="127" type="line" smooth="yes"/>
			<point x="261" y="107"/>
			<point x="249" y="95"/>
			<point x="229" y="95" type="curve" smooth="yes"/>
			<point x="186" y="95" type="line" smooth="yes"/>
			<point x="166" y="95"/>
			<point x="154" y="107"/>
			<point x="154" y="127" type="curve" smooth="yes"/>
			<point x="154" y="591" type="line" smooth="yes"/>
			<point x="154" y="611"/>
			<point x="166" y="623"/>
			<point x="186" y="623" type="curve" smooth="yes"/>
			<point x="229" y="623" type="line" smooth="yes"/>
			<point x="249" y="623"/>
			<point x="261" y="611"/>
			<point x="261" y="591" type="curve" smooth="yes"/>
			<point x="261" y="463" type="line"/>
			<point x="364" y="463" type="line"/>
			<point x="364" y="718" type="line"/>
		</contour>
	</outline>
</glyph>
<glyph name="D.ss01" format="2">
	<advance width="605"/>
	<anchor x="303" y="0" name="bottom"/>
	<anchor x="303" y="359" name="center"/>
	<anchor x="303" y="718" name="top"/>
	<outline>
		<contour>
			<point x="403" y="718" type="line"/>
			<point x="51" y="718" type="line"/>
			<point x="51" y="0" type="line"/>
			<point x="403" y="0" type="line"/>
			<point x="554" y="116" type="line"/>
			<point x="554" y="602" type="line"/>
		</contour>
		<contour>
			<point x="451" y="556" type="line"/>
			<point x="451" y="162" type="line"/>
			<point x="362" y="95" type="line"/>
			<point x="191" y="95" type="line" smooth="yes"/>
			<point x="161" y="95"/>
			<point x="154" y="112"/>
			<point x="154" y="142" type="curve" smooth="yes"/>
			<point x="154" y="576" type="line" smooth="yes"/>
			<point x="154" y="606"/>
			<point x="161" y="623"/>
			<point x="191" y="623" type="curve" smooth="yes"/>
			<point x="362" y="623" type="line"/>
		</contour>
	</outline>
</glyph>
<glyph name="Edblgrave.ss01" format="2">
	<advance width="585"/>
	<anchor x="293" y="0" name="bottom"/>
	<anchor x="534" y="10" name="ogonek"/>
	<anchor x="293" y="718" name="top"/>
	<anchor x="20" y="718" name="topleft"/>
	<outline>
		<contour>
			<point x="180" y="836" type="line" smooth="yes"/>
			<point x="186" y="791"/>
			<point x="213" y="759"/>
			<point x="258" y="759" type="curve" smooth="yes"/>
			<point x="284" y="759" type="line"/>
			<point x="264" y="923" type="line"/>
			<point x="169" y="923" type="line"/>
		</contour>
		<contour>
			<point x="310" y="836" type="line" smooth="yes"/>
			<point x="316" y="791"/>
			<point x="343" y="759"/>
			<point x="388" y="759" type="curve" smooth="yes"/>
			<point x="414" y="759" type="line"/>
			<point x="394" y="923" type="line"/>
			<point x="299" y="923" type="line"/>
		</contour>
		<contour>
			<point x="534" y="493" type="line"/>
			<point x="534" y="718" type="line"/>
			<point x="51" y="718" type="line"/>
			<point x="51" y="0" type="line"/>
			<point x="534" y="0" type="line"/>
			<point x="534" y="225" type="line"/>
			<point x="431" y="225" type="line"/>
			<point x="431" y="127" type="line" smooth="yes"/>
			<point x="431" y="107"/>
			<point x="419" y="95"/>
			<point x="399" y="95" type="curve" smooth="yes"/>
			<point x="186" y="95" type="line" smooth="yes"/>
			<point x="166" y="95"/>
			<point x="154" y="107"/>
			<point x="154" y="127" type="curve" smooth="yes"/>
			<point x="154" y="275" type="line" smooth="yes"/>
			<point x="154" y="298"/>
			<point x="167" y="311"/>
			<point x="190" y="311" type="curve" smooth="yes"/>
			<point x="386" y="311" type="line"/>
			<point x="386" y="406" type="line"/>
			<point x="190" y="406" type="line" smooth="yes"/>
			<point x="167" y="406"/>
			<point x="154" y="419"/>
			<point x="154" y="442" type="curve" smooth="yes"/>
			<point x="154" y="591" type="line" smooth="yes"/>
			<point x="154" y="611"/>
			<point x="166" y="623"/>
			<point x="186" y="623" type="curve" smooth="yes"/>
			<point x="399" y="623" type="line" smooth="yes"/>
			<point x="419" y="623"/>
			<point x="431" y="615"/>
			<point x="431" y="591" type="curve" smooth="yes"/>
			<point x="431" y="493" type="line"/>
		</contour>
	</outline>
</glyph>
<glyph name="Edblgrave.ss02" format="2">
	<advance width="405"/>
	<anchor x="203" y="0" name="bottom"/>
	<anchor x="364" y="10" name="ogonek"/>
	<anchor x="203" y="718" name="top"/>
	<anchor x="20" y="718" name="topleft"/>
	<outline>
		<contour>
			<point x="90" y="836" type="line" smooth="yes"/>
			<point x="96" y="791"/>
			<point x="123" y="759"/>
			<point x="168" y="759" type="curve" smooth="yes"/>
			<point x="194" y="759" type="line"/>
			<point x="174" y="923" type="line"/>
			<point x="79" y="923" type="line"/>
		</contour>
		<contour>
			<point x="220" y="836" type="line" smooth="yes"/>
			<point x="226" y="791"/>
			<point x="253" y="759"/>
			<point x="298" y="759" type="curve" smooth="yes"/>
			<point x="324" y="759" type="line"/>
			<point x="304" y="923" type="line"/>
			<point x="209" y="923" type="line"/>
		</contour>
		<contour>
			<point x="354" y="493" type="line"/>
			<point x="354" y="718" type="line"/>
			<point x="51" y="718" type="line"/>
			<point x="51" y="0" type="line"/>
			<point x="354" y="0" type="line"/>
			<point x="354" y="225" type="line"/>
			<point x="251" y="225" type="line"/>
			<point x="251" y="127" type="line" smooth="yes"/>
			<point x="251" y="107"/>
			<point x="239" y="95"/>
			<point x="219" y="95" type="curve" smooth="yes"/>
			<point x="186" y="95" type="line" smooth="yes"/>
			<point x="166" y="95"/>
			<point x="154" y="107"/>
			<point x="154" y="127" type="curve" smooth="yes"/>
			<point x="154" y="275" type="line" smooth="yes"/>
			<point x="154" y="298"/>
			<point x="167" y="311"/>
			<point x="190" y="311" type="curve" smooth="yes"/>
			<point x="352" y="311" type="line"/>
			<point x="352" y="406" type="line"/>
			<point x="190" y="406" type="line" smooth="yes"/>
			<point x="167" y="406"/>
			<point x="154" y="419"/>
			<point x="154" y="442" type="curve" smooth="yes"/>
			<point x="154" y="591" type="line" smooth="yes"/>
			<point x="154" y="611"/>
			<point x="166" y="623"/>
			<point x="186" y="623" type="curve" smooth="yes"/>
			<point x="219" y="623" type="line" smooth="yes"/>
			<point x="239" y="623"/>
			<point x="251" y="615"/>
			<point x="251" y="591" type="curve" smooth="yes"/>
			<point x="251" y="493" type="line"/>
		</contour>
	</outline>
</glyph>
<glyph name="Egrave.ss02" format="2">
	<advance width="405"/>
	<anchor x="203" y="0" name="bottom"/>
	<anchor x="364" y="10" name="ogonek"/>
	<anchor x="203" y="718" name="top"/>
	<anchor x="20" y="718" name="topleft"/>
	<outline>
		<contour>
			<point x="158" y="843" type="line" smooth="yes"/>
			<point x="158" y="798"/>
			<point x="191" y="766"/>
			<point x="236" y="766" type="curve" smooth="yes"/>
			<point x="248" y="766" type="line"/>
			<point x="248" y="923" type="line"/>
			<point x="158" y="923" type="line"/>
		</contour>
		<contour>
			<point x="354" y="493" type="line"/>
			<point x="354" y="718" type="line"/>
			<point x="51" y="718" type="line"/>
			<point x="51" y="0" type="line"/>
			<point x="354" y="0" type="line"/>
			<point x="354" y="225" type="line"/>
			<point x="251" y="225" type="line"/>
			<point x="251" y="127" type="line" smooth="yes"/>
			<point x="251" y="107"/>
			<point x="239" y="95"/>
			<point x="219" y="95" type="curve" smooth="yes"/>
			<point x="186" y="95" type="line" smooth="yes"/>
			<point x="166" y="95"/>
			<point x="154" y="107"/>
			<point x="154" y="127" type="curve" smooth="yes"/>
			<point x="154" y="275" type="line" smooth="yes"/>
			<point x="154" y="298"/>
			<point x="167" y="311"/>
			<point x="190" y="311" type="curve" smooth="yes"/>
			<point x="352" y="311" type="line"/>
			<point x="352" y="406" type="line"/>
			<point x="190" y="406" type="line" smooth="yes"/>
			<point x="167" y="406"/>
			<point x="154" y="419"/>
			<point x="154" y="442" type="curve" smooth="yes"/>
			<point x="154" y="591" type="line" smooth="yes"/>
			<point x="154" y="611"/>
			<point x="166" y="623"/>
			<point x="186" y="623" type="curve" smooth="yes"/>
			<point x="219" y="623" type="line" smooth="yes"/>
			<point x="239" y="623"/>
			<point x="251" y="615"/>
			<point x="251" y="591" type="curve" smooth="yes"/>
			<point x="251" y="493" type="line"/>
		</contour>
	</outline>
</glyph>
<glyph name="Eng.ss01" format="2">
	<advance width="625"/>
	<anchor x="313" y="0" name="bottom"/>
	<anchor x="313" y="718" name="top"/>
	<outline>
		<contour>
			<point x="372" y="718" type="line"/>
			<point x="372" y="625" type="line"/>
			<point x="414" y="625" type="line" smooth="yes"/>
			<point x="451" y="625"/>
			<point x="471" y="605"/>
			<point x="471" y="568" type="curve" smooth="yes"/>
			<point x="471" y="191" type="line"/>
			<point x="154" y="711" type="line"/>
			<point x="154" y="718" type="line"/>
			<point x="51" y="718" type="line"/>
			<point x="51" y="0" type="line"/>
			<point x="253" y="0" type="line"/>
			<point x="253" y="93" type="line"/>
			<point x="211" y="93" type="line" smooth="yes"/>
			<point x="174" y="93"/>
			<point x="154" y="113"/>
			<point x="154" y="150" type="curve" smooth="yes"/>
			<point x="154" y="519" type="line"/>
			<point x="469" y="3" type="line"/>
			<point x="464" y="-23"/>
			<point x="445" y="-37"/>
			<point x="414" y="-37" type="curve" smooth="yes"/>
			<point x="372" y="-37" type="line"/>
			<point x="372" y="-130" type="line"/>
			<point x="574" y="-130" type="line"/>
			<point x="574" y="718" type="line"/>
		</contour>
	</outline>
</glyph>
<glyph name="Eth.ss01" format="2">
	<advance width="656"/>
	<anchor x="354" y="0" name="bottom"/>
	<anchor x="354" y="359" name="center"/>
	<anchor x="354" y="718" name="top"/>
	<outline>
		<contour>
			<point x="454" y="718" type="line"/>
			<point x="102" y="718" type="line"/>
			<point x="102" y="406" type="line"/>
			<point x="51" y="406" type="line"/>
			<point x="51" y="311" type="line"/>
			<point x="102" y="311" type="line"/>
			<point x="102" y="0" type="line"/>
			<point x="454" y="0" type="line"/>
			<point x="605" y="116" type="line"/>
			<point x="605" y="602" type="line"/>
		</contour>
		<contour>
			<point x="502" y="162" type="line"/>
			<point x="413" y="95" type="line"/>
			<point x="242" y="95" type="line" smooth="yes"/>
			<point x="212" y="95"/>
			<point x="205" y="112"/>
			<point x="205" y="142" type="curve" smooth="yes"/>
			<point x="205" y="311" type="line"/>
			<point x="313" y="311" type="line"/>
			<point x="313" y="406" type="line"/>
			<point x="205" y="406" type="line"/>
			<point x="205" y="576" type="line" smooth="yes"/>
			<point x="205" y="606"/>
			<point x="212" y="623"/>
			<point x="242" y="623" type="curve" smooth="yes"/>
			<point x="413" y="623" type="line"/>
			<point x="502" y="556" type="line"/>
		</contour>
	</outline>
</glyph>
